<svg xmlns="http://www.w3.org/2000/svg" viewBox="0 0 142.39 27.2"><defs><style>.cls-1{fill:#1d1d1b;}</style></defs><title>Instynct-noir1</title><g id="Calque_2" data-name="Calque 2"><g id="Calque_1-2" data-name="Calque 1"><rect class="cls-1" x="33.9" y="3.86" width="3.39" height="19.48" rx="0.44" ry="0.44"/><path class="cls-1" d="M52.6,3.86H50.08a.4.4,0,0,0-.44.44V14.56c0,.27-.15.29-.25.05L45.71,4.19a.49.49,0,0,0-.48-.33H42.4a.4.4,0,0,0-.44.44V22.9a.4.4,0,0,0,.44.44h2.52a.4.4,0,0,0,.44-.44V12.63c0-.27.15-.29.25,0L49.29,23a.49.49,0,0,0,.48.33H52.6A.4.4,0,0,0,53,22.9V4.29A.4.4,0,0,0,52.6,3.86Z"/><path class="cls-1" d="M66.11,4.06a.64.64,0,0,0-.49-.2H59.57a.64.64,0,0,0-.49.2L57.85,5.28a.63.63,0,0,0-.2.49v7.4a.63.63,0,0,0,.2.49l1.22,1.22a.65.65,0,0,0,.49.2h4a.47.47,0,0,1,.37.16l0,0a.47.47,0,0,1,.15.37V19.5a.47.47,0,0,1-.15.37l0,0a.47.47,0,0,1-.37.15h-2a.48.48,0,0,1-.37-.15l0,0A.48.48,0,0,1,61,19.5V18a.4.4,0,0,0-.44-.44H58.09a.4.4,0,0,0-.44.44v3.38a.64.64,0,0,0,.2.49l1.22,1.22a.64.64,0,0,0,.49.2h6.05a.64.64,0,0,0,.49-.2l1.22-1.22a.64.64,0,0,0,.2-.49V13.7a.64.64,0,0,0-.2-.49L66.11,12a.64.64,0,0,0-.49-.2h-4a.47.47,0,0,1-.37-.15l0,0a.48.48,0,0,1-.15-.37V7.73a.48.48,0,0,1,.15-.37l0,0a.48.48,0,0,1,.37-.15h2a.47.47,0,0,1,.37.15l0,0a.47.47,0,0,1,.15.37V9.15a.4.4,0,0,0,.44.44h2.54a.4.4,0,0,0,.44-.44V5.77a.63.63,0,0,0-.2-.49Z"/><path class="cls-1" d="M81.72,3.86H72.24a.4.4,0,0,0-.44.44V6.71a.4.4,0,0,0,.44.44H75a.24.24,0,0,1,.27.27V22.9a.4.4,0,0,0,.44.44h2.52a.4.4,0,0,0,.44-.44V7.42a.24.24,0,0,1,.27-.27h2.77a.4.4,0,0,0,.44-.44V4.29A.4.4,0,0,0,81.72,3.86Z"/><path class="cls-1" d="M97.78,3.86H95a.49.49,0,0,0-.49.36l-2.19,7.07c0,.14-.11.19-.15.19s-.11,0-.15-.19L89.85,4.22a.49.49,0,0,0-.48-.36H86.6a.4.4,0,0,0-.35.15.38.38,0,0,0,0,.37l4.19,12a1.1,1.1,0,0,1,.07.4V22.9a.4.4,0,0,0,.44.44h2.49a.4.4,0,0,0,.44-.44V16.75a1.08,1.08,0,0,1,.07-.4l4.19-12a.38.38,0,0,0,0-.37A.4.4,0,0,0,97.78,3.86Z"/><path class="cls-1" d="M112.82,3.86H110.3a.4.4,0,0,0-.44.44V14.56c0,.27-.15.29-.24.05L105.93,4.18a.5.5,0,0,0-.48-.33h-2.82a.4.4,0,0,0-.44.44V22.9a.4.4,0,0,0,.44.44h2.52a.4.4,0,0,0,.44-.44V12.63c0-.27.15-.29.24,0L109.52,23a.49.49,0,0,0,.48.33h2.82a.4.4,0,0,0,.44-.44V4.29A.4.4,0,0,0,112.82,3.86Z"/><path class="cls-1" d="M126.36,4.06a.64.64,0,0,0-.49-.2h-6a.65.65,0,0,0-.49.2l-1.22,1.22a.63.63,0,0,0-.2.49V21.43a.63.63,0,0,0,.2.49l1.22,1.22a.64.64,0,0,0,.49.2h6a.64.64,0,0,0,.49-.2l1.22-1.22a.64.64,0,0,0,.2-.49V18a.4.4,0,0,0-.44-.44h-2.52a.4.4,0,0,0-.44.44v1.42a.48.48,0,0,1-.15.37l0,0a.48.48,0,0,1-.37.15H121.9a.48.48,0,0,1-.38-.16l0,0a.49.49,0,0,1-.15-.38V7.73a.48.48,0,0,1,.15-.37l0,0a.47.47,0,0,1,.37-.15h1.93a.47.47,0,0,1,.37.15l0,0a.47.47,0,0,1,.15.37V9.15a.4.4,0,0,0,.44.44h2.52a.4.4,0,0,0,.44-.44V5.77a.64.64,0,0,0-.2-.49Z"/><path class="cls-1" d="M141.95,3.86h-9.48a.4.4,0,0,0-.44.44V6.71a.4.4,0,0,0,.44.44h2.77a.24.24,0,0,1,.27.27V22.9a.4.4,0,0,0,.44.44h2.52a.4.4,0,0,0,.44-.44V7.42a.24.24,0,0,1,.27-.27h2.77a.4.4,0,0,0,.44-.44V4.29A.4.4,0,0,0,141.95,3.86Z"/><path class="cls-1" d="M26.12,0H.23A.23.23,0,0,0,0,.23V19.52a.23.23,0,0,0,.11.2l12.95,7.45a.23.23,0,0,0,.11,0,.24.24,0,0,0,.12,0l12.94-7.45a.23.23,0,0,0,.12-.2V.23A.23.23,0,0,0,26.12,0Zm-.78,1V19.06l-12.16,7L1,19.07V1Z"/><path class="cls-1" d="M3.88,14.46H7.26L4.93,18a.17.17,0,0,0,.14.27H8.82A.17.17,0,0,0,9,18.11v-.7a.17.17,0,0,0-.17-.17H6.7L9,13.69a.17.17,0,0,0-.14-.27H5.52L8.76,8.58a.18.18,0,0,0,0-.19L6.84,5.3,12.65,9V21.4l-1.33-.77.7-9.8a.17.17,0,0,0,0-.13.18.18,0,0,0-.13-.06l-3.17-.06,1.46,1,.74.43-.65,9.09a.18.18,0,0,0,.09.17l2.73,1.57V23l.12-.07.13.07v-.14L16,21.26a.18.18,0,0,0,.08-.16L15.47,12l.75-.44,1.45-1-3.18.06a.17.17,0,0,0-.12.06.17.17,0,0,0,0,.13l.7,9.79-1.33.77V9l5.81-3.7L17.58,8.4a.18.18,0,0,0,0,.18l3.24,4.84H17.47a.18.18,0,0,0-.15.09.17.17,0,0,0,0,.17l2.33,3.55H17.54a.17.17,0,0,0-.17.17v.7a.17.17,0,0,0,.17.17h3.74a.17.17,0,0,0,.15-.09.17.17,0,0,0,0-.18l-2.33-3.55h3.38a.18.18,0,0,0,.16-.1.17.17,0,0,0,0-.17l-2.1-3.12,1.28-8.14a.18.18,0,0,0,0-.15.18.18,0,0,0-.23,0L13.18,8.09,10.38,6.31,4.81,2.76a.18.18,0,0,0-.23,0,.18.18,0,0,0,0,.15l1.28,8.13L3.74,14.19a.18.18,0,0,0,0,.19A.17.17,0,0,0,3.88,14.46ZM6.69,9.79,6.11,6.1,7.58,8.46Zm13,0-.89-1.32L20.25,6.1Z"/></g></g></svg>