<svg xmlns="http://www.w3.org/2000/svg" viewBox="0 0 8.49 8.49"><title>Instagram1</title><g id="Calque_2" data-name="Calque 2"><g id="Calque_1-2" data-name="Calque 1"><path d="M6.15,0H2.34A2.35,2.35,0,0,0,0,2.34v3.8A2.35,2.35,0,0,0,2.34,8.49h3.8A2.35,2.35,0,0,0,8.49,6.15V2.34A2.35,2.35,0,0,0,6.15,0ZM7.74,6.15A1.59,1.59,0,0,1,6.15,7.74H2.34A1.59,1.59,0,0,1,.75,6.15V2.34A1.59,1.59,0,0,1,2.34.75h3.8A1.59,1.59,0,0,1,7.74,2.34Zm0,0"/><path d="M4.24,2.06A2.19,2.19,0,1,0,6.43,4.24,2.19,2.19,0,0,0,4.24,2.06Zm0,3.62A1.43,1.43,0,1,1,5.68,4.24,1.44,1.44,0,0,1,4.24,5.68Zm0,0"/><path d="M6.52,1.42a.55.55,0,1,0,.39.16.55.55,0,0,0-.39-.16Zm0,0"/></g></g></svg>