<svg xmlns="http://www.w3.org/2000/svg" viewBox="0 0 8.88 8.49"><title>Linkedin1</title><g id="Calque_2" data-name="Calque 2"><g id="Calque_1-2" data-name="Calque 1"><rect x="0.11" y="2.76" width="1.91" height="5.73"/><path d="M8.28,3.28a2.05,2.05,0,0,0-1.59-.66A2.3,2.3,0,0,0,6,2.72a1.51,1.51,0,0,0-.5.25,2.49,2.49,0,0,0-.33.3A2.43,2.43,0,0,0,5,3.57V2.76H3.07V3q0,.28,0,1.71t0,3.74H5V5.29A1.4,1.4,0,0,1,5,4.82a1.23,1.23,0,0,1,.37-.49A.94.94,0,0,1,6,4.13a.82.82,0,0,1,.73.34,1.67,1.67,0,0,1,.23,1V8.49h1.9V5.2a2.75,2.75,0,0,0-.6-1.92Zm0,0"/><path d="M1.08,0A1.09,1.09,0,0,0,.3.28.93.93,0,0,0,0,1a1,1,0,0,0,.29.71A1,1,0,0,0,1.05,2h0a1.09,1.09,0,0,0,.78-.28A.92.92,0,0,0,2.14,1,1,1,0,0,0,1.84.28,1.06,1.06,0,0,0,1.08,0Zm0,0"/></g></g></svg>