<svg xmlns="http://www.w3.org/2000/svg" viewBox="0 0 14.41 14.19"><defs><style>.cls-1{fill:#9c9e9e;}</style></defs><title>Vue-moyen1</title><g id="Calque_2" data-name="Calque 2"><g id="Calque_1-2" data-name="Calque 1"><path id="Rectangle_5_copie_7" data-name="Rectangle 5 copie 7" class="cls-1" d="M1,0H5A1,1,0,0,1,6,1V4.91a1,1,0,0,1-1,1H1a1,1,0,0,1-1-1V1A1,1,0,0,1,1,0ZM9.41,0h4a1,1,0,0,1,1,1V4.91a1,1,0,0,1-1,1h-4a1,1,0,0,1-1-1V1a1,1,0,0,1,1-1h0ZM1,8.28H5a1,1,0,0,1,1,1v3.91a1,1,0,0,1-1,1H1a1,1,0,0,1-1-1V9.28a1,1,0,0,1,1-1Zm8.41,0h4a1,1,0,0,1,1,1v3.91a1,1,0,0,1-1,1h-4a1,1,0,0,1-1-1V9.28a1,1,0,0,1,1-1h0Z"/></g></g></svg>