<svg xmlns="http://www.w3.org/2000/svg" viewBox="0 0 14.25 14.16"><defs><style>.cls-1{fill:#9c9e9e;}</style></defs><title>vue-petit1</title><g id="Calque_2" data-name="Calque 2"><g id="Calque_1-2" data-name="Calque 1"><path id="Rectangle_5_copie_10" data-name="Rectangle 5 copie 10" class="cls-1" d="M1,0H2.78a1,1,0,0,1,1,1V2.75a1,1,0,0,1-1,1H1a1,1,0,0,1-1-1V1A1,1,0,0,1,1,0ZM6.28,0H8.09a1,1,0,0,1,1,1V2.75a1,1,0,0,1-1,1H6.28a1,1,0,0,1-1-1V1a1,1,0,0,1,1-1ZM1,5.25H2.78a1,1,0,0,1,1,1V8a1,1,0,0,1-1,1H1A1,1,0,0,1,0,8V6.25A1,1,0,0,1,1,5.25Zm5.28,0H8.09a1,1,0,0,1,1,1V8a1,1,0,0,1-1,1H6.28a1,1,0,0,1-1-1V6.25a1,1,0,0,1,1-1ZM11.44,0h1.81a1,1,0,0,1,1,1V2.75a1,1,0,0,1-1,1H11.44a1,1,0,0,1-1-1V1a1,1,0,0,1,1-1Zm0,5.25h1.81a1,1,0,0,1,1,1V8a1,1,0,0,1-1,1H11.44a1,1,0,0,1-1-1V6.25a1,1,0,0,1,1-1ZM1,10.38H2.78a1,1,0,0,1,1,1v1.78a1,1,0,0,1-1,1H1a1,1,0,0,1-1-1V11.38A1,1,0,0,1,1,10.38Zm5.28,0H8.09a1,1,0,0,1,1,1v1.78a1,1,0,0,1-1,1H6.28a1,1,0,0,1-1-1V11.38a1,1,0,0,1,1-1Zm5.16,0h1.81a1,1,0,0,1,1,1v1.78a1,1,0,0,1-1,1H11.44a1,1,0,0,1-1-1V11.38a1,1,0,0,1,1-1Z"/></g></g></svg>