<svg enable-background="new 0 0 455.731 455.731" version="1.1" viewBox="0 0 455.731 455.731" xml:space="preserve" xmlns="http://www.w3.org/2000/svg">
    <path d="m0 0v455.73h455.73v-455.73h-455.73zm139.94 375.96c0 5.804-4.705 10.509-10.509 10.509h-44.721c-5.804 0-10.509-4.705-10.509-10.509v-190.78c0-5.804 4.705-10.509 10.509-10.509h44.721c5.804 0 10.509 4.705 10.509 10.509v190.78zm-32.942-230.47c-20.308 0.411-38.155-16.551-38.151-38.188 0-20.985 17.282-38.105 38.408-38.088 20.873 0.017 38.088 17.257 38.043 38.234-0.05 21.964-18.278 38.52-38.3 38.042zm279.89 236.66c0 2.41-1.954 4.363-4.364 4.362l-57.152-0.014c-2.409-1e-3 -4.362-1.954-4.362-4.363v-117.81c0-10.183-4.126-19.407-10.802-26.079-6.764-6.768-16.149-10.916-26.501-10.799-20.279 0.229-36.454 17.068-36.454 37.348v117.32c0 2.41-1.954 4.363-4.364 4.362l-57.011-0.014c-2.409-1e-3 -4.361-1.954-4.361-4.362v-203.08c0-2.409 1.953-4.363 4.363-4.363h55.795c2.409 0 4.363 1.953 4.363 4.363v23.418c5e-3 -0.01 0.225 0.018 0.599 0.075 1.078-1.95 2.252-3.839 3.52-5.658 11.628-16.688 30.96-27.606 52.842-27.606h262.15v212.89z"/>
</svg>
