<?xml version="1.0" encoding="UTF-8"?>
<svg width="4418px" height="3410px" viewBox="0 0 4418 3410" version="1.1" xmlns="http://www.w3.org/2000/svg" xmlns:xlink="http://www.w3.org/1999/xlink">
    <title>preview</title>
    <defs>
        <radialGradient cx="0%" cy="0%" fx="0%" fy="0%" r="163.677469%" gradientTransform="translate(0.000000,0.000000),scale(0.771739,1.000000),rotate(37.658779),translate(-0.000000,-0.000000)" id="radialGradient-1">
            <stop stop-color="#FFFFFF" offset="0%"></stop>
            <stop stop-color="#FDFEFF" offset="100%"></stop>
        </radialGradient>
        <polygon id="path-2" points="0.191732458 0.244240306 541.509098 0.244240306 541.509098 527 0.191732458 527"></polygon>
        <polygon id="path-4" points="0.513548343 0.650518166 228.45943 0.650518166 228.45943 506.700933 0.513548343 506.700933"></polygon>
    </defs>
    <g id="Page-1" stroke="none" stroke-width="1" fill="none" fill-rule="evenodd">
        <g id="preview">
            <g id="Mask" transform="translate(1.562500, 0.000000)" fill="url(#radialGradient-1)" fill-rule="nonzero">
                <rect id="path-2" x="0" y="0" width="4416" height="3408"></rect>
            </g>
            <rect id="Rectangle" fill-opacity="0.45" fill="#93D500" transform="translate(132.634705, 1705.235739) rotate(90.000000) translate(-132.634705, -1705.235739) " x="-1571.3653" y="1577.23574" width="3408" height="256"></rect>
            <rect id="Rectangle" fill-opacity="0.86" fill="#1322A8" transform="translate(4289.562500, 1705.500000) rotate(90.000000) translate(-4289.562500, -1705.500000) " x="2585.0625" y="1577.5" width="3409" height="256"></rect>
            <rect id="Rectangle" fill-opacity="0.61" fill="#93D500" x="0.5625" y="3152" width="4416" height="256"></rect>
            <rect id="Rectangle" fill-opacity="0.73" fill="#1322A8" x="1.5625" y="0" width="4416" height="256"></rect>
            <g id="Logo" transform="translate(639.000000, 1442.000000)">
                <polygon id="Fill-1" fill="#1322A8" fill-rule="nonzero" points="0 13 0 183.298519 161.833766 183.298519 161.833766 518 342.166234 518 342.166234 183.298519 504 183.298519 504 13"></polygon>
                <g id="Group-20" transform="translate(398.000000, 0.000000)">
                    <g id="Fill-2-Clipped">
                        <mask id="mask-3" fill="white">
                            <use xlink:href="#path-2"></use>
                        </mask>
                        <g id="path-1"></g>
                        <path d="M356.342974,263.622517 C355.274816,310.653785 316.111651,347.915312 268.873524,346.85183 C221.643369,345.788349 184.209983,306.796682 185.278142,259.765413 C186.330358,213.472233 224.337679,176.488481 270.850415,176.512279 C318.136369,176.575782 356.422688,214.781744 356.366949,261.86063 C356.366949,262.447926 356.358918,263.035222 356.342974,263.622517 M270.850415,0.244240306 C121.619066,0.244240306 0.191732458,118.465261 0.191732458,263.622517 C0.191732458,408.787709 121.619066,527.000794 270.850415,527.000794 C420.089735,527.000794 541.509098,408.787709 541.509098,263.622517 C541.509098,118.465261 420.089735,0.244240306 270.850415,0.244240306" id="Fill-2" fill="#1322A8" fill-rule="nonzero" mask="url(#mask-3)"></path>
                    </g>
                    <polygon id="Fill-5" fill="#1322A8" fill-rule="nonzero" points="927.974529 10.3893754 827.543687 213.847626 726.435284 10.3893754 518.136349 10.3893754 518.136349 516.86042 695.187653 516.86042 695.187653 348.743081 765.614391 516.86042 882.035727 516.86042 953.219744 346.870084 953.219744 516.86042 1130.19931 516.86042 1130.19931 10.3893754"></polygon>
                    <path d="M1388.33502,145.490384 C1385.5052,86.9909777 1369.92124,55.2770146 1335.23796,55.2770146 C1303.38452,55.2770146 1289.21945,76.4196569 1289.21945,113.070079 C1289.21945,230.775232 1446.37431,248.3941 1446.37431,398.511623 C1446.37431,474.637833 1407.44231,521.85164 1336.65686,521.85164 C1264.44455,521.85164 1234.00999,476.740987 1229.0598,383.718122 L1282.85832,381.599097 C1287.80852,445.733365 1301.96561,471.106123 1338.06779,471.106123 C1371.34014,471.106123 1390.4554,445.733365 1390.4554,404.860764 C1390.4554,282.917559 1234.00999,264.600285 1234.00999,118.704941 C1234.00999,48.2215307 1270.11216,4.52356194 1333.81907,4.52356194 C1407.44231,4.52356194 1436.46594,55.9833566 1440.00521,143.371358 L1388.33502,145.490384 Z" id="Fill-7" fill="#93D500" fill-rule="nonzero"></path>
                    <polygon id="Fill-9" fill="#93D500" fill-rule="nonzero" points="1551.13996 516.215983 1551.13996 63.0221739 1468.30982 63.0221739 1468.30982 10.1655681 1690.59845 10.1655681 1690.59845 63.0221739 1608.47777 63.0221739 1608.47777 516.215983"></polygon>
                    <polygon id="Fill-11" fill="#93D500" fill-rule="nonzero" points="1733.77199 516.215983 1733.77199 10.1655681 1924.19919 10.1655681 1924.19919 63.0221739 1791.1098 63.0221739 1791.1098 227.957007 1893.75667 227.957007 1893.75667 280.10727 1791.1098 280.10727 1791.1098 463.359376 1932.68866 463.359376 1932.68866 516.215983"></polygon>
                    <polygon id="Fill-13" fill="#93D500" fill-rule="nonzero" points="2057.27265 516.215983 2057.27265 305.472092 1958.16505 10.1655681 2018.33268 10.1655681 2085.58683 231.472844 2086.99776 231.472844 2157.79118 10.1655681 2217.25733 10.1655681 2115.31991 305.472092 2115.31991 516.215983"></polygon>
                    <polygon id="Fill-15" fill="#93D500" fill-rule="nonzero" points="2254.77362 516.215983 2254.77362 10.1655681 2445.20082 10.1655681 2445.20082 63.0221739 2312.11142 63.0221739 2312.11142 227.957007 2414.7583 227.957007 2414.7583 280.10727 2312.11142 280.10727 2312.11142 463.359376 2453.69029 463.359376 2453.69029 516.215983"></polygon>
                    <g id="Fill-17-Clipped" transform="translate(2513.340383, 9.516640)">
                        <mask id="mask-5" fill="white">
                            <use xlink:href="#path-4"></use>
                        </mask>
                        <g id="path-3"></g>
                        <path d="M94.6629766,226.894252 C137.142217,226.894252 160.506197,202.926241 160.506197,135.268199 C160.506197,69.014903 135.013871,50.6896923 80.5138587,50.6896923 L57.8593268,50.6896923 L57.8593268,226.894252 L94.6629766,226.894252 Z M166.165845,506.700933 L100.330596,276.941362 L57.8593268,276.941362 L57.8593268,506.700933 L0.513548343,506.700933 L0.513548343,0.650518166 L84.7546086,0.650518166 C176.074213,0.650518166 219.96438,38.7056871 219.96438,130.33174 C219.96438,195.88663 195.189473,238.171915 153.419682,255.790783 L228.461822,506.700933 L166.165845,506.700933 Z" id="Fill-17" fill="#93D500" fill-rule="nonzero" mask="url(#mask-5)"></path>
                    </g>
                </g>
            </g>
        </g>
    </g>
</svg>