<?xml version="1.0" encoding="UTF-8"?>
<svg width="16px" height="16px" viewBox="0 0 16 16" version="1.1" xmlns="http://www.w3.org/2000/svg" xmlns:xlink="http://www.w3.org/1999/xlink">
    <title>Shape</title>
    <g id="Page-1" stroke="none" stroke-width="1" fill="none" fill-rule="evenodd">
        <g id="external-link-primary" fill="#3565C0" fill-rule="nonzero">
            <path d="M15.153646,0.660156267 C15.1288044,0.660941371 15.1040262,0.663114897 15.0794273,0.666666667 L11.1666667,0.666666667 C10.9262427,0.663266474 10.7026124,0.789583531 10.5814082,0.997248566 C10.460204,1.2049136 10.460204,1.46175306 10.5814082,1.6694181 C10.7026124,1.87708314 10.9262427,2.00340019 11.1666667,2 L13.557292,2 L6.69531267,8.86197933 C6.52115214,9.02919038 6.45099558,9.27749066 6.51190013,9.5111187 C6.57280468,9.74474674 6.75525326,9.92719532 6.9888813,9.98809987 C7.22250934,10.0490044 7.47080962,9.97884786 7.63802067,9.80468733 L14.5,2.94270833 L14.5,5.33333333 C14.4965998,5.57375728 14.6229169,5.79738758 14.8305819,5.91859181 C15.0382469,6.03979605 15.2950864,6.03979605 15.5027514,5.91859181 C15.7104165,5.79738758 15.8367335,5.57375728 15.8333333,5.33333333 L15.8333333,1.41796873 C15.8602066,1.22369433 15.8001807,1.02744192 15.6692302,0.881439588 C15.5382797,0.735437259 15.3496885,0.654495925 15.153646,0.660156267 Z M1.83333333,3.33333333 C1.1046248,3.33333333 0.5,3.93795813 0.5,4.66666667 L0.5,14.6666667 C0.5,15.3953753 1.1046248,16 1.83333333,16 L11.8333333,16 C12.562042,16 13.1666667,15.3953753 13.1666667,14.6666667 L13.1666667,8 L13.1666667,6.28125 L11.8333333,7.61458333 L11.8333333,9.33333333 L11.8333333,14.6666667 L1.83333333,14.6666667 L1.83333333,4.66666667 L7.16666667,4.66666667 L8.5,4.66666667 L8.88541667,4.66666667 L10.21875,3.33333333 L8.5,3.33333333 L7.16666667,3.33333333 L1.83333333,3.33333333 Z" id="Shape"></path>
        </g>
    </g>
</svg>