<?xml version="1.0" encoding="UTF-8"?>
<svg width="14px" height="14px" viewBox="0 0 14 14" version="1.1" xmlns="http://www.w3.org/2000/svg" xmlns:xlink="http://www.w3.org/1999/xlink">
    <title>Icon: Link</title>
    <defs>
        <linearGradient x1="7.06991531%" y1="-25.9028533%" x2="76.5822292%" y2="125.987145%" id="linearGradient-1">
            <stop stop-color="#4272CB" offset="0%"></stop>
            <stop stop-color="#E54F6D" offset="100%"></stop>
        </linearGradient>
    </defs>
    <g id="Desktop-HD" stroke="none" stroke-width="1" fill="none" fill-rule="evenodd">
        <g id="Project" transform="translate(-1118.000000, -1378.000000)" fill="url(#linearGradient-1)" fill-rule="nonzero">
            <g id="Overview" transform="translate(196.000000, 1311.000000)">
                <g id="Aside" transform="translate(810.000000, 6.000000)">
                    <g id="Agency" transform="translate(32.000000, 32.000000)">
                        <g id="External-Link" transform="translate(80.000000, 29.000000)">
                            <path d="M12.8219402,0.577636733 C12.8002039,0.5783237 12.7785229,0.580225535 12.7569989,0.583333333 L9.33333333,0.583333333 C9.12296238,0.580358164 8.92728587,0.690885589 8.82123216,0.872592496 C8.71517845,1.0542994 8.71517845,1.27903393 8.82123216,1.46074084 C8.92728587,1.64244774 9.12296238,1.75297517 9.33333333,1.75 L11.4251305,1.75 L5.42089858,7.75423192 C5.26850812,7.90054158 5.20712113,8.11780433 5.26041261,8.32222886 C5.31370409,8.5266534 5.4733466,8.68629591 5.67777114,8.73958739 C5.88219567,8.79287887 6.09945842,8.73149188 6.24576808,8.57910142 L12.25,2.57486979 L12.25,4.66666667 C12.2470248,4.87703762 12.3575523,5.07271413 12.5392592,5.17876784 C12.7209661,5.28482155 12.9457006,5.28482155 13.1274075,5.17876784 C13.3091144,5.07271413 13.4196418,4.87703762 13.4166667,4.66666667 L13.4166667,1.24072264 C13.4401808,1.07073253 13.3876581,0.899011677 13.2730764,0.77125964 C13.1584947,0.643507602 12.9934775,0.572683935 12.8219402,0.577636733 Z M1.16666667,2.91666667 C0.5290467,2.91666667 0,3.44571337 0,4.08333333 L0,12.8333333 C0,13.4709534 0.5290467,14 1.16666667,14 L9.91666667,14 C10.5542867,14 11.0833333,13.4709534 11.0833333,12.8333333 L11.0833333,7 L11.0833333,5.49609375 L9.91666667,6.66276042 L9.91666667,8.16666667 L9.91666667,12.8333333 L1.16666667,12.8333333 L1.16666667,4.08333333 L5.83333333,4.08333333 L7,4.08333333 L7.33723958,4.08333333 L8.50390625,2.91666667 L7,2.91666667 L5.83333333,2.91666667 L1.16666667,2.91666667 Z" id="Shape"></path>
                        </g>
                    </g>
                </g>
            </g>
        </g>
    </g>
</svg>