<?xml version="1.0" encoding="UTF-8"?>
<svg width="32px" height="32px" viewBox="0 0 32 32" version="1.1" xmlns="http://www.w3.org/2000/svg" xmlns:xlink="http://www.w3.org/1999/xlink">
    <title>Icon: Paint Brush</title>
    <defs>
        <filter id="filter-1">
            <feColorMatrix in="SourceGraphic" type="matrix" values="0 0 0 0 0.956863 0 0 0 0 0.956863 0 0 0 0 0.964706 0 0 0 1.000000 0"></feColorMatrix>
        </filter>
    </defs>
    <g id="Desktop-HD" stroke="none" stroke-width="1" fill="none" fill-rule="evenodd">
        <g id="Project" transform="translate(-415.000000, -2804.000000)">
            <g id="Main" transform="translate(106.000000, 1862.000000)">
                <g id="Section:-Scaffold" transform="translate(89.500000, 813.000000)">
                    <g id="Colors" transform="translate(0.000000, 1.000000)">
                        <g id="Content" transform="translate(39.500000, 70.000000)">
                            <g id="D2" transform="translate(108.000000, 0.000000)">
                                <g id="Icon:-Paint-Brush" transform="translate(72.000000, 58.000000)" filter="url(#filter-1)">
                                    <g fill="#535365" fill-rule="nonzero" id="Shape">
                                        <path d="M21.1041667,0 C20.4218333,0 19.739416,0.260583333 19.2187493,0.78125 L14.195312,5.80468747 C13.719312,6.28068747 13.719312,7.05264587 14.195312,7.52864587 C14.671312,8.00464587 15.4432707,8.00464587 15.9192707,7.52864587 L17.7239587,5.7239584 C18.245292,5.20262493 19.0880413,5.20262507 19.6093747,5.7239584 C20.130708,6.24529173 20.130708,7.08543747 19.6093747,7.6067708 L19,8.21875 C18.6,8.61875 18.6,9.26666667 19,9.66666667 C19.4,10.0666667 20.0479173,10.0666667 20.4479173,9.66666667 L20.3906253,9.72395867 C20.9119587,9.20262493 21.754708,9.20262507 22.2760413,9.72395867 C22.7973747,10.245292 22.7973747,11.0880413 22.2760413,11.6093747 L22.3333333,11.5520827 C21.9333333,11.952084 21.9333333,12.6 22.3333333,13 C22.7333333,13.4 23.3812507,13.4 23.7812507,13 L25.7161453,11.065104 C26.2374787,10.5437707 27.0802293,10.5437707 27.6015627,11.065104 C28.122896,11.5864373 28.122896,12.429188 27.6015627,12.9505213 L24.4713547,16.0807293 C23.9953547,16.5567293 23.9953547,17.328688 24.4713547,17.804688 C24.9473547,18.280688 25.719312,18.280688 26.195312,17.804688 L31.2187493,12.7812507 C32.260084,11.7399173 32.2600827,10.0517493 31.2187493,9.01041667 L22.989584,0.78125 C22.4689173,0.260583333 21.7865,0 21.1041667,0 Z M11.445312,9.10416667 C11.1041453,9.10416667 10.765208,9.23412507 10.505208,9.494792 L7.44791667,12.5520827 C6.40658333,13.5934173 6.40658333,15.2802493 7.44791667,16.3229173 L8.85937493,17.7369787 C9.61404133,18.4916453 9.61404133,19.7153547 8.85937493,20.4713547 L8.65364587,20.679688 C7.32031253,22.0130213 3.83708333,23.537916 2.34375,25.0312507 C0.110416667,27.264584 -0.666625067,30.108084 0.609374933,31.385416 C1.88537493,32.6614173 4.7314792,31.8869787 6.96614587,29.6536453 C8.46081253,28.1589787 10,24.6666667 11.3333333,23.3333333 L11.5286453,23.1380213 C12.283312,22.3833547 13.5070213,22.3833547 14.2630213,23.1380213 L15.6770827,24.5520827 C16.7184173,25.593416 18.4065827,25.5934173 19.4479173,24.5520827 L22.505208,21.494792 C23.025208,20.9734587 23.0265413,20.1293747 22.505208,19.6093747 L12.3906253,9.494792 C12.1299587,9.23412507 11.7864787,9.10416667 11.445312,9.10416667 Z M4,26.6666667 C4.73733333,26.6666667 5.33466667,27.264 5.33333556,28 C5.33466667,28.736 4.73733333,29.3333333 4,29.3333333 C3.264,29.3333333 2.66533333,28.736 2.66666444,28 C2.66666444,27.2626667 3.264,26.6666667 4,26.6666667 Z"></path>
                                    </g>
                                </g>
                            </g>
                        </g>
                    </g>
                </g>
            </g>
        </g>
    </g>
</svg>