<?xml version="1.0" encoding="UTF-8" standalone="no"?>
<!-- Created with Inkscape (http://www.inkscape.org/) -->

<svg
   xmlns:dc="http://purl.org/dc/elements/1.1/"
   xmlns:cc="http://creativecommons.org/ns#"
   xmlns:rdf="http://www.w3.org/1999/02/22-rdf-syntax-ns#"
   xmlns:svg="http://www.w3.org/2000/svg"
   xmlns="http://www.w3.org/2000/svg"
   xmlns:xlink="http://www.w3.org/1999/xlink"
   xmlns:sodipodi="http://sodipodi.sourceforge.net/DTD/sodipodi-0.dtd"
   xmlns:inkscape="http://www.inkscape.org/namespaces/inkscape"
   width="173.33226mm"
   height="190.5mm"
   viewBox="0 0 173.33226 190.5"
   version="1.1"
   id="svg6140"
   inkscape:version="0.92.1 r15371"
   sodipodi:docname="Red.svg">
  <defs
     id="defs6134">
    <linearGradient
       inkscape:collect="always"
       xlink:href="#linearGradient4696"
       id="linearGradient8160"
       gradientUnits="userSpaceOnUse"
       gradientTransform="matrix(2.1323092,0.57135048,-0.57135048,2.1323092,657.25401,-398.79166)"
       x1="-212.86862"
       y1="358.05151"
       x2="-212.86862"
       y2="342.58356" />
    <linearGradient
       inkscape:collect="always"
       id="linearGradient4696">
      <stop
         style="stop-color:#ff0024;stop-opacity:1;"
         offset="0"
         id="stop4692" />
      <stop
         style="stop-color:#4e000b;stop-opacity:1"
         offset="1"
         id="stop4694" />
    </linearGradient>
    <linearGradient
       inkscape:collect="always"
       xlink:href="#linearGradient4712"
       id="linearGradient8162"
       gradientUnits="userSpaceOnUse"
       gradientTransform="matrix(0.56417343,0.15116982,-0.15116982,0.56417343,657.25401,-398.79166)"
       x1="-805.78516"
       y1="1291.228"
       x2="-805.78516"
       y2="1341.6331" />
    <linearGradient
       inkscape:collect="always"
       id="linearGradient4712">
      <stop
         style="stop-color:#822400;stop-opacity:1"
         offset="0"
         id="stop4708" />
      <stop
         style="stop-color:#fff1b9;stop-opacity:1"
         offset="1"
         id="stop4710" />
    </linearGradient>
    <linearGradient
       inkscape:collect="always"
       xlink:href="#linearGradient4696"
       id="linearGradient8164"
       gradientUnits="userSpaceOnUse"
       gradientTransform="matrix(-2.1323092,0.57135053,0.57135053,2.1323092,-593.75452,-398.79166)"
       x1="-212.86862"
       y1="358.05151"
       x2="-212.86862"
       y2="342.58356" />
    <linearGradient
       inkscape:collect="always"
       xlink:href="#linearGradient4712"
       id="linearGradient8166"
       gradientUnits="userSpaceOnUse"
       gradientTransform="matrix(-0.56417343,0.15116982,0.15116982,0.56417343,-593.75452,-398.79166)"
       x1="-805.78516"
       y1="1291.228"
       x2="-805.78516"
       y2="1341.6331" />
    <linearGradient
       inkscape:collect="always"
       xlink:href="#linearGradient5290"
       id="linearGradient8168"
       gradientUnits="userSpaceOnUse"
       gradientTransform="matrix(0.87546067,0,0,0.87546067,-41.908708,-76.60914)"
       x1="83.726089"
       y1="326.36874"
       x2="83.726089"
       y2="172.11667" />
    <linearGradient
       inkscape:collect="always"
       id="linearGradient5290">
      <stop
         style="stop-color:#d06000;stop-opacity:1"
         offset="0"
         id="stop5286" />
      <stop
         style="stop-color:#ffe88d;stop-opacity:1"
         offset="1"
         id="stop5288" />
    </linearGradient>
    <linearGradient
       inkscape:collect="always"
       xlink:href="#linearGradient5278"
       id="linearGradient8170"
       gradientUnits="userSpaceOnUse"
       gradientTransform="matrix(0,0.92400539,-0.92400539,0,261.9297,63.733966)"
       x1="12.435402"
       y1="249.11041"
       x2="155.83958"
       y2="249.11041" />
    <linearGradient
       inkscape:collect="always"
       id="linearGradient5278">
      <stop
         style="stop-color:#d06000;stop-opacity:1"
         offset="0"
         id="stop5274" />
      <stop
         style="stop-color:#fff1bb;stop-opacity:1"
         offset="1"
         id="stop5276" />
    </linearGradient>
    <linearGradient
       inkscape:collect="always"
       xlink:href="#linearGradient5284"
       id="linearGradient8172"
       gradientUnits="userSpaceOnUse"
       gradientTransform="matrix(0,-0.88129841,-0.88129841,0,251.29069,215.62763)"
       x1="-24.392439"
       y1="249.11041"
       x2="155.83958"
       y2="249.11041" />
    <linearGradient
       inkscape:collect="always"
       id="linearGradient5284">
      <stop
         style="stop-color:#d06000;stop-opacity:1"
         offset="0"
         id="stop5280" />
      <stop
         style="stop-color:#fff6cf;stop-opacity:1"
         offset="1"
         id="stop5282" />
    </linearGradient>
    <linearGradient
       inkscape:collect="always"
       xlink:href="#linearGradient5717"
       id="linearGradient8174"
       gradientUnits="userSpaceOnUse"
       gradientTransform="matrix(0.88088058,0,0,-0.88088058,-42.365467,360.91391)"
       x1="82.179977"
       y1="313.13959"
       x2="82.179977"
       y2="184.81667" />
    <linearGradient
       id="linearGradient5717"
       inkscape:collect="always">
      <stop
         id="stop5713"
         offset="0"
         style="stop-color:#111111;stop-opacity:1" />
      <stop
         id="stop5715"
         offset="1"
         style="stop-color:#333333;stop-opacity:1" />
    </linearGradient>
    <linearGradient
       inkscape:collect="always"
       xlink:href="#linearGradient4375"
       id="linearGradient8176"
       gradientUnits="userSpaceOnUse"
       gradientTransform="matrix(0.84488845,0,0,0.84488845,-39.336619,-68.993273)"
       x1="82.179977"
       y1="313.13959"
       x2="82.179977"
       y2="184.81667" />
    <linearGradient
       inkscape:collect="always"
       id="linearGradient4375">
      <stop
         style="stop-color:#1a1a1a;stop-opacity:1;"
         offset="0"
         id="stop4371" />
      <stop
         style="stop-color:#333333;stop-opacity:1"
         offset="1"
         id="stop4373" />
    </linearGradient>
    <linearGradient
       inkscape:collect="always"
       xlink:href="#linearGradient5711"
       id="linearGradient8178"
       gradientUnits="userSpaceOnUse"
       gradientTransform="matrix(0.61419576,0,0,-0.61419576,-19.927143,294.48012)"
       x1="82.179977"
       y1="313.13959"
       x2="82.179977"
       y2="184.81667" />
    <linearGradient
       id="linearGradient5711"
       inkscape:collect="always">
      <stop
         id="stop5707"
         offset="0"
         style="stop-color:#101010;stop-opacity:1" />
      <stop
         id="stop5709"
         offset="1"
         style="stop-color:#333333;stop-opacity:1" />
    </linearGradient>
    <linearGradient
       inkscape:collect="always"
       xlink:href="#linearGradient5296"
       id="linearGradient8180"
       gradientUnits="userSpaceOnUse"
       gradientTransform="matrix(0,-0.53506676,-0.53506676,0,165.04059,186.4966)"
       x1="12.435402"
       y1="249.11041"
       x2="155.83958"
       y2="249.11041" />
    <linearGradient
       inkscape:collect="always"
       id="linearGradient5296">
      <stop
         style="stop-color:#d07600;stop-opacity:1"
         offset="0"
         id="stop5292" />
      <stop
         style="stop-color:#fff8dd;stop-opacity:1"
         offset="1"
         id="stop5294" />
    </linearGradient>
    <linearGradient
       inkscape:collect="always"
       xlink:href="#linearGradient4375"
       id="linearGradient8182"
       gradientUnits="userSpaceOnUse"
       gradientTransform="matrix(2.1243685,0,0,2.1243685,336.81863,-399.75173)"
       x1="-141.76218"
       y1="251.61273"
       x2="-141.76218"
       y2="245.95329" />
    <linearGradient
       inkscape:collect="always"
       xlink:href="#linearGradient4696"
       id="linearGradient8184"
       gradientUnits="userSpaceOnUse"
       gradientTransform="matrix(1.9851859,-0.19838914,0,1.9851859,442.33644,-1037.0887)"
       x1="-250.48135"
       y1="586.66168"
       x2="-238.34927"
       y2="586.66168" />
    <linearGradient
       inkscape:collect="always"
       xlink:href="#linearGradient4696"
       id="linearGradient8186"
       gradientUnits="userSpaceOnUse"
       gradientTransform="matrix(1.9851859,-0.19838914,0,1.9851859,442.33644,-1037.0887)"
       x1="-164.18788"
       y1="599.1062"
       x2="-175.53812"
       y2="599.1062" />
    <linearGradient
       inkscape:collect="always"
       xlink:href="#linearGradient4712"
       id="linearGradient8188"
       gradientUnits="userSpaceOnUse"
       gradientTransform="matrix(0.49776188,0,0,0.49776188,470.27801,-770.11241)"
       x1="-1025.6169"
       y1="1930.6174"
       x2="-1046.8204"
       y2="1930.6174" />
    <linearGradient
       inkscape:collect="always"
       xlink:href="#linearGradient4712"
       id="linearGradient8190"
       gradientUnits="userSpaceOnUse"
       gradientTransform="matrix(0.49776188,0,0,0.49776188,470.27801,-770.11241)"
       x1="-734.89648"
       y1="1929.5977"
       x2="-709.88867"
       y2="1929.5977" />
    <linearGradient
       inkscape:collect="always"
       xlink:href="#linearGradient4974"
       id="linearGradient8192"
       gradientUnits="userSpaceOnUse"
       gradientTransform="matrix(1.9851859,-0.19838914,0,1.9851859,442.33644,-1037.0887)"
       x1="-243.07352"
       y1="587.41449"
       x2="-170.57666"
       y2="587.41449" />
    <linearGradient
       inkscape:collect="always"
       id="linearGradient4974">
      <stop
         style="stop-color:#ff002a;stop-opacity:1;"
         offset="0"
         id="stop4970" />
      <stop
         id="stop4978"
         offset="0.3348189"
         style="stop-color:#8f0014;stop-opacity:1" />
      <stop
         style="stop-color:#7a0011;stop-opacity:1"
         offset="0.72320598"
         id="stop4980" />
      <stop
         style="stop-color:#ff002a;stop-opacity:1"
         offset="1"
         id="stop4972" />
    </linearGradient>
    <linearGradient
       inkscape:collect="always"
       xlink:href="#linearGradient4712"
       id="linearGradient8194"
       gradientUnits="userSpaceOnUse"
       gradientTransform="matrix(0.49776188,0,0,0.49776188,470.27801,-770.11241)"
       x1="-1025.7664"
       y1="1860.8109"
       x2="-1049.0703"
       y2="1860.8109" />
    <linearGradient
       inkscape:collect="always"
       xlink:href="#linearGradient4712"
       id="linearGradient8196"
       gradientUnits="userSpaceOnUse"
       gradientTransform="matrix(0.49776188,0,0,0.49776188,470.27801,-770.11241)"
       x1="-733.68359"
       y1="1853.3672"
       x2="-710.38867"
       y2="1853.3672" />
    <linearGradient
       inkscape:collect="always"
       xlink:href="#linearGradient5107"
       id="linearGradient8198"
       gradientUnits="userSpaceOnUse"
       gradientTransform="matrix(1.8813048,0,0,1.8813048,470.27801,-770.11241)"
       x1="-268.43735"
       y1="489.84921"
       x2="-197.42773"
       y2="489.84921" />
    <linearGradient
       inkscape:collect="always"
       id="linearGradient5107">
      <stop
         style="stop-color:#fdeeb6;stop-opacity:1;"
         offset="0"
         id="stop5103" />
      <stop
         id="stop5113"
         offset="0.32617113"
         style="stop-color:#aa5d0f;stop-opacity:1" />
      <stop
         id="stop5111"
         offset="0.71563488"
         style="stop-color:#aa5d0f;stop-opacity:1" />
      <stop
         style="stop-color:#fdeeb6;stop-opacity:1"
         offset="1"
         id="stop5105" />
    </linearGradient>
    <linearGradient
       inkscape:collect="always"
       xlink:href="#linearGradient5107"
       id="linearGradient8200"
       gradientUnits="userSpaceOnUse"
       gradientTransform="matrix(1.8813048,0,0,1.8813048,470.27801,-733.77153)"
       x1="-267.70975"
       y1="489.84921"
       x2="-199.27983"
       y2="489.84921" />
  </defs>
  <sodipodi:namedview
     id="base"
     pagecolor="#ffffff"
     bordercolor="#666666"
     borderopacity="1.0"
     inkscape:pageopacity="0.0"
     inkscape:pageshadow="2"
     inkscape:zoom="1"
     inkscape:cx="526.12829"
     inkscape:cy="387.71435"
     inkscape:document-units="px"
     inkscape:current-layer="layer1"
     showgrid="false"
     inkscape:showpageshadow="false"
     fit-margin-top="0"
     fit-margin-left="0"
     fit-margin-right="0"
     fit-margin-bottom="0"
     inkscape:window-width="3840"
     inkscape:window-height="2050"
     inkscape:window-x="-12"
     inkscape:window-y="-12"
     inkscape:window-maximized="1" />
  <metadata
     id="metadata6137">
    <rdf:RDF>
      <cc:Work
         rdf:about="">
        <dc:format>image/svg+xml</dc:format>
        <dc:type
           rdf:resource="http://purl.org/dc/dcmitype/StillImage" />
        <dc:title></dc:title>
      </cc:Work>
    </rdf:RDF>
  </metadata>
  <g
     inkscape:label="Layer 1"
     inkscape:groupmode="layer"
     id="layer1"
     transform="translate(54.916085,-65.678589)">
    <path
       sodipodi:nodetypes="ccccccc"
       inkscape:connector-curvature="0"
       id="path7874"
       d="m -13.138741,161.73159 -1.361384,5.08091 -19.570523,73.03908 32.5092661,0.5469 28.4235889,15.78013 20.932415,-78.11999 z"
       style="color:#000000;font-style:normal;font-variant:normal;font-weight:normal;font-stretch:normal;font-size:medium;line-height:normal;font-family:sans-serif;font-variant-ligatures:normal;font-variant-position:normal;font-variant-caps:normal;font-variant-numeric:normal;font-variant-alternates:normal;font-feature-settings:normal;text-indent:0;text-align:start;text-decoration:none;text-decoration-line:none;text-decoration-style:solid;text-decoration-color:#000000;letter-spacing:normal;word-spacing:normal;text-transform:none;writing-mode:lr-tb;direction:ltr;text-orientation:mixed;dominant-baseline:auto;baseline-shift:baseline;text-anchor:start;white-space:normal;shape-padding:0;clip-rule:nonzero;display:inline;overflow:visible;visibility:visible;opacity:1;isolation:auto;mix-blend-mode:normal;color-interpolation:sRGB;color-interpolation-filters:linearRGB;solid-color:#000000;solid-opacity:1;vector-effect:none;fill:url(#linearGradient8160);fill-opacity:1;fill-rule:nonzero;stroke:none;stroke-width:5.5883317;stroke-linecap:butt;stroke-linejoin:miter;stroke-miterlimit:4;stroke-dasharray:none;stroke-dashoffset:0;stroke-opacity:1;color-rendering:auto;image-rendering:auto;shape-rendering:auto;text-rendering:auto;enable-background:accumulate" />
    <path
       sodipodi:nodetypes="ccccccccccccc"
       inkscape:connector-curvature="0"
       id="path7876"
       d="m -10.863999,165.6708 -0.528974,1.97461 -18.50392,69.05727 29.19388528,0.49303 25.52568472,14.16898 19.032894,-71.03188 z m 1.4438607,2.50094 L 41.355798,181.77702 23.52697,248.31421 -0.16028717,235.16459 -27.248457,234.70892 Z"
       style="color:#000000;font-style:normal;font-variant:normal;font-weight:normal;font-stretch:normal;font-size:medium;line-height:normal;font-family:sans-serif;font-variant-ligatures:normal;font-variant-position:normal;font-variant-caps:normal;font-variant-numeric:normal;font-variant-alternates:normal;font-feature-settings:normal;text-indent:0;text-align:start;text-decoration:none;text-decoration-line:none;text-decoration-style:solid;text-decoration-color:#000000;letter-spacing:normal;word-spacing:normal;text-transform:none;writing-mode:lr-tb;direction:ltr;text-orientation:mixed;dominant-baseline:auto;baseline-shift:baseline;text-anchor:start;white-space:normal;shape-padding:0;clip-rule:nonzero;display:inline;overflow:visible;visibility:visible;opacity:1;isolation:auto;mix-blend-mode:normal;color-interpolation:sRGB;color-interpolation-filters:linearRGB;solid-color:#000000;solid-opacity:1;vector-effect:none;fill:url(#linearGradient8162);fill-opacity:1;fill-rule:nonzero;stroke:none;stroke-width:2.16920424;stroke-linecap:butt;stroke-linejoin:miter;stroke-miterlimit:4;stroke-dasharray:none;stroke-dashoffset:0;stroke-opacity:1;color-rendering:auto;image-rendering:auto;shape-rendering:auto;text-rendering:auto;enable-background:accumulate" />
    <path
       inkscape:connector-curvature="0"
       id="path7878"
       d="m 24.53808,171.82727 -13.403569,3.59223 18.682621,69.7314 17.977999,-67.09192 z"
       style="color:#000000;font-style:normal;font-variant:normal;font-weight:normal;font-stretch:normal;font-size:medium;line-height:normal;font-family:sans-serif;font-variant-ligatures:normal;font-variant-position:normal;font-variant-caps:normal;font-variant-numeric:normal;font-variant-alternates:normal;font-feature-settings:normal;text-indent:0;text-align:start;text-decoration:none;text-decoration-line:none;text-decoration-style:solid;text-decoration-color:#000000;letter-spacing:normal;word-spacing:normal;text-transform:none;writing-mode:lr-tb;direction:ltr;text-orientation:mixed;dominant-baseline:auto;baseline-shift:baseline;text-anchor:start;white-space:normal;shape-padding:0;clip-rule:nonzero;display:inline;overflow:visible;visibility:visible;opacity:0.28400005;isolation:auto;mix-blend-mode:normal;color-interpolation:sRGB;color-interpolation-filters:linearRGB;solid-color:#000000;solid-opacity:1;vector-effect:none;fill:#000000;fill-opacity:1;fill-rule:nonzero;stroke:none;stroke-width:3.96875024;stroke-linecap:butt;stroke-linejoin:miter;stroke-miterlimit:4;stroke-dasharray:none;stroke-dashoffset:0;stroke-opacity:1;color-rendering:auto;image-rendering:auto;shape-rendering:auto;text-rendering:auto;enable-background:accumulate" />
    <path
       style="color:#000000;font-style:normal;font-variant:normal;font-weight:normal;font-stretch:normal;font-size:medium;line-height:normal;font-family:sans-serif;font-variant-ligatures:normal;font-variant-position:normal;font-variant-caps:normal;font-variant-numeric:normal;font-variant-alternates:normal;font-feature-settings:normal;text-indent:0;text-align:start;text-decoration:none;text-decoration-line:none;text-decoration-style:solid;text-decoration-color:#000000;letter-spacing:normal;word-spacing:normal;text-transform:none;writing-mode:lr-tb;direction:ltr;text-orientation:mixed;dominant-baseline:auto;baseline-shift:baseline;text-anchor:start;white-space:normal;shape-padding:0;clip-rule:nonzero;display:inline;overflow:visible;visibility:visible;opacity:1;isolation:auto;mix-blend-mode:normal;color-interpolation:sRGB;color-interpolation-filters:linearRGB;solid-color:#000000;solid-opacity:1;vector-effect:none;fill:url(#linearGradient8164);fill-opacity:1;fill-rule:nonzero;stroke:none;stroke-width:5.5883317;stroke-linecap:butt;stroke-linejoin:miter;stroke-miterlimit:4;stroke-dasharray:none;stroke-dashoffset:0;stroke-opacity:1;color-rendering:auto;image-rendering:auto;shape-rendering:auto;text-rendering:auto;enable-background:accumulate"
       d="m 76.638743,161.73159 1.361383,5.08091 19.570524,73.03908 -32.509776,0.5469 -28.423588,15.78013 -20.931907,-78.11999 z"
       id="path7880"
       inkscape:connector-curvature="0"
       sodipodi:nodetypes="ccccccc" />
    <path
       style="color:#000000;font-style:normal;font-variant:normal;font-weight:normal;font-stretch:normal;font-size:medium;line-height:normal;font-family:sans-serif;font-variant-ligatures:normal;font-variant-position:normal;font-variant-caps:normal;font-variant-numeric:normal;font-variant-alternates:normal;font-feature-settings:normal;text-indent:0;text-align:start;text-decoration:none;text-decoration-line:none;text-decoration-style:solid;text-decoration-color:#000000;letter-spacing:normal;word-spacing:normal;text-transform:none;writing-mode:lr-tb;direction:ltr;text-orientation:mixed;dominant-baseline:auto;baseline-shift:baseline;text-anchor:start;white-space:normal;shape-padding:0;clip-rule:nonzero;display:inline;overflow:visible;visibility:visible;opacity:1;isolation:auto;mix-blend-mode:normal;color-interpolation:sRGB;color-interpolation-filters:linearRGB;solid-color:#000000;solid-opacity:1;vector-effect:none;fill:url(#linearGradient8166);fill-opacity:1;fill-rule:nonzero;stroke:none;stroke-width:2.16920424;stroke-linecap:butt;stroke-linejoin:miter;stroke-miterlimit:4;stroke-dasharray:none;stroke-dashoffset:0;stroke-opacity:1;color-rendering:auto;image-rendering:auto;shape-rendering:auto;text-rendering:auto;enable-background:accumulate"
       d="m 74.363491,165.6708 0.529484,1.97461 18.50341,69.05727 -29.193376,0.49303 -25.525684,14.16898 -19.032894,-71.03188 z m -1.44386,2.50094 -50.775427,13.60528 17.828319,66.53719 23.687257,-13.14962 27.088679,-0.45567 z"
       id="path7882"
       inkscape:connector-curvature="0"
       sodipodi:nodetypes="ccccccccccccc" />
    <path
       inkscape:transform-center-x="1.0287285e-006"
       inkscape:connector-curvature="0"
       id="path7886"
       d="m 97.393239,179.37683 -8.666467,3.49695 -0.647573,9.323 -9.203927,1.6185 -2.572157,8.98471 -9.339447,-0.33047 -4.383773,8.25359 -9.066777,-2.26512 -6.003488,7.1619 -8.397738,-4.10072 -7.36181,5.75711 -7.36181,-5.75711 -8.397805,4.10072 -6.0040322,-7.1619 -9.06677687,2.26512 -4.38377333,-8.25359 -9.3394466,0.33047 -2.571546,-8.98471 -9.204538,-1.6185 -0.647573,-9.323 -8.666468,-3.49695 1.304658,-9.25393 -7.749621,-5.22236 3.199895,-8.78046 -6.495231,-6.71953 4.956217,-7.92311 -4.956217,-7.92312 6.495231,-6.7196 -3.199895,-8.78045 7.749621,-5.22237 -1.304658,-9.25392 8.666468,-3.49682 0.647573,-9.323073 9.204538,-1.61856 2.571546,-8.98465 9.3394466,0.330478 4.38377333,-8.253591 9.06677687,2.265047 6.0040322,-7.161825 8.397805,4.100642 7.36181,-5.757039 7.36181,5.757039 8.397738,-4.100642 6.003488,7.161825 9.066777,-2.265047 4.383773,8.253591 9.339447,-0.330478 2.572157,8.98465 9.203927,1.61856 0.647573,9.323073 8.666467,3.49682 -1.304657,9.25392 7.750228,5.22237 -3.19996,8.78045 6.49469,6.7196 -4.95567,7.92312 4.95567,7.92311 -6.49469,6.71953 3.19996,8.78046 -7.750228,5.22236 z"
       inkscape:transform-center-y="-2.8012502e-006"
       style="opacity:1;vector-effect:none;fill:url(#linearGradient8168);fill-opacity:1;stroke:none;stroke-width:0.13075702;stroke-linecap:round;stroke-linejoin:round;stroke-miterlimit:4;stroke-dasharray:none;stroke-dashoffset:0;stroke-opacity:1" />
    <path
       inkscape:connector-curvature="0"
       id="path7888"
       d="M 31.750082,207.73053 A 66.253113,66.253113 0 0 1 -34.503423,141.47744 66.253113,66.253113 0 0 1 31.750082,75.22427 66.253113,66.253113 0 0 1 98.002976,141.47744 66.253113,66.253113 0 0 1 31.750082,207.73053 Z"
       style="opacity:1;vector-effect:none;fill:url(#linearGradient8170);fill-opacity:1;stroke:none;stroke-width:0.1551391;stroke-linecap:round;stroke-linejoin:round;stroke-miterlimit:4;stroke-dasharray:none;stroke-dashoffset:0;stroke-opacity:1" />
    <path
       style="opacity:1;vector-effect:none;fill:url(#linearGradient8172);fill-opacity:1;stroke:none;stroke-width:0.14965461;stroke-linecap:round;stroke-linejoin:round;stroke-miterlimit:4;stroke-dasharray:none;stroke-dashoffset:0;stroke-opacity:1"
       d="M 31.750082,78.286471 A 63.190944,63.190944 0 0 0 -31.44129,141.47744 63.190944,63.190944 0 0 0 31.750082,204.6684 63.190944,63.190944 0 0 0 94.941386,141.47744 63.190944,63.190944 0 0 0 31.750082,78.286471 Z"
       id="path7890"
       inkscape:connector-curvature="0" />
    <path
       inkscape:connector-curvature="0"
       id="path7892"
       d="m 31.750082,200.11725 a 58.639832,58.639832 0 0 1 -58.63988,-58.63981 58.639832,58.639832 0 0 1 58.63988,-58.639884 58.639832,58.639832 0 0 1 58.639812,58.639884 58.639832,58.639832 0 0 1 -58.639812,58.63981 z"
       style="opacity:1;vector-effect:none;fill:url(#linearGradient8174);fill-opacity:1;stroke:none;stroke-width:0.1444771;stroke-linecap:round;stroke-linejoin:round;stroke-miterlimit:4;stroke-dasharray:none;stroke-dashoffset:0;stroke-opacity:1" />
    <path
       style="opacity:1;vector-effect:none;fill:url(#linearGradient8176);fill-opacity:1;stroke:none;stroke-width:0.14218017;stroke-linecap:round;stroke-linejoin:round;stroke-miterlimit:4;stroke-dasharray:none;stroke-dashoffset:0;stroke-opacity:1"
       d="M 31.750082,85.233503 A 56.243851,56.243851 0 0 0 -24.493851,141.4773 56.243851,56.243851 0 0 0 31.750082,197.72123 56.243851,56.243851 0 0 0 87.993403,141.4773 56.243851,56.243851 0 0 0 31.750082,85.233503 Z"
       id="path7894"
       inkscape:connector-curvature="0" />
    <path
       style="opacity:1;vector-effect:none;fill:url(#linearGradient8178);fill-opacity:1;stroke:none;stroke-width:0.09728745;stroke-linecap:round;stroke-linejoin:round;stroke-miterlimit:4;stroke-dasharray:none;stroke-dashoffset:0;stroke-opacity:1"
       d="M 31.750082,182.3643 A 40.886747,40.886747 0 0 1 -9.1367863,141.47764 40.886747,40.886747 0 0 1 31.750082,100.59084 40.886747,40.886747 0 0 1 72.636339,141.47764 40.886747,40.886747 0 0 1 31.750082,182.3643 Z"
       id="path7896"
       inkscape:connector-curvature="0" />
    <path
       inkscape:connector-curvature="0"
       id="path7898"
       d="M 31.750082,103.11198 A 38.365403,38.365403 0 0 0 -6.6160521,141.47744 38.365403,38.365403 0 0 0 31.750082,179.84282 38.365403,38.365403 0 0 0 70.115605,141.47744 38.365403,38.365403 0 0 0 31.750082,103.11198 Z"
       style="opacity:1;vector-effect:none;fill:url(#linearGradient8180);fill-opacity:1;stroke:none;stroke-width:0.09452486;stroke-linecap:round;stroke-linejoin:round;stroke-miterlimit:4;stroke-dasharray:none;stroke-dashoffset:0;stroke-opacity:1" />
    <path
       d="m -17.56259,118.69153 8.7655128,5.24411 1.5111452,-2.52587 -4.801655,-2.87267 4.8490689,0.86345 1.1370913,-1.90065 -3.0536471,-3.86448 4.8016469,2.87267 1.5111451,-2.52588 -8.7655131,-5.24411 -1.832819,3.06355 3.431994,4.65117 -5.72115,-0.82484 z"
       style="font-style:normal;font-variant:normal;font-weight:900;font-stretch:normal;font-size:16.93333244px;line-height:1.25;font-family:Montserrat;-inkscape-font-specification:'Montserrat, Heavy';font-variant-ligatures:normal;font-variant-caps:normal;font-variant-numeric:normal;font-feature-settings:normal;text-align:start;letter-spacing:-0.22489583px;word-spacing:0px;writing-mode:lr-tb;text-anchor:start;fill:#ffffff;fill-opacity:1;stroke:none;stroke-width:0.05298458"
       id="path7900"
       inkscape:connector-curvature="0" />
    <path
       d="m -5.25671,101.98357 c -2.3722374,2.22058 -2.6118542,5.41878 -0.5406308,7.63146 2.0811795,2.22331 5.31808887,2.22709 7.6903349,0.007 2.3722374,-2.22058 2.5720213,-5.46133 0.5007979,-7.67401 -2.06125873,-2.202028 -5.2782646,-2.184542 -7.650502,0.0361 z m 1.9537728,2.02322 c 0.8510244,-0.79662 2.2189381,-0.69991 3.17488404,0.32133 0.95594595,1.02123 0.98213118,2.41381 0.13109826,3.21044 -0.85102433,0.79663 -2.302674,0.73838 -3.2586286,-0.28285 -0.9559459,-1.02124 -0.9090225,-2.44233 -0.047328,-3.24892 z"
       style="font-style:normal;font-variant:normal;font-weight:900;font-stretch:normal;font-size:16.93333244px;line-height:1.25;font-family:Montserrat;-inkscape-font-specification:'Montserrat, Heavy';font-variant-ligatures:normal;font-variant-caps:normal;font-variant-numeric:normal;font-feature-settings:normal;text-align:start;letter-spacing:-0.22489583px;word-spacing:0px;writing-mode:lr-tb;text-anchor:start;fill:#ffffff;fill-opacity:1;stroke:none;stroke-width:0.05298458"
       id="path7902"
       inkscape:connector-curvature="0" />
    <path
       d="m 1.7666544,96.277048 4.8400427,8.994942 2.7074652,-1.45685 -2.4718067,-4.593704 6.0133184,2.688074 2.489335,-1.33947 -4.840043,-8.994941 -2.6946346,1.449937 2.4856176,4.619375 -6.0399594,-2.706837 z"
       style="font-style:normal;font-variant:normal;font-weight:900;font-stretch:normal;font-size:16.93333244px;line-height:1.25;font-family:Montserrat;-inkscape-font-specification:'Montserrat, Heavy';font-variant-ligatures:normal;font-variant-caps:normal;font-variant-numeric:normal;font-feature-settings:normal;text-align:start;letter-spacing:-0.22489583px;word-spacing:0px;writing-mode:lr-tb;text-anchor:start;fill:#ffffff;fill-opacity:1;stroke:none;stroke-width:0.05298458"
       id="path7904"
       inkscape:connector-curvature="0" />
    <path
       d="m 14.018933,90.280337 2.572762,9.885133 8.489083,-2.209409 -0.64594,-2.481866 -5.217547,1.357949 -0.3193,-1.226825 4.625278,-1.203807 -0.64594,-2.481857 -4.625286,1.203806 -0.315625,-1.21273 5.090631,-1.324914 -0.64594,-2.481857 z"
       style="font-style:normal;font-variant:normal;font-weight:900;font-stretch:normal;font-size:16.93333244px;line-height:1.25;font-family:Montserrat;-inkscape-font-specification:'Montserrat, Heavy';font-variant-ligatures:normal;font-variant-caps:normal;font-variant-numeric:normal;font-feature-settings:normal;text-align:start;letter-spacing:-0.22489583px;word-spacing:0px;writing-mode:lr-tb;text-anchor:start;fill:#ffffff;fill-opacity:1;stroke:none;stroke-width:0.05298458"
       id="path7906"
       inkscape:connector-curvature="0" />
    <path
       d="m 35.826963,87.339916 -3.364944,0.08269 -1.884425,3.981739 -2.150588,-3.882565 -3.364944,0.08269 3.90382,7.01698 0.07624,3.102739 3.379513,-0.08304 -0.07805,-3.175572 z"
       style="font-style:normal;font-variant:normal;font-weight:900;font-stretch:normal;font-size:16.93333244px;line-height:1.25;font-family:Montserrat;-inkscape-font-specification:'Montserrat, Heavy';font-variant-ligatures:normal;font-variant-caps:normal;font-variant-numeric:normal;font-feature-settings:normal;text-align:start;letter-spacing:-0.22489583px;word-spacing:0px;writing-mode:lr-tb;text-anchor:start;fill:#ffffff;fill-opacity:1;stroke:none;stroke-width:0.05298458"
       id="path7908"
       inkscape:connector-curvature="0" />
    <path
       d="m 48.681287,90.18396 -4.929458,-1.567861 -3.095984,9.733953 5.165521,1.642949 c 2.374474,0.755229 4.25587,0.176249 4.785856,-1.490054 0.388648,-1.221946 -0.06591,-2.436861 -1.148407,-3.071683 1.09694,0.01248 1.996265,-0.603603 2.301005,-1.561717 0.472565,-1.485786 -0.731827,-2.939191 -3.078533,-3.685587 z m -1.372974,3.691757 -1.541323,-0.490231 0.441647,-1.388583 1.541323,0.490231 c 0.444349,0.141329 0.652041,0.497906 0.51954,0.914486 -0.136907,0.43046 -0.516838,0.615426 -0.961187,0.474097 z m -1.152709,3.624197 -1.541332,-0.49023 0.472573,-1.485786 1.541324,0.49023 c 0.597088,0.189914 0.89756,0.591289 0.760653,1.021749 -0.150167,0.472118 -0.636129,0.653943 -1.233218,0.464037 z"
       style="font-style:normal;font-variant:normal;font-weight:900;font-stretch:normal;font-size:16.93333244px;line-height:1.25;font-family:Montserrat;-inkscape-font-specification:'Montserrat, Heavy';font-variant-ligatures:normal;font-variant-caps:normal;font-variant-numeric:normal;font-feature-settings:normal;text-align:start;letter-spacing:-0.22489583px;word-spacing:0px;writing-mode:lr-tb;text-anchor:start;fill:#ffffff;fill-opacity:1;stroke:none;stroke-width:0.05298458"
       id="path7910"
       inkscape:connector-curvature="0" />
    <path
       d="m 56.89228,105.51883 3.064662,1.88716 1.819706,-10.875179 -2.952994,-1.818389 -9.028484,6.436158 2.952994,1.81839 1.203058,-0.95329 3.263189,2.00939 z m -0.928315,-5.10639 2.484422,-1.978161 -0.672917,3.093641 z"
       style="font-style:normal;font-variant:normal;font-weight:900;font-stretch:normal;font-size:16.93333244px;line-height:1.25;font-family:Montserrat;-inkscape-font-specification:'Montserrat, Heavy';font-variant-ligatures:normal;font-variant-caps:normal;font-variant-numeric:normal;font-feature-settings:normal;text-align:start;letter-spacing:-0.22489583px;word-spacing:0px;writing-mode:lr-tb;text-anchor:start;fill:#ffffff;fill-opacity:1;stroke:none;stroke-width:0.05298458"
       id="path7912"
       inkscape:connector-curvature="0" />
    <path
       d="m 69.494601,108.62879 3.020739,-0.23511 c 0.07332,-1.54502 -0.604187,-3.27078 -1.69842,-4.38142 -2.249821,-2.28356 -5.443034,-2.41036 -7.581274,-0.30371 -2.169381,2.13734 -2.162162,5.32124 0.03649,7.5529 1.10446,1.12102 2.892293,1.79377 4.572244,1.73414 l 0.113965,-2.85329 c -0.979024,0.0237 -1.945064,-0.31327 -2.456395,-0.83227 -0.859018,-0.8719 -0.777003,-2.20047 0.1987,-3.16176 0.965317,-0.95106 2.284578,-1.00307 3.143605,-0.13116 0.55223,0.56051 0.812445,1.59282 0.650307,2.61168 z"
       style="font-style:normal;font-variant:normal;font-weight:900;font-stretch:normal;font-size:16.93333244px;line-height:1.25;font-family:Montserrat;-inkscape-font-specification:'Montserrat, Heavy';font-variant-ligatures:normal;font-variant-caps:normal;font-variant-numeric:normal;font-feature-settings:normal;text-align:start;letter-spacing:-0.22489583px;word-spacing:0px;writing-mode:lr-tb;text-anchor:start;fill:#ffffff;fill-opacity:1;stroke:none;stroke-width:0.05298458"
       id="path7914"
       inkscape:connector-curvature="0" />
    <path
       d="m 72.210796,123.79838 3.257312,-6.44791 5.396368,1.01684 -1.997168,-3.33879 -4.601998,-0.79586 3.03867,-1.81764 -1.735366,-2.90113 -8.765882,5.2435 1.735367,2.90113 2.063298,-1.23421 1.459008,0.28185 -1.921577,3.62839 z"
       style="font-style:normal;font-variant:normal;font-weight:900;font-stretch:normal;font-size:16.93333244px;line-height:1.25;font-family:Montserrat;-inkscape-font-specification:'Montserrat, Heavy';font-variant-ligatures:normal;font-variant-caps:normal;font-variant-numeric:normal;font-feature-settings:normal;text-align:start;letter-spacing:-0.22489583px;word-spacing:0px;writing-mode:lr-tb;text-anchor:start;fill:#ffffff;fill-opacity:1;stroke:none;stroke-width:0.05298458"
       id="path7916"
       inkscape:connector-curvature="0" />
    <path
       inkscape:connector-curvature="0"
       id="path7920"
       d="m 18.376836,121.21354 c -4.244857,0 -6.552224,2.93008 -6.552224,8.23674 0,5.30667 2.307367,8.23682 6.552224,8.23682 4.199752,0 6.530215,-2.93015 6.530215,-8.23682 0,-5.30666 -2.330463,-8.23674 -6.530215,-8.23674 z m 13.694418,0 c -4.244858,0 -6.552768,2.93008 -6.552768,8.23674 0,5.30667 2.30791,8.23682 6.552768,8.23682 4.199208,0 6.529671,-2.93015 6.529671,-8.23682 0,-5.30666 -2.330463,-8.23674 -6.529671,-8.23674 z m 11.820713,0.0694 c -2.860586,0 -4.729263,1.93838 -4.729263,4.93795 0,3.02239 1.868677,4.98277 4.729263,4.98277 2.86113,0 4.7061,-1.96038 4.7061,-4.98277 0,-2.99957 -1.84497,-4.93795 -4.7061,-4.93795 z m -41.0674932,0.0922 v 4.22217 h 2.8148697 v 11.95175 h 5.3525185 v -16.17392 z m 51.2893462,0 -11.237469,16.17392 h 4.822395 l 11.236382,-16.17392 z m -10.221853,2.63031 c 0.899321,0 1.476859,0.87717 1.476859,2.21546 0,1.36124 -0.577538,2.23726 -1.476859,2.23726 -0.899321,0 -1.476315,-0.87602 -1.476315,-2.23726 0,-1.33829 0.576994,-2.21546 1.476315,-2.21546 z m -25.515131,0.80802 c 1.130825,0 1.476315,1.22233 1.476315,4.63709 0,3.39159 -0.34549,4.63817 -1.476315,4.63817 -1.153378,0 -1.49948,-1.24658 -1.49948,-4.63817 0,-3.41476 0.346102,-4.63709 1.49948,-4.63709 z m 13.694418,0 c 1.130281,0 1.475772,1.22233 1.475772,4.63709 0,3.39159 -0.345491,4.63817 -1.475772,4.63817 -1.153922,0 -1.500023,-1.24658 -1.500023,-4.63817 0,-3.41476 0.346101,-4.63709 1.500023,-4.63709 z m 25.871965,2.92994 c -2.861741,0 -4.729331,1.93749 -4.729331,4.93686 0,3.02246 1.86759,4.984 4.729331,4.984 2.860587,0 4.707255,-1.96154 4.707255,-4.984 0,-2.99937 -1.846668,-4.93686 -4.707255,-4.93686 z m 0,2.72256 c 0.899865,0 1.475705,0.87609 1.475705,2.2143 0,1.36131 -0.57584,2.23842 -1.475705,2.23842 -0.900475,0 -1.476926,-0.87711 -1.476926,-2.23842 0,-1.33821 0.576451,-2.2143 1.476926,-2.2143 z"
       style="font-style:normal;font-variant:normal;font-weight:900;font-stretch:normal;font-size:10.86084557px;line-height:1.25;font-family:Montserrat;-inkscape-font-specification:'Montserrat, Heavy';font-variant-ligatures:normal;font-variant-caps:normal;font-variant-numeric:normal;font-feature-settings:normal;text-align:start;letter-spacing:0px;word-spacing:0px;writing-mode:lr-tb;text-anchor:start;fill:url(#linearGradient8182);fill-opacity:1;stroke:none;stroke-width:0.0756416" />
    <path
       sodipodi:nodetypes="ccccc"
       inkscape:connector-curvature="0"
       id="path7922"
       d="m -30.831553,149.6522 c -7.519882,1.78207 -15.510585,4.40979 -24.084532,8.13227 v 55.27457 c 8.569395,-3.71453 16.562408,-6.34035 24.084532,-8.12106 z"
       style="opacity:1;fill:url(#linearGradient8184);fill-opacity:1;stroke:none;stroke-width:0.27919298" />
    <path
       sodipodi:nodetypes="ccccc"
       inkscape:connector-curvature="0"
       id="path7924"
       d="m 118.41564,144.758 c -8.57279,5.21326 -16.52967,8.61043 -24.083447,10.69172 v 55.29496 c 7.549297,-2.08741 15.504407,-5.49571 24.083447,-10.72759 z"
       style="opacity:1;fill:url(#linearGradient8186);fill-opacity:1;stroke:none;stroke-width:0.27919298" />
    <path
       sodipodi:nodetypes="ccccccc"
       inkscape:connector-curvature="0"
       id="path7926"
       d="m -30.831009,200.1111 c -3.046918,0.72196 -6.169984,1.57923 -9.378371,2.59485 v -0.63976 c -4.71296,1.49235 -9.60478,3.31177 -14.706705,5.52689 v 2.19916 c 8.573947,-3.72248 16.565193,-6.34932 24.085076,-8.13146 z"
       style="opacity:1;fill:url(#linearGradient8188);fill-opacity:1;stroke:none;stroke-width:0.27919298" />
    <path
       inkscape:connector-curvature="0"
       id="path7928"
       d="m -30.831553,204.93798 v -14.79474 l -9.377827,12.56271 z"
       style="fill:#390008;fill-opacity:1;stroke:none;stroke-width:0.26458332px;stroke-linecap:butt;stroke-linejoin:miter;stroke-opacity:1"
       sodipodi:nodetypes="cccc" />
    <path
       sodipodi:nodetypes="ccccccc"
       inkscape:connector-curvature="0"
       id="path7930"
       d="m 118.41618,194.56669 c -5.10641,3.10513 -9.99266,5.56187 -14.7067,7.48394 v 0.64846 c -3.20268,1.31267 -6.321879,2.3702 -9.376676,3.21511 v 1.54384 c 7.553716,-2.08137 15.510046,-5.47894 24.083376,-10.6922 z"
       style="opacity:1;fill:url(#linearGradient8190);fill-opacity:1;stroke:none;stroke-width:0.27919298" />
    <path
       inkscape:connector-curvature="0"
       id="path7932"
       d="m 94.332193,210.74468 v -16.77061 l 9.377287,8.72543 z"
       style="fill:#390008;fill-opacity:1;stroke:none;stroke-width:0.26458332px;stroke-linecap:butt;stroke-linejoin:miter;stroke-opacity:1"
       sodipodi:nodetypes="cccc" />
    <path
       sodipodi:nodetypes="ccccccccccc"
       inkscape:connector-curvature="0"
       id="path7934"
       d="m -15.330546,142.2084 c -7.7378,0.76536 -15.98487,2.39798 -24.879445,5.2172 v 55.28069 c 8.287148,-2.6231 16.015914,-4.21646 23.292472,-5.03916 0.664488,-0.0743 1.322795,-0.14408 1.979879,-0.20576 20.3708849,-1.94034 37.253378,2.04204 53.299181,5.78476 21.192359,4.9431 40.911731,9.46837 65.347939,-0.54663 v -55.28273 c -24.47126,9.99368 -44.261754,5.468 -65.429794,0.53026 -16.149668,-3.76697 -33.1095328,-7.76545 -53.610232,-5.73836 z"
       style="opacity:1;fill:url(#linearGradient8192);fill-opacity:1;stroke:none;stroke-width:0.27919298" />
    <path
       sodipodi:nodetypes="ccccc"
       inkscape:connector-curvature="0"
       id="path7936"
       d="m -40.20938,155.08107 c -4.71296,1.49235 -9.60478,3.31178 -14.706705,5.52696 v 2.19909 c 5.101925,-2.21519 9.993745,-4.03489 14.706705,-5.52689 z"
       style="opacity:1;fill:url(#linearGradient8194);fill-opacity:1;stroke:none;stroke-width:0.27919298" />
    <path
       sodipodi:nodetypes="ccccc"
       inkscape:connector-curvature="0"
       id="path7938"
       d="m 118.41618,147.58157 c -5.10641,3.10513 -9.99266,5.56092 -14.7067,7.48299 v 2.20011 c 4.71404,-1.92241 9.60029,-4.37888 14.7067,-7.48388 z"
       style="opacity:1;fill:url(#linearGradient8196);fill-opacity:1;stroke:none;stroke-width:0.27919298" />
    <path
       sodipodi:nodetypes="cccccccccc"
       inkscape:connector-curvature="0"
       id="path7940"
       d="m -4.1540091,144.48601 c -3.6131792,0 -7.3324649,0.16534 -11.1765369,0.54541 -7.737257,0.76536 -15.98487,2.39758 -24.878834,5.21679 v 2.20011 c 8.893964,-2.81929 17.141577,-4.4515 24.878834,-5.2168 20.5006992,-2.02708 37.460021,1.9718 53.609688,5.73884 21.16804,4.93781 40.959078,9.46281 65.430338,-0.5308 v -2.20011 c -24.47126,9.99375 -44.262298,5.46861 -65.430338,0.5308 -13.121431,-3.0607 -26.776925,-6.27405 -42.4331511,-6.28424 z"
       style="opacity:1;fill:url(#linearGradient8198);fill-opacity:1;stroke:none;stroke-width:0.27919298" />
    <path
       sodipodi:nodetypes="cccccccccc"
       style="opacity:1;fill:url(#linearGradient8200);fill-opacity:1;stroke:none;stroke-width:0.27919298"
       d="m -4.1540091,191.47161 c -3.6131792,0 -7.3324649,0.1654 -11.1765369,0.5454 -7.737257,0.76537 -15.98487,2.39758 -24.878834,5.2168 v 2.20004 c 8.893964,-2.81929 17.141577,-4.45144 24.878834,-5.2168 20.5006992,-2.02709 37.460021,1.97186 53.609688,5.73884 21.16804,4.93787 40.959078,9.46287 65.430338,-0.53081 v -2.20004 c -24.47126,9.99368 -44.262298,5.46861 -65.430338,0.53081 -13.121431,-3.06071 -26.776925,-6.27412 -42.4331511,-6.28424 z"
       id="path7942"
       inkscape:connector-curvature="0" />
    <path
       id="path7944"
       d="m -40.20938,152.25771 c -1.528825,0.48407 -3.076263,1.00298 -4.64408,1.55939 l 4.64408,48.88912 z"
       style="opacity:0.23399999;fill:#000000;stroke:none;stroke-width:0.26458332px;stroke-linecap:butt;stroke-linejoin:miter;stroke-opacity:1"
       inkscape:connector-curvature="0"
       sodipodi:nodetypes="cccc" />
    <path
       id="path7946"
       d="m 109.46686,149.66293 c -1.94884,0.95088 -3.86663,1.80836 -5.75738,2.57916 v 50.45727 z"
       style="opacity:0.297;fill:#000000;stroke:none;stroke-width:0.26458332px;stroke-linecap:butt;stroke-linejoin:miter;stroke-opacity:1"
       inkscape:connector-curvature="0"
       sodipodi:nodetypes="cccc" />
    <path
       inkscape:connector-curvature="0"
       style="font-style:normal;font-variant:normal;font-weight:900;font-stretch:normal;font-size:8.0376358px;line-height:1.25;font-family:Montserrat;-inkscape-font-specification:'Montserrat, Heavy';font-variant-ligatures:normal;font-variant-caps:normal;font-variant-numeric:normal;font-feature-settings:normal;text-align:start;letter-spacing:0.5291667px;word-spacing:0px;writing-mode:lr-tb;text-anchor:start;opacity:0.47000002;fill:#000000;fill-opacity:1;stroke:none;stroke-width:0.04872473"
       d="m -5.3791422,162.72303 -3.5132327,0.19438 v 8.0692 c 0,1.39807 -0.6661761,2.31349 -1.5293821,2.36148 -0.87845,0.0491 -1.634955,-0.80839 -1.634955,-2.18647 v -8.06824 l -3.513797,0.19443 v 8.0692 c 0,3.71501 2.043693,6.01828 5.132944,5.84677 3.0745726,-0.17066 5.0584228,-2.69784 5.0584228,-6.41256 z m 5.66588498,0.22842 -4.50572228,13.9665 3.58944773,0.18862 0.54874853,-1.97742 3.96374834,0.209 0.5250372,2.03381 3.7255057,0.1954 -4.2759479,-14.42633 z m 9.43824892,0.5794 v 14.20079 l 3.5075873,0.51725 v -3.68655 l 1.315415,0.19437 1.269687,3.87325 3.96149,0.58432 -2.086035,-4.92417 c 1.088465,-0.73003 1.677861,-2.18145 1.677861,-4.24648 0,-3.23937 -1.647939,-5.32636 -4.520965,-5.75249 z m -31.2306787,0.67572 c -0.209451,0.009 -0.417772,0.0316 -0.623835,0.066 -3.466374,0.57765 -5.979213,3.9804 -5.979213,8.07117 0,4.11043 2.421381,6.71354 5.751697,6.16174 1.513575,-0.25089 3.466375,-1.32609 4.646861,-2.5501 v -5.71551 l -3.011906,0.50071 v 3.22282 c -0.514876,0.36216 -1.029751,0.62609 -1.393325,0.68633 -1.377517,0.22859 -2.391459,-0.98752 -2.391459,-2.90487 0,-1.87788 0.999264,-3.42775 2.361538,-3.65442 0.877884,-0.14622 1.906506,0.25619 2.618411,1.02754 l 1.982721,-3.4736 c -0.993054,-0.97657 -2.495903,-1.50527 -3.96149,-1.43792 z m 46.79549,1.9502 -4.4312,13.25973 3.562913,0.74951 0.538587,-1.89087 3.937778,0.8273 0.523908,2.11455 3.696149,0.77779 -4.265786,-15.08844 z m -12.057224,1.45927 1.617453,0.23909 c 0.755941,0.11201 1.195165,0.78445 1.195165,1.83746 0,1.09354 -0.439224,1.65663 -1.195165,1.54485 l -1.617453,-0.23915 z m -11.2764438,0.10399 1.0743502,4.21057 -2.19725232,-0.11663 z m 32.8086128,0.4657 v 14.19012 l 3.190871,0.73398 v -7.2467 l 4.174328,8.20724 2.934563,0.67566 v -14.19108 l -3.176757,-0.7311 v 7.28859 l -4.189007,-8.25201 z m 12.132876,2.77463 v 3.70501 l 3.013035,0.59205 v 10.48906 l 3.512104,0.69113 V 175.9477 l 3.02715,0.59493 v -3.70687 z m -19.931089,0.22554 1.077173,4.37683 -2.185397,-0.45989 z m 31.301813,1.94534 v 14.19983 l 9.085966,1.06069 v -3.56698 l -5.584025,-0.65037 v -1.76265 l 4.950593,0.57652 v -3.56698 l -4.950593,-0.57551 v -1.74216 l 5.448531,0.63292 v -3.56601 z m 28.833574,0.10405 c -0.396319,-0.0192 -0.813526,0.006 -1.249363,0.0777 l -4.729851,0.77672 v 14.21055 l 4.593793,-0.75633 c 3.580415,-0.58968 5.892272,-3.76712 5.892272,-8.08377 0,-3.77722 -1.734881,-6.08992 -4.506851,-6.22496 z m -8.466084,1.03636 -8.949908,0.0574 v 14.20756 l 9.085966,-0.0542 v -3.56794 l -5.584589,0.0339 v -1.76356 l 4.950593,-0.0299 v -3.56788 l -4.950593,0.031 v -1.74414 l 5.448531,-0.0339 z m 7.389475,2.6774 c 1.218312,-0.0412 2.003045,1.16508 2.003045,3.1412 0,2.08761 -0.816348,3.5593 -2.08547,3.76818 l -1.314287,0.21583 v -6.91135 l 1.147743,-0.18952 c 0.08525,-0.0135 0.167673,-0.0215 0.248969,-0.0243 z"
       id="path7948" />
    <path
       id="path7950"
       d="m -5.3791422,161.80354 -3.5132327,0.19443 v 8.06909 c 0,1.39812 -0.6661761,2.31361 -1.5293821,2.36148 -0.87845,0.0491 -1.634955,-0.80833 -1.634955,-2.18641 v -8.06824 l -3.513797,0.19443 v 8.0692 c 0,3.71501 2.043693,6.01823 5.132944,5.84677 3.0745726,-0.17067 5.0584228,-2.6979 5.0584228,-6.41262 z m 5.66588498,0.22836 -4.50572228,13.9665 3.58944773,0.18862 0.54931308,-1.97742 3.96318379,0.209 0.5250372,2.03381 3.7255057,0.19545 -4.2759479,-14.42638 z m 9.43824892,0.57946 v 14.20085 l 3.5075873,0.51719 v -3.68655 l 1.315415,0.19443 1.269687,3.87319 3.96149,0.58426 -2.086035,-4.92411 c 1.088465,-0.73003 1.677861,-2.18145 1.677861,-4.24654 0,-3.23931 -1.647939,-5.32636 -4.520965,-5.75249 z m -31.2306787,0.67566 c -0.209451,0.01 -0.417772,0.0322 -0.623835,0.0661 -3.466374,0.57766 -5.979213,3.98046 -5.979213,8.07118 0,4.11042 2.421381,6.71359 5.751697,6.16173 1.513575,-0.25089 3.466375,-1.32603 4.646861,-2.5501 v -5.71551 l -3.011906,0.50077 v 3.22276 c -0.514876,0.36217 -1.029751,0.6261 -1.393325,0.68639 -1.377517,0.22853 -2.391459,-0.98758 -2.391459,-2.90487 0,-1.87794 0.999264,-3.42781 2.361538,-3.65454 0.877884,-0.14616 1.906506,0.25626 2.618411,1.02761 l 1.982721,-3.4736 c -0.993054,-0.97663 -2.495903,-1.50533 -3.96149,-1.43793 z m 46.79549,1.95026 -4.4312,13.25973 3.562913,0.74951 0.538587,-1.89093 3.937778,0.82736 0.523908,2.11449 3.696149,0.77779 -4.265786,-15.08844 z m -12.057224,1.45921 1.617453,0.2392 c 0.755941,0.11195 1.195165,0.7844 1.195165,1.83741 0,1.09354 -0.439224,1.65663 -1.195165,1.54479 l -1.617453,-0.23909 z m -11.2764438,0.10405 1.0743502,4.21051 -2.19668776,-0.11663 z m 32.8086128,0.4657 v 14.19006 l 3.190871,0.73404 v -7.2467 l 4.174328,8.20723 2.934563,0.67566 v -14.19107 l -3.176757,-0.73105 v 7.28848 l -4.189007,-8.25201 z m 12.132876,2.77462 v 3.70502 l 3.013035,0.5921 v 10.48895 l 3.512104,0.69118 v -10.48996 l 3.02715,0.59504 v -3.70693 z m -19.931089,0.22554 1.077173,4.37684 -2.185397,-0.45989 z m 31.301813,1.94535 v 14.19989 l 9.085966,1.06063 v -3.56698 l -5.584025,-0.65043 v -1.7626 l 4.950593,0.57653 v -3.56692 l -4.950593,-0.57557 v -1.74216 l 5.448531,0.63292 v -3.56602 z m 28.833574,0.10405 c -0.396319,-0.0192 -0.813526,0.006 -1.249363,0.0777 l -4.729851,0.77683 v 14.21044 l 4.593793,-0.75634 c 3.580415,-0.58962 5.892272,-3.767 5.892272,-8.08371 0,-3.77716 -1.734881,-6.08992 -4.506851,-6.22496 z m -8.466084,1.0363 -8.949908,0.0574 v 14.20762 l 9.085966,-0.0542 v -3.568 l -5.584589,0.0339 v -1.7635 l 4.950593,-0.0305 v -3.56793 l -4.950593,0.031 v -1.74414 l 5.448531,-0.0339 z m 7.389475,2.67741 c 1.218312,-0.0412 2.003045,1.16507 2.003045,3.14124 0,2.08756 -0.816348,3.5593 -2.08547,3.76819 l -1.314287,0.21577 v -6.91124 l 1.147743,-0.18958 c 0.08525,-0.0135 0.168238,-0.0214 0.248969,-0.0243 z"
       style="font-style:normal;font-variant:normal;font-weight:900;font-stretch:normal;font-size:8.0376358px;line-height:1.25;font-family:Montserrat;-inkscape-font-specification:'Montserrat, Heavy';font-variant-ligatures:normal;font-variant-caps:normal;font-variant-numeric:normal;font-feature-settings:normal;text-align:start;letter-spacing:0.5291667px;word-spacing:0px;writing-mode:lr-tb;text-anchor:start;opacity:1;fill:#ffffff;fill-opacity:1;stroke:none;stroke-width:0.04872476"
       inkscape:connector-curvature="0" />
  </g>
</svg>
