<?xml version="1.0" encoding="UTF-8"?>
<svg width="67px" height="85px" viewBox="0 0 67 85" version="1.1" xmlns="http://www.w3.org/2000/svg" xmlns:xlink="http://www.w3.org/1999/xlink">
    <title>Logo</title>
    <defs>
        <linearGradient x1="35.3995636%" y1="-25.9028533%" x2="59.0405633%" y2="125.987145%" id="linearGradient-1">
            <stop stop-color="#4272CB" offset="0%"></stop>
            <stop stop-color="#E54F6D" offset="100%"></stop>
        </linearGradient>
    </defs>
    <g id="Logo" stroke="none" stroke-width="1" fill="none" fill-rule="evenodd">
        <g fill-rule="nonzero">
            <g id="Inside" transform="translate(14.300000, 0.000000)" fill="#535365">
                <path d="M46.6768988,29.7411412 C47.842581,31.7070848 50.0141817,36.2192807 50.7183247,38.5227507 C51.4165506,40.7906917 51.2272012,43.188906 50.9490943,45.5101406 C50.6295672,48.1511371 50.0970221,50.762526 49.5644769,53.3679934 L47.6295629,63.7602555 C46.9905088,66.8927379 46.5822242,70.5759213 44.8603282,73.3412697 C43.3573675,75.7454055 40.8011508,76.9711595 38.3514432,78.4337742 L29.0023174,84 L33.6768803,57.6492501 C34.1325022,55.1266839 34.546704,52.5922747 35.037829,50.0815516 C35.5112024,47.6478081 35.9135699,44.941675 35.250847,42.5079315 C34.3751061,39.2925479 32.6709617,36.6160223 30.9786516,33.7914588 C29.0851578,30.6175257 27.1975811,27.4435927 25.327756,24.2518951 L22.8721311,20.4029092 C24.5111867,13.812261 26.138408,9.25269299 29.5940342,3.40815587 C29.6058686,3.39039132 29.6236201,3.36670525 29.6236201,3.36670525 C29.8188866,3.23051037 31.2094212,5.21421851 31.2094212,5.21421851 C33.5230339,8.15129086 40.6946418,19.3666437 41.1325122,20.1778915 L46.6768988,29.7411412 Z" id="Path"></path>
                <path d="M13.1498419,56.28 C14.7162323,58.9388793 16.2885785,61.6631897 17.8430572,64.3815517 C19.1056989,66.5824138 20.3623848,68.7832759 21.6131148,70.9425 L21.5416445,70.9900862 C16.7352678,74.1426724 11.934847,77.2893103 7.13442623,80.43 C9.11772663,72.4176724 11.1605856,64.2923276 13.1498419,56.28 Z" id="Path"></path>
                <path d="M7.71822445,0 L19.6243113,20.3679717 C20.2758882,21.4542635 23.5100789,26.9801828 23.7114754,27.4524836 C19.843478,29.6959124 15.8866293,31.9865712 12.0186319,34.23 L11.9238571,34.0646947 L4.04570015,20.5450845 L0,4.39830114 L7.71822445,0 Z" id="Path"></path>
            </g>
            <g id="Outside" transform="translate(0.000000, 3.350000)" fill="url(#linearGradient-1)">
                <path d="M39.1072641,46.2057292 L47.0318856,59.9974247 L43.3141815,80.65 L43.3141815,80.65 L42.6573349,79.5145585 L42.6573349,79.5145585 L42.1984976,78.7201533 L42.1984976,78.7201533 L41.6013941,77.6850218 L41.6013941,77.6850218 L40.7214761,76.1572047 L40.7214761,76.1572047 L40.1956324,75.2429776 L40.1956324,75.2429776 L39.5147707,74.0580689 L39.5147707,74.0580689 L38.8077347,72.8263549 L38.8077347,72.8263549 L38.3709493,72.0648598 L38.3709493,72.0648598 L37.6220341,70.7582571 L37.6220341,70.7582571 L36.6887857,69.1285507 L36.6887857,69.1285507 L35.7178462,67.4314446 L35.7178462,67.4314446 L34.879938,65.9657036 L34.879938,65.9657036 L33.4848422,63.5231627 L33.4848422,63.5231627 L32.3945473,61.612624 L32.3945473,61.612624 L31.0748992,59.2984764 L31.0748992,59.2984764 L29.7039492,56.8925902 L29.7039492,56.8925902 L28.2816974,54.3949654 L28.2816974,54.3949654 L27.4459485,52.9265625 L27.4459485,52.9265625 L39.1072641,46.2057292 Z M14.2932485,1.03267397 L18.3435161,17.1984019 L17.0333778,25.4230274 L16.0263773,31.0969711 L16.0077183,31.1844076 L16.0077183,31.1844076 L15.9880418,31.2784589 L15.9880418,31.2784589 L15.9674207,31.3788736 L15.9674207,31.3788736 L15.9459279,31.4854003 L15.9459279,31.4854003 L15.9236364,31.5977876 L15.9236364,31.5977876 L15.900619,31.7157842 L15.900619,31.7157842 L15.8769486,31.8391387 L15.8769486,31.8391387 L15.8526982,31.9675997 L15.8526982,31.9675997 L15.8279406,32.1009158 L15.8279406,32.1009158 L15.8027488,32.2388355 L15.8027488,32.2388355 L15.7771955,32.3811077 L15.7771955,32.3811077 L15.7513538,32.5274808 C15.7427,32.5769273 15.7340102,32.6270155 15.7252966,32.6777034 L15.6990967,32.8315242 L15.6990967,32.8315242 L15.672827,32.9886919 C15.6684469,33.0151514 15.664067,33.0417399 15.6596888,33.0684522 L15.6334511,33.2301687 C15.6159888,33.3389137 15.5986014,33.449471 15.5813863,33.5615053 L15.5557048,33.7306227 C15.5514501,33.7589796 15.5472093,33.7874183 15.5429837,33.8159337 L15.5178264,33.987903 C15.5136682,34.0167038 15.5095284,34.0455708 15.5054084,34.0744986 L15.4809392,34.2487544 L15.4809392,34.2487544 L15.45702,34.4242202 C15.2483764,35.9787725 15.1126261,37.6455274 15.2758787,38.6447917 C15.7450224,41.5257366 20.7949279,48.9683208 23.9789351,53.4868792 L24.2398116,53.8564967 L24.2398116,53.8564967 L24.4912207,54.2116143 L24.4912207,54.2116143 L24.7323332,54.5512696 L24.7323332,54.5512696 L25.0728826,55.0296544 L25.0728826,55.0296544 L25.9913315,56.3156465 L25.9913315,56.3156465 L26.1287944,56.5086482 C26.1502827,56.5388714 26.1710482,56.5681095 26.1910739,56.5963423 L26.3022108,56.7535153 C26.3701986,56.8500413 26.425795,56.9298412 26.4678947,56.9916314 L21.4245536,77.0795573 L20.113178,75.0013193 L20.113178,75.0013193 L18.7746411,72.8781296 L18.7746411,72.8781296 L17.4463788,70.7687133 L17.4463788,70.7687133 L16.3698932,69.0566008 L16.3698932,69.0566008 L15.7838993,68.1232938 L15.7838993,68.1232938 L15.1570176,67.1235023 L15.1570176,67.1235023 L14.5912812,66.2196289 L14.5912812,66.2196289 L14.0866901,65.4116735 L14.0866901,65.4116735 L13.6432443,64.6996361 L13.6432443,64.6996361 L13.3639332,64.2497633 L13.3639332,64.2497633 L13.1629458,63.9251002 L13.1629458,63.9251002 L12.9397886,63.5633153 L12.9397886,63.5633153 L12.7837244,63.3091227 L12.7837244,63.3091227 L12.647626,63.0862502 L12.647626,63.0862502 L12.5314933,62.8946978 L12.5314933,62.8946978 L12.0829208,62.167894 L12.0829208,62.167894 L11.6427929,61.4537241 C11.570142,61.3357487 11.4978429,61.2182996 11.4258957,61.101377 L10.9984346,60.4061581 L10.9984346,60.4061581 L10.5794182,59.7235732 C10.4411535,59.4981505 10.3042962,59.2748336 10.1688463,59.0536223 L9.76671905,58.3963053 L9.76671905,58.3963053 L9.37303636,57.7516224 L9.37303636,57.7516224 L8.98779826,57.1195734 C8.79729036,56.8067074 8.60994917,56.4985792 8.42577471,56.1951887 L8.06164808,55.5947247 L8.06164808,55.5947247 L7.70596603,55.0068946 C7.47165953,54.6192193 7.24298275,54.2399666 7.0199357,53.8691365 L6.68958742,53.3192084 C2.88478422,46.9770789 0.804084297,43.2143874 0.447487659,42.0311337 C-0.328495059,39.4542175 0.0328404048,35.3465186 0.565958303,32.8700786 C3.25919094,17.7316813 5.11523103,9.29957042 6.13407857,7.57374585 C7.72105208,4.89008864 9.29355654,3.85814024 11.5202404,2.60643298 L11.7047424,2.50301958 L11.7047424,2.50301958 L11.9872,2.34553864 L11.9872,2.34553864 L12.4738623,2.07485048 L12.4738623,2.07485048 L12.6743329,1.96302475 L12.6743329,1.96302475 L12.8782446,1.84882379 C13.323841,1.59864846 13.7942502,1.3301216 14.2932485,1.03267397 Z M44.109375,0 L43.8415321,1.18527941 L43.8415321,1.18527941 L43.6961576,1.82497516 L43.6961576,1.82497516 L43.6059616,2.21907275 L43.6059616,2.21907275 L43.5397714,2.50536932 L43.5397714,2.50536932 L43.5015015,2.66847406 L43.5015015,2.66847406 L43.4800628,2.75818412 L43.4800628,2.75818412 L43.4639209,2.82410839 L43.4639209,2.82410839 L43.4522394,2.87000254 L43.4522394,2.87000254 L43.4465167,2.89132543 L43.4465167,2.89132543 L43.442157,2.90652801 L43.442157,2.90652801 L43.4389124,2.91672305 L43.4389124,2.91672305 L43.4365351,2.92302335 L43.4365351,2.92302335 L43.4347772,2.92654169 C43.4345221,2.92695807 43.4342825,2.9273049 43.4340532,2.92760536 L43.4314668,2.93046909 C43.4312375,2.93076955 43.4309979,2.93111638 43.4307428,2.93153276 L43.428985,2.9350511 C43.4286473,2.93583841 43.4282838,2.93674163 43.4278893,2.93778395 L43.4251093,2.94589253 L43.4251093,2.94589253 L43.421338,2.95845224 L43.421338,2.95845224 L43.4163278,2.97657587 L43.4163278,2.97657587 L43.4059473,3.0166279 L43.4059473,3.0166279 L43.3913851,3.07545818 L43.3913851,3.07545818 L43.3789408,3.12696536 L43.3789408,3.12696536 L43.3364467,3.30685187 L43.3364467,3.30685187 L43.2886984,3.51252063 L43.2886984,3.51252063 L43.2085694,3.86141135 L43.2085694,3.86141135 L43.1256951,4.22481737 L43.1256951,4.22481737 L42.9953862,4.79904701 L42.9953862,4.79904701 L42.756145,5.85807445 L42.756145,5.85807445 C42.1320518,8.36315188 41.4714211,10.8811714 40.8044909,13.4014223 L40.1365808,15.9220204 C39.4131631,18.6526145 38.6941814,21.3816374 38.0180804,24.0954713 L29.5470444,9.57127269 L29.5470444,9.57127269 L36.3765742,5.08755424 L36.3765742,5.08755424 L40.9455089,2.08571696 L40.9455089,2.08571696 L42.2882877,1.20260177 L42.2882877,1.20260177 L43.3200655,0.523169401 L43.3200655,0.523169401 L43.8362133,0.182407068 L43.8362133,0.182407068 L44.0367248,0.0493117106 L44.0367248,0.0493117106 L44.0897286,0.0137264697 C44.1019143,0.00545713687 44.1085404,0.000830932546 44.109375,0 Z" id="Shape"></path>
            </g>
        </g>
    </g>
</svg>
