<svg width="32px" height="34px" viewBox="0 0 32 34" version="1.1" xmlns="http://www.w3.org/2000/svg" xmlns:xlink="http://www.w3.org/1999/xlink">
    <g stroke="none" stroke-width="1" fill="none" fill-rule="evenodd">
        <g transform="translate(-740.000000, -747.000000)" fill="#F8F8F8" fill-rule="nonzero">
            <g>
                <g transform="translate(220.000000, 708.000000)">
                    <g transform="translate(32.000000, 32.000000)">
                        <g transform="translate(488.000000, 7.000000)">
                            <path d="M31.6669589,15.7627804 L16.1245348,0.331377952 C15.9027021,0.110768619 15.6468761,0 15.3577576,0 C15.0689896,0 14.8135141,0.110768619 14.5912141,0.331377952 L12.9234387,1.98710783 C12.7011387,2.20783315 12.5901639,2.4613831 12.5901639,2.74880157 C12.5901639,3.03622004 12.7011387,3.28976999 12.9234387,3.51049531 L26.0309597,16.5248221 L12.9235555,29.5394969 C12.7012555,29.7602223 12.5902807,30.0142362 12.5902807,30.3008427 C12.5902807,30.5881452 12.7012555,30.8421591 12.9235555,31.0628844 L14.5913309,32.7181503 C14.8135141,32.9391076 15.0689896,33.0491803 15.3578745,33.0491803 C15.6473434,33.0491803 15.9028189,32.9388757 16.1245348,32.7181503 L31.6669589,17.2866319 C31.8891421,17.0660225 32,16.8118926 32,16.5249381 C32,16.2379836 31.8891421,15.9839697 31.6669589,15.7627804 Z"></path>
                            <path d="M19.4098361,16.5249381 C19.4098361,16.2379836 19.2992144,15.9838537 19.0761021,15.7627804 L3.53510351,0.331377952 C3.3129257,0.110768619 3.05710583,0 2.76811115,0 C2.47911647,0 2.22317979,0.110768619 2.00100198,0.331377952 L0.333617144,1.98722382 C0.110972089,2.20794914 0,2.46149909 0,2.74891756 C0,3.03633603 0.110972089,3.28988598 0.333617144,3.5106113 L13.4404722,16.5249381 L0.333617144,29.5394969 C0.110972089,29.7602223 0,30.0142362 0,30.3008427 C0,30.5881452 0.110972089,30.8421591 0.333617144,31.0628844 L2.00088517,32.7181503 C2.22317979,32.9391076 2.47899966,33.0491803 2.76799434,33.0491803 C3.05698902,33.0491803 3.31280889,32.9388757 3.53510351,32.7181503 L19.0761021,17.2866319 C19.2992144,17.0660225 19.4098361,16.8118926 19.4098361,16.5249381 Z"></path>
                        </g>
                    </g>
                </g>
            </g>
        </g>
    </g>
</svg>
