<?xml version="1.0" encoding="UTF-8"?>
<svg width="4417px" height="3408px" viewBox="0 0 4417 3408" version="1.1" xmlns="http://www.w3.org/2000/svg" xmlns:xlink="http://www.w3.org/1999/xlink">
    <!-- Generator: Sketch 52.6 (67491) - http://www.bohemiancoding.com/sketch -->
    <title>Aristic</title>
    <desc>Created with Sketch.</desc>
    <defs>
        <radialGradient cx="0%" cy="0%" fx="0%" fy="0%" r="163.677486%" gradientTransform="translate(0.000000,0.000000),scale(0.771739,1.000000),rotate(37.658774),translate(-0.000000,-0.000000)" id="radialGradient-1">
            <stop stop-color="#E8ECF1" offset="0%"></stop>
            <stop stop-color="#FDFEFF" offset="100%"></stop>
        </radialGradient>
        <rect id="path-2" x="0" y="0" width="4416" height="3408"></rect>
        <radialGradient cx="13.8216823%" cy="0%" fx="13.8216823%" fy="0%" r="116.476906%" gradientTransform="translate(0.138217,0.000000),scale(0.983274,1.000000),rotate(52.594036),translate(-0.138217,-0.000000)" id="radialGradient-4">
            <stop stop-color="#CF4141" offset="0%"></stop>
            <stop stop-color="#F03434" offset="100%"></stop>
        </radialGradient>
        <filter x="-10.3%" y="-10.4%" width="120.5%" height="120.9%" filterUnits="objectBoundingBox" id="filter-5">
            <feGaussianBlur stdDeviation="18" in="SourceGraphic"></feGaussianBlur>
        </filter>
        <filter x="-25.5%" y="-25.5%" width="151.0%" height="151.0%" filterUnits="objectBoundingBox" id="filter-6">
            <feGaussianBlur stdDeviation="18" in="SourceGraphic"></feGaussianBlur>
        </filter>
        <radialGradient cx="13.8216823%" cy="0%" fx="13.8216823%" fy="0%" r="116.476906%" gradientTransform="translate(0.138217,0.000000),scale(0.983274,1.000000),rotate(52.594036),translate(-0.138217,-0.000000)" id="radialGradient-7">
            <stop stop-color="#CF4141" offset="0%"></stop>
            <stop stop-color="#F03434" offset="100%"></stop>
        </radialGradient>
        <filter x="-11.7%" y="-11.9%" width="123.4%" height="123.8%" filterUnits="objectBoundingBox" id="filter-8">
            <feGaussianBlur stdDeviation="26" in="SourceGraphic"></feGaussianBlur>
        </filter>
        <filter x="-29.1%" y="-29.1%" width="158.2%" height="158.2%" filterUnits="objectBoundingBox" id="filter-9">
            <feGaussianBlur stdDeviation="26" in="SourceGraphic"></feGaussianBlur>
        </filter>
        <radialGradient cx="13.8216823%" cy="0%" fx="13.8216823%" fy="0%" r="116.476906%" gradientTransform="translate(0.138217,0.000000),scale(0.983274,1.000000),rotate(52.594036),translate(-0.138217,-0.000000)" id="radialGradient-10">
            <stop stop-color="#CF4141" offset="0%"></stop>
            <stop stop-color="#F03434" offset="100%"></stop>
        </radialGradient>
        <filter x="-17.0%" y="-17.3%" width="134.0%" height="134.6%" filterUnits="objectBoundingBox" id="filter-11">
            <feGaussianBlur stdDeviation="15" in="SourceGraphic"></feGaussianBlur>
        </filter>
        <filter x="-42.2%" y="-42.2%" width="184.5%" height="184.5%" filterUnits="objectBoundingBox" id="filter-12">
            <feGaussianBlur stdDeviation="15" in="SourceGraphic"></feGaussianBlur>
        </filter>
        <radialGradient cx="50%" cy="0%" fx="50%" fy="0%" r="98.5823924%" gradientTransform="translate(0.500000,0.000000),scale(0.621107,1.000000),rotate(86.756806),translate(-0.500000,-0.000000)" id="radialGradient-13">
            <stop stop-color="#9A4848" offset="0%"></stop>
            <stop stop-color="#9B0B0B" offset="100%"></stop>
        </radialGradient>
        <radialGradient cx="50%" cy="0%" fx="50%" fy="0%" r="111.41295%" gradientTransform="translate(0.500000,0.000000),scale(0.621107,1.000000),rotate(72.219829),translate(-0.500000,-0.000000)" id="radialGradient-14">
            <stop stop-color="#D43A3A" offset="0%"></stop>
            <stop stop-color="#A90F0F" offset="100%"></stop>
        </radialGradient>
        <path d="M6065.34882,597.600796 L5906.0197,3857.2912 L669.671991,3964.54556 C430.908232,4324.81614 444.272984,4289.4888 709.766245,3858.56353 C892.182228,3562.48198 1427.21506,3653.32169 1806.56684,3245.22982 C2026.04576,3009.12295 2553.06246,3137.38343 2818.51612,2807.08816 C3072.24063,2491.3871 3476.03219,2707.7072 3694.02613,2404.10993 C3912.02008,2100.51266 4879.06379,1773.22515 5046.62807,1652.06236 C5491.64352,1330.27949 5603.04722,775.05415 5970.13239,712.943832 C6398.54439,640.457097 6430.2832,602.009419 6065.34882,597.600796 Z" id="path-15"></path>
        <filter x="-1.7%" y="-2.1%" width="102.8%" height="104.6%" filterUnits="objectBoundingBox" id="filter-16">
            <feMorphology radius="2.5" operator="dilate" in="SourceAlpha" result="shadowSpreadOuter1"></feMorphology>
            <feOffset dx="-10" dy="2" in="shadowSpreadOuter1" result="shadowOffsetOuter1"></feOffset>
            <feGaussianBlur stdDeviation="25" in="shadowOffsetOuter1" result="shadowBlurOuter1"></feGaussianBlur>
            <feColorMatrix values="0 0 0 0 0.329411765   0 0 0 0 0.0156862745   0 0 0 0 0.0156862745  0 0 0 0.2 0" type="matrix" in="shadowBlurOuter1"></feColorMatrix>
        </filter>
        <radialGradient cx="50%" cy="0%" fx="50%" fy="0%" r="97.8733481%" gradientTransform="translate(0.500000,0.000000),scale(0.561026,1.000000),rotate(51.209072),translate(-0.500000,-0.000000)" id="radialGradient-17">
            <stop stop-color="#D74F4F" offset="0%"></stop>
            <stop stop-color="#E93737" offset="100%"></stop>
        </radialGradient>
        <path d="M5385.63687,1496.01537 L5247,4058 L690.702569,4142.29758 C482.947324,4425.45567 494.57638,4397.6898 725.589737,4059 C884.315155,3826.2919 1349.86268,3897.68823 1679.94763,3576.94455 C1870.92257,3391.37411 2329.49503,3492.18165 2560.47393,3232.58295 C2781.24695,2984.4547 3132.59766,3154.47353 3322.28049,2915.85838 C3511.96332,2677.24322 4353.41599,2420.0085 4499.21851,2324.77945 C4886.43931,2071.87115 4983.37489,1635.48652 5302.78631,1586.67032 C5675.55996,1529.69868 5703.17682,1499.48037 5385.63687,1496.01537 Z" id="path-18"></path>
        <filter x="-1.9%" y="-2.7%" width="103.3%" height="105.8%" filterUnits="objectBoundingBox" id="filter-19">
            <feMorphology radius="2.5" operator="dilate" in="SourceAlpha" result="shadowSpreadOuter1"></feMorphology>
            <feOffset dx="-10" dy="2" in="shadowSpreadOuter1" result="shadowOffsetOuter1"></feOffset>
            <feGaussianBlur stdDeviation="25" in="shadowOffsetOuter1" result="shadowBlurOuter1"></feGaussianBlur>
            <feColorMatrix values="0 0 0 0 0.435294118   0 0 0 0 0.0156862745   0 0 0 0 0.0156862745  0 0 0 0.24 0" type="matrix" in="shadowBlurOuter1"></feColorMatrix>
        </filter>
        <radialGradient cx="13.8216823%" cy="0%" fx="13.8216823%" fy="0%" r="116.476906%" gradientTransform="translate(0.138217,0.000000),scale(0.983274,1.000000),rotate(52.594036),translate(-0.138217,-0.000000)" id="radialGradient-20">
            <stop stop-color="#CF4141" offset="0%"></stop>
            <stop stop-color="#F03434" offset="100%"></stop>
        </radialGradient>
        <circle id="path-21" cx="349.649697" cy="349.818176" r="349.576136"></circle>
        <filter x="-0.3%" y="-0.3%" width="100.6%" height="100.6%" filterUnits="objectBoundingBox" id="filter-22">
            <feGaussianBlur stdDeviation="1.5" in="SourceAlpha" result="shadowBlurInner1"></feGaussianBlur>
            <feOffset dx="0" dy="1" in="shadowBlurInner1" result="shadowOffsetInner1"></feOffset>
            <feComposite in="shadowOffsetInner1" in2="SourceAlpha" operator="arithmetic" k2="-1" k3="1" result="shadowInnerInner1"></feComposite>
            <feColorMatrix values="0 0 0 0 0   0 0 0 0 0   0 0 0 0 0  0 0 0 0.5 0" type="matrix" in="shadowInnerInner1"></feColorMatrix>
        </filter>
    </defs>
    <g id="Page-1" stroke="none" stroke-width="1" fill="none" fill-rule="evenodd">
        <g id="Aristic" transform="translate(0.562500, 0.000000)">
            <mask id="mask-3" fill="white">
                <use xlink:href="#path-2"></use>
            </mask>
            <use id="Mask" fill="url(#radialGradient-1)" xlink:href="#path-2"></use>
            <g id="Backdrop-Viruses" mask="url(#mask-3)">
                <g transform="translate(-205.000000, 418.000000)">
                    <g id="Back-Virus-1" transform="translate(363.901018, 364.039719) rotate(-55.000000) translate(-363.901018, -364.039719) translate(100.901018, 105.039719)">
                        <path d="M525.773471,236.642887 C527.694546,261.497483 510.209501,283.56272 486.733304,285.917937 C468.75985,287.719624 452.501254,277.441326 444.990607,261.388947 L423.685117,263.266609 L407.600178,271.026887 C403.92083,272.796013 401.446223,276.312559 400.88184,280.350074 C399.362345,291.23617 396.605547,301.720685 392.774249,311.68423 C391.471825,315.05968 391.699749,318.825856 393.468875,321.973382 L399.199542,332.219119 L415.132532,342.909851 C423.533168,339.697205 433.312203,340.467806 441.354673,345.862013 C454.986713,355.011543 458.253627,373.842427 448.116425,387.094594 C439.390183,398.512513 423.164148,401.649185 410.812824,394.312195 C402.944011,389.645175 398.190163,381.89575 397.028835,373.614503 L379.370133,361.773296 L368.256112,360.416604 C364.435668,359.949902 360.636931,361.26318 357.858426,363.922296 C348.480971,372.854755 337.887921,380.528205 326.37232,386.671306 C322.497607,388.733478 320.012148,392.695018 319.740809,397.068993 L318.32985,419.579225 L325.319527,447.310008 C337.215001,450.63119 347.048304,460.062912 350.282658,472.891791 C355.166749,492.287058 343.119325,511.964518 323.474426,516.338492 C305.750602,520.289179 287.570931,509.956614 281.937946,492.688639 C277.553118,479.208548 281.579779,465.272609 290.848698,456.166493 L283.826461,428.272907 L272.983779,410.842129 C270.075032,406.164255 264.930456,403.396604 259.41686,403.407457 C259.3843,403.407457 259.362592,403.407457 259.330032,403.407457 C249.833188,403.407457 240.542562,402.4632 231.555835,400.694073 C226.205042,399.630427 220.680593,401.323579 216.925269,405.285119 L202.598603,420.404094 L186.557077,453.681033 C190.312401,461.311068 190.64886,470.52572 186.676466,478.78526 C179.53484,493.589482 161.322608,499.472099 146.768017,491.288533 C134.308158,484.266296 128.913951,468.767447 134.340719,455.526134 C138.041774,446.495993 145.715224,440.461427 154.398052,438.442669 L170.537259,404.948659 L173.706492,382.470988 C174.281729,378.324937 172.697113,374.146326 169.441052,371.51977 C156.60132,361.100377 145.595835,348.521129 136.988982,334.324705 C134.850835,330.797306 131.008684,328.659159 126.88434,328.626599 L104.439229,328.409528 L79.8668251,336.137245 C78.141113,351.419023 67.6783049,364.996796 52.0709211,369.902594 C31.1018908,376.501543 8.76531513,364.975089 1.96014848,344.136301 C-4.84501817,323.308367 6.64887574,300.526796 27.455103,293.645654 C42.0205474,288.826685 57.3240322,292.831639 67.6783049,302.675796 L93.7593503,294.470523 L112.807305,280.89275 C115.640078,278.884846 117.148719,275.52025 116.866527,272.068826 C116.551775,268.237528 116.388971,264.37367 116.388971,260.466397 C116.388971,239.236882 121.055992,219.081867 129.391507,200.956463 C130.607103,198.297347 130.574542,195.23665 129.293825,192.610094 L123.649987,181.072786 L108.335648,169.513771 C99.7613554,172.259715 90.0474412,170.946438 82.3197241,165.118089 C69.2086534,155.219665 66.9945322,136.236832 77.8480675,123.570756 C87.1929614,112.662953 103.570946,110.427125 115.498982,118.437034 C123.096456,123.538195 127.416163,131.526397 128.11079,139.861912 L145.085719,152.669084 L162.190891,155.718927 C174.639896,144.159912 189.151072,134.793311 205.094916,128.226922 L209.110724,103.828175 L204.042123,78.626266 C189.042537,74.7624074 176.86487,63.2685135 173.587103,47.9433216 C168.963497,26.2905186 183.843694,5.20209948 206.831481,0.849831817 C229.808416,-3.50243585 252.188406,10.5094783 256.812012,32.1622813 C260.274289,48.3666095 252.817911,64.2453317 239.207577,73.0366953 L243.993986,96.8059377 L255.748365,115.560847 C256.518966,116.787296 257.864805,117.525337 259.308325,117.525337 L259.330032,117.525337 C286.246799,117.525337 311.448708,125.014276 332.971269,138.016811 C334.154304,138.722291 335.608678,138.819973 336.856835,138.233882 L355.264431,129.703003 L376.754431,106.454731 C375.46286,98.1192155 377.839784,89.2844377 384.015446,82.6095135 C395.17288,70.5512357 414.275102,70.2473367 425.801557,82.3056145 C435.906198,92.8878114 436.296925,109.765059 426.7024,120.813958 C420.494178,127.966438 411.583425,131.265912 402.87889,130.6147 L381.38889,153.862973 L374.410067,172.639589 C373.921658,173.942013 374.138729,175.396387 374.952744,176.525155 C383.429355,188.160145 390.191107,201.119266 394.858128,215.033498 C396.149698,218.853943 399.188688,221.827811 403.074254,222.924018 L420.548446,227.818963 L443.254042,225.811059 C448.821905,209.75868 462.725284,197.613574 479.797895,195.898715 C503.274092,193.543498 523.863248,211.788291 525.773471,236.642887 Z" id="Path" fill="url(#radialGradient-4)" filter="url(#filter-5)"></path>
                        <circle id="Oval" fill="#9C1D1D" filter="url(#filter-6)" cx="259.330032" cy="260.466397" r="105.843677"></circle>
                    </g>
                    <g id="Back-Virus-2" transform="translate(664.969612, 1920.693613) rotate(-55.000000) translate(-664.969612, -1920.693613) translate(331.469612, 1592.693613)">
                        <path d="M666.046227,299.777586 C668.479832,331.263218 646.329897,359.215309 616.590411,362.198882 C593.821762,364.481247 573.225485,351.460769 563.711049,331.125726 L536.721401,333.504335 L516.34511,343.335001 C511.684137,345.576118 508.549323,350.030854 507.834365,355.145551 C505.909479,368.935982 502.417186,382.217694 497.563724,394.839445 C495.913822,399.115441 496.202555,403.886408 498.443672,407.873672 L505.703241,420.852901 L525.887044,434.395848 C536.528912,430.326089 548.916927,431.302281 559.105073,438.135626 C576.374048,449.726188 580.512552,473.581023 567.670814,490.368776 C556.61647,504.832918 536.06144,508.806432 520.414868,499.511984 C510.44671,493.599835 504.424567,483.782917 502.953405,473.29229 L480.583482,458.29193 L466.504318,456.573282 C461.664605,455.982067 456.85239,457.645718 453.332599,461.014268 C441.453304,472.329847 428.0341,482.05052 413.446216,489.832558 C408.537757,492.444903 405.389194,497.463355 405.045464,503.004277 L403.258071,531.520084 L412.112545,566.64925 C427.181651,570.8565 439.638412,582.804541 443.735669,599.056077 C449.922801,623.625869 434.661207,648.55314 409.775184,654.094061 C387.322766,659.098764 364.292883,646.009541 357.157056,624.134589 C351.602386,607.058102 356.703333,589.40415 368.445136,577.868584 L359.549414,542.533181 L345.813979,520.451991 C342.129198,514.526093 335.612085,511.020051 328.627499,511.0338 C328.586252,511.0338 328.558753,511.0338 328.517506,511.0338 C316.48697,511.0338 304.717668,509.837621 293.333344,507.596504 C286.554996,506.249084 279.556661,508.393957 274.799443,513.412409 L256.65052,532.565022 L236.329226,574.720021 C241.086444,584.385697 241.512669,596.058755 236.480467,606.521884 C227.433504,625.275771 204.362373,632.727829 185.924717,622.360944 C170.140654,613.465222 163.307309,593.831387 170.181901,577.057382 C174.870373,565.618061 184.591046,557.973515 195.590394,555.416166 L216.03543,512.986184 L220.050192,484.511624 C220.778899,479.259436 218.771518,473.966 214.646763,470.638697 C198.381478,457.43948 184.439805,441.504176 173.536702,423.520243 C170.828113,419.051758 165.960902,416.343169 160.736212,416.301922 L132.302899,416.026938 L101.174746,425.816357 C98.988626,445.175208 85.7344125,462.375438 65.9630857,468.590069 C39.399662,476.949573 11.1038411,462.347939 2.48310265,435.949506 C-6.13763579,409.564821 8.42275019,380.705284 34.7799361,371.988301 C53.2313412,365.883663 72.6176908,370.957112 85.7344125,383.427622 L118.773702,373.033239 L142.90352,355.83301 C146.492057,353.289411 148.403194,349.027164 148.045715,344.654923 C147.646989,339.801461 147.440751,334.906752 147.440751,329.957045 C147.440751,303.063641 153.3529,277.531406 163.912273,254.570269 C165.452182,251.201719 165.410934,247.324449 163.788531,243.997146 L156.638955,229.381763 L137.238856,214.738882 C126.377001,218.217426 114.071481,216.553775 104.282062,209.170463 C87.6730475,196.631207 84.8682139,172.583884 98.617398,156.538586 C110.455446,142.720656 131.202964,139.888324 146.313318,150.035222 C155.937747,156.497338 161.409922,166.616738 162.28987,177.176111 L183.793594,193.400149 L205.462308,197.263669 C221.232622,182.620788 239.615281,170.755242 259.812833,162.436986 L264.900031,131.52882 L258.479162,99.6032145 C239.477789,94.708505 224.051205,80.148119 219.898951,60.734271 C214.041799,33.3046487 232.89193,6.58998395 262.012702,1.07656112 C291.119725,-4.43686172 319.470543,13.313335 325.327695,40.7429573 C329.713685,61.2704892 320.267995,81.3855456 303.026518,92.5223847 L309.089909,122.633098 L323.980275,146.391688 C324.956467,147.945346 326.661366,148.88029 328.490007,148.88029 L328.517506,148.88029 C362.615482,148.88029 394.541088,158.367227 421.80572,174.83875 C423.304381,175.732447 425.146772,175.85619 426.727928,175.113734 L450.046544,164.306875 L477.269929,134.856123 C475.633776,124.296749 478.644847,113.104913 486.468133,104.649165 C500.602294,89.3738215 524.800858,88.9888444 539.402492,104.264188 C552.202982,117.669642 552.697953,139.049624 540.543674,153.046293 C532.679141,162.107006 521.391061,166.286758 510.364215,165.461806 L483.14083,194.912559 L474.300105,218.698647 C473.681392,220.348549 473.956375,222.19094 474.987564,223.620855 C485.725677,238.359981 494.291419,254.776506 500.203568,272.402961 C501.839721,277.242673 505.689492,281.00995 510.6117,282.398617 L532.747887,288.599499 L561.51118,286.0559 C568.564511,265.720857 586.177216,250.33552 607.804683,248.163149 C637.544168,245.179576 663.62637,268.291954 666.046227,299.777586 Z" id="Path" fill="url(#radialGradient-7)" filter="url(#filter-8)"></path>
                        <circle id="Oval" fill="#9C1D1D" filter="url(#filter-9)" cx="328.517506" cy="329.957045" r="134.082044"></circle>
                    </g>
                    <g id="Back-Virus-3" transform="translate(2657.695106, 321.654447) rotate(-13.000000) translate(-2657.695106, -321.654447) translate(2525.195106, 191.154447)">
                        <path d="M264.577772,119.082554 C265.544488,131.589791 256.745729,142.693378 244.932124,143.878562 C235.887589,144.7852 227.705999,139.612993 223.926519,131.535175 L213.20525,132.480045 L205.111047,136.385143 C203.259539,137.275396 202.014276,139.044979 201.730269,141.076722 C200.965635,146.554783 199.578369,151.830762 197.650398,156.84458 C196.994997,158.543161 197.109692,160.438362 197.999945,162.022248 L200.88371,167.17807 L208.90145,172.557821 C213.128787,170.941165 218.049756,171.328944 222.096858,174.043397 C228.956723,178.647589 230.600687,188.123597 225.499482,194.792303 C221.108295,200.537986 212.94309,202.11641 206.727703,198.424317 C202.767988,196.075796 200.375774,192.17616 199.791374,188.008901 L190.905228,182.050213 L185.312472,181.367504 C183.389962,181.132652 181.478376,181.793515 180.080187,183.131625 C175.361299,187.626584 170.030704,191.487989 164.235866,194.579297 C162.286047,195.617016 161.035324,197.610527 160.898782,199.811583 L160.188764,211.139098 L163.706083,225.09368 C169.69208,226.764952 174.640358,231.511148 176.267937,237.966849 C178.725691,247.726864 172.663231,257.628882 162.777598,259.829937 C153.858682,261.817987 144.710375,256.618472 141.875765,247.928946 C139.669248,241.145544 141.69553,234.132753 146.359801,229.550407 L142.826097,215.5139 L137.369883,206.742449 C135.906154,204.388467 133.317319,202.99574 130.542788,203.001201 C130.526403,203.001201 130.51548,203.001201 130.499095,203.001201 C125.720128,203.001201 121.044934,202.526036 116.522667,201.635782 C113.83006,201.100538 111.050068,201.95256 109.160328,203.946071 L101.950916,211.554185 L93.8785591,228.299683 C95.7682989,232.139241 95.9376108,236.776204 93.9386375,240.932539 C90.3448549,248.382265 81.1801631,251.342493 73.856056,247.22439 C67.5860522,243.690685 64.8715994,235.891412 67.6024373,229.228168 C69.4648687,224.684054 73.3262734,221.647362 77.695614,220.63149 L85.8171258,203.776759 L87.4119351,192.465629 C87.7014039,190.379269 86.9039992,188.276524 85.2654965,186.954798 C78.8043341,181.711589 73.266195,175.381507 68.9350861,168.237635 C67.859136,166.462591 65.9257028,165.386641 63.8502661,165.370256 L52.5555207,165.261022 L40.1902869,169.149735 C39.3218804,176.839775 34.0568251,183.672331 26.2029354,186.141008 C15.6509779,189.461707 4.4108493,183.661408 0.986378633,173.17499 C-2.43809204,162.694035 3.34582254,151.229977 13.8158549,147.767275 C21.1454237,145.342291 28.8463864,147.357649 34.0568251,152.311389 L47.1812318,148.182362 L56.7664727,141.349806 C58.19197,140.339396 58.9511429,138.646276 58.8091394,136.909464 C58.6507508,134.981492 58.5688256,133.037135 58.5688256,131.070932 C58.5688256,120.387894 60.9173462,110.245563 65.1119131,101.124564 C65.7236208,99.7864537 65.7072358,98.2462612 65.0627581,96.9245357 L62.2226867,91.1187744 L54.5162623,85.3020897 C50.2015385,86.6838937 45.3133387,86.0230309 41.4246256,83.0901111 C34.8269213,78.1090628 33.7127395,68.556592 39.1744152,62.1828165 C43.876918,56.6938324 52.1185866,55.5687272 58.1209682,59.5994438 C61.9441412,62.1664314 64.1178882,66.1862248 64.4674354,70.3807917 L73.0094962,76.825569 L81.6170971,78.3602999 C87.8816392,72.5436153 95.1838996,67.8301891 103.207101,64.5258753 L105.227921,52.2480283 L102.677319,39.5660173 C95.1292828,37.6216608 89.0012827,31.8377462 87.3518566,24.1258601 C85.0251828,13.2298171 92.5131402,2.61778117 104.080969,0.427649208 C115.643337,-1.76248275 126.905312,5.28854059 129.231986,16.1845836 C130.974261,24.3388655 127.222089,32.329297 120.373148,36.7532544 L122.781747,48.7143242 L128.696742,58.1520998 C129.084521,58.7692691 129.761769,59.1406631 130.488171,59.1406631 L130.499095,59.1406631 C144.044051,59.1406631 156.726062,62.9092193 167.556564,69.4523068 C168.151887,69.8073158 168.883752,69.8564708 169.511844,69.5615403 L178.774846,65.2686632 L189.588964,53.5697539 C188.939025,49.3751869 190.135132,44.9293829 193.242825,41.5704523 C198.857428,35.5025306 208.469977,35.3496037 214.270277,41.4175254 C219.355097,46.7426592 219.551717,55.235565 214.723596,60.7955508 C211.599517,64.3947951 207.115482,66.0551445 202.735218,65.727444 L191.9211,77.4263534 L188.409242,86.8750523 C188.163467,87.5304534 188.2727,88.262318 188.682326,88.8303322 C192.947895,94.6852486 196.350519,101.206489 198.699039,108.208358 C199.348979,110.130868 200.878248,111.627367 202.833528,112.178996 L211.626826,114.642212 L223.052651,113.631802 C225.854491,105.553983 232.850898,99.4423682 241.442113,98.5794234 C253.255718,97.3942398 263.616517,106.575317 264.577772,119.082554 Z" id="Path" fill="url(#radialGradient-10)" filter="url(#filter-11)"></path>
                        <circle id="Oval" fill="#9C1D1D" filter="url(#filter-12)" cx="130.499095" cy="131.070932" r="53.2622615"></circle>
                    </g>
                </g>
            </g>
            <g id="Group-2" mask="url(#mask-3)">
                <g transform="translate(-831.000000, -650.000000)">
                    <path d="M5788.37054,387.580039 L5629.04142,3647.27044 L392.693712,3754.5248 C153.929953,4114.79538 167.294704,4079.46804 432.787966,3648.54277 C615.203949,3352.46123 1150.23679,3443.30094 1529.58856,3035.20907 C1749.06748,2799.10219 2276.08418,2927.36267 2541.53784,2597.0674 C2795.26235,2281.36634 3199.05391,2497.68644 3417.04785,2194.08917 C3635.0418,1890.49191 4602.08551,1563.2044 4769.64979,1442.0416 C5214.66524,1120.25873 5326.06894,565.033393 5693.15411,502.923075 C6121.56611,430.43634 6153.30492,391.988662 5788.37054,387.580039 Z" id="Triangle-Copy-2" fill="url(#radialGradient-13)" fill-rule="evenodd" transform="translate(3131.642488, 2194.089173) rotate(-8.000000) translate(-3131.642488, -2194.089173) "></path>
                    <g id="Triangle-Copy" fill="none" transform="translate(3408.620767, 2404.109930) rotate(-8.000000) translate(-3408.620767, -2404.109930) ">
                        <use fill="black" fill-opacity="1" filter="url(#filter-16)" xlink:href="#path-15"></use>
                        <use fill="url(#radialGradient-14)" fill-rule="evenodd" xlink:href="#path-15"></use>
                    </g>
                    <g id="Triangle" fill="none">
                        <use fill="black" fill-opacity="1" filter="url(#filter-19)" xlink:href="#path-18"></use>
                        <use fill="url(#radialGradient-17)" fill-rule="evenodd" xlink:href="#path-18"></use>
                    </g>
                </g>
            </g>
            <g id="Virus" transform="translate(335.000000, 116.197635)">
                <g id="XMLID_107_" fill="url(#radialGradient-20)">
                    <path d="M1736.50297,781.574381 C1742.84782,863.663117 1685.09893,936.539274 1607.56271,944.317988 C1548.20073,950.268525 1494.5025,916.321786 1469.69665,863.304651 L1399.32976,869.506114 L1346.20508,895.13644 C1334.05308,900.979437 1325.88005,912.593739 1324.01603,925.928677 C1318.9975,961.882827 1309.89247,996.510652 1297.23861,1029.41784 C1292.93702,1040.56613 1293.6898,1053.00491 1299.5328,1063.40042 L1318.45981,1097.23962 L1371.08263,1132.54853 C1398.8279,1121.93794 1431.1257,1124.48305 1457.68804,1142.29881 C1502.71138,1172.5175 1513.50121,1234.71137 1480.02047,1278.48008 C1451.1998,1316.19072 1397.60912,1326.55039 1356.81568,1302.31808 C1330.82689,1286.90404 1315.12607,1261.30956 1311.29048,1233.95859 L1252.96805,1194.84994 L1216.26112,1190.36912 C1203.64312,1188.82771 1191.0968,1193.16515 1181.92007,1201.94757 C1150.9486,1231.44933 1115.96231,1256.79288 1077.92906,1277.08206 C1065.13182,1283.89292 1056.92294,1296.97693 1056.02678,1311.42312 L1051.36672,1385.76898 L1074.45193,1477.35707 C1113.73982,1488.32613 1146.21685,1519.47684 1156.89914,1561.84753 C1173.03011,1625.90542 1133.24037,1690.89532 1068.35801,1705.34151 C1009.8205,1718.38967 949.777427,1684.2637 931.173036,1627.23175 C916.691006,1582.71026 929.990098,1536.68321 960.603103,1506.6079 L937.410346,1414.48212 L901.599584,1356.91246 C891.992692,1341.46257 875.001399,1332.32169 856.791322,1332.35754 C856.683782,1332.35754 856.612089,1332.35754 856.504549,1332.35754 C825.138766,1332.35754 794.454068,1329.23888 764.773075,1323.39588 C747.100697,1319.88292 728.854772,1325.47499 716.451846,1338.559 L669.134321,1388.49333 L616.153032,1498.39903 C628.555959,1523.5992 629.667204,1554.03297 616.547345,1581.31224 C592.960276,1630.20701 532.809665,1649.63588 484.739362,1622.60753 C443.587454,1599.41478 425.771689,1548.22582 443.694994,1504.49295 C455.918688,1474.66858 481.262241,1454.73786 509.939528,1448.07039 L563.243436,1337.44775 L573.710646,1263.20943 C575.610517,1249.51602 570.376912,1235.71508 559.622929,1227.0402 C517.21639,1192.62745 480.867928,1151.08123 452.441567,1104.19387 C445.379784,1092.54372 432.690085,1085.48194 419.068373,1085.3744 L344.937585,1084.65746 L263.780861,1110.18025 C258.08125,1160.65228 223.525118,1205.49638 171.977694,1221.69905 C102.722044,1243.49379 28.9497218,1205.42469 6.47389768,1136.5992 C-16.0019265,1067.80956 21.959633,992.567525 90.6775834,969.840774 C138.783733,953.924879 189.327453,967.152278 223.525118,999.665153 L309.664521,972.565116 L372.575321,927.721008 C381.931286,921.089385 386.913964,909.976936 385.981952,898.577714 C384.942401,885.923861 384.404702,873.162468 384.404702,860.257689 C384.404702,790.141721 399.818744,723.574567 427.34894,663.710729 C431.36376,654.92831 431.25622,644.819566 427.02632,636.144686 L408.386083,598.03974 L357.806517,559.863101 C329.487696,568.932293 297.40498,564.594854 271.882194,545.345224 C228.57949,512.653116 221.266782,449.957396 257.113391,408.124403 C287.977322,372.098561 342.069856,364.714159 381.46528,391.168957 C406.557906,408.016863 420.824857,434.399968 423.11904,461.930164 L479.183137,504.229163 L535.677394,514.302061 C576.793455,476.125421 624.720372,445.189797 677.379041,423.502599 L690.642287,342.91942 L673.90192,259.683593 C624.361906,246.9222 584.14201,208.960641 573.316334,158.345228 C558.045678,86.8312422 607.19138,17.1812799 683.114499,2.80678952 C759.001771,-11.5677009 832.91748,34.710272 848.188135,106.224258 C859.623204,159.743246 834.996583,212.186836 790.044935,241.222589 L805.85329,319.726664 L844.675168,381.669605 C847.220277,385.720272 851.665257,388.157842 856.432856,388.157842 L856.504549,388.157842 C945.40414,388.157842 1028.63997,412.892002 1099.72379,455.83624 C1103.63107,458.16627 1108.43452,458.48889 1112.55688,456.553173 L1173.35273,428.377738 L1244.32902,351.5943 C1240.06327,324.064104 1247.91368,294.884964 1268.3104,272.839299 C1305.16071,233.013716 1368.25075,232.010011 1406.31985,271.835594 C1439.69304,306.786038 1440.98352,362.527516 1409.29511,399.019364 C1388.79085,422.64228 1359.36079,433.539649 1330.61181,431.388853 L1259.63552,508.17229 L1236.58615,570.186925 C1234.97305,574.488518 1235.68998,579.291964 1238.37848,583.020011 C1266.37468,621.447576 1288.70712,664.248428 1304.12116,710.203781 C1308.38691,722.821788 1318.42396,732.643759 1331.25705,736.264267 L1388.97009,752.431087 L1463.96119,745.799465 C1482.3505,692.782329 1528.27001,652.669973 1584.65673,647.006209 C1662.19294,639.227495 1730.19396,699.485645 1736.50297,781.574381 Z" id="Path"></path>
                </g>
                <g id="XMLID_8_" transform="translate(506.854852, 510.439513)">
                    <g id="Oval">
                        <use fill="#9C1D1D" fill-rule="evenodd" xlink:href="#path-21"></use>
                        <use fill="black" fill-opacity="1" filter="url(#filter-22)" xlink:href="#path-21"></use>
                    </g>
                </g>
                <path d="M613.478875,860.257689 C613.478875,685.301142 741.996139,540.369715 909.77978,514.714297 C892.408513,512.058063 874.617841,510.681553 856.504549,510.681553 C663.43471,510.681553 506.928413,667.18785 506.928413,860.257689 C506.928413,1053.32753 663.43471,1209.83382 856.504549,1209.83382 C874.617841,1209.83382 892.408513,1208.45731 909.77978,1205.80108 C741.999724,1180.14208 613.478875,1035.21065 613.478875,860.257689 Z" id="Path" fill-opacity="0.5" fill="#F03434"></path>
                <g id="Group" transform="translate(168.479065, 25.092627)" fill="#FA6161">
                    <circle id="Oval" cx="99.8435614" cy="100.087318" r="99.5496193"></circle>
                    <circle id="Oval" cx="72.6324002" cy="1412.30623" r="65.7534358"></circle>
                    <circle id="Oval" cx="1279.90678" cy="1520.31923" r="96.8503696"></circle>
                    <circle id="Oval" cx="580.722243" cy="738.759191" r="90.2940247"></circle>
                    <circle id="Oval" cx="653.204088" cy="1019.21948" r="61.459012"></circle>
                    <circle id="Oval" cx="846.187895" cy="835.165062" r="51.6083637"></circle>
                </g>
            </g>
        </g>
    </g>
</svg>