<?xml version="1.0" encoding="UTF-8"?>
<svg width="49px" height="49px" viewBox="0 0 49 49" version="1.1" xmlns="http://www.w3.org/2000/svg" xmlns:xlink="http://www.w3.org/1999/xlink">
    <!-- Generator: Sketch 52.6 (67491) - http://www.bohemiancoding.com/sketch -->
    <title>×</title>
    <desc>Created with Sketch.</desc>
    <g id="Page-1" stroke="none" stroke-width="1" fill="none" fill-rule="evenodd">
        <path d="M48.68,39.832 C48.68,40.408 48.392,40.984 47.72,41.656 L42.056,47.32 C41.384,47.992 40.808,48.28 40.328,48.28 C39.848,48.28 39.272,47.992 38.504,47.32 L25.736,34.552 C25.352,34.168 24.968,33.976 24.68,33.976 C24.392,33.976 24.008,34.168 23.624,34.552 L10.952,47.32 C10.28,47.992 9.704,48.28 9.224,48.28 C8.744,48.28 8.168,47.992 7.4,47.32 L1.64,41.656 C0.968,41.08 0.68,40.504 0.68,39.832 C0.68,39.16 0.968,38.584 1.64,38.008 L14.408,25.336 C14.792,24.952 14.984,24.568 14.984,24.28 C14.984,23.992 14.792,23.608 14.408,23.224 L1.64,10.552 C0.968,9.976 0.68,9.4 0.68,8.728 C0.68,8.056 0.968,7.48 1.64,6.904 L7.4,1.24 C8.072,0.568 8.648,0.28 9.224,0.28 C9.8,0.28 10.376,0.568 10.952,1.24 L23.624,14.008 C24.008,14.392 24.392,14.584 24.68,14.584 C24.968,14.584 25.352,14.392 25.736,14.008 L38.504,1.24 C39.176,0.568 39.752,0.28 40.328,0.28 C40.904,0.28 41.48,0.568 42.056,1.24 L47.72,6.904 C48.392,7.576 48.68,8.152 48.68,8.728 C48.68,9.304 48.392,9.88 47.72,10.552 L35.048,23.224 C34.568,23.704 34.376,23.992 34.376,24.28 C34.376,24.568 34.952,25.24 35.048,25.336 L47.72,38.008 C48.392,38.68 48.68,39.256 48.68,39.832 Z" id="×" fill="#4272CB"></path>
    </g>
</svg>