<?xml version="1.0" encoding="utf-8"?>
<!-- Generator: Adobe Illustrator 21.1.0, SVG Export Plug-In . SVG Version: 6.00 Build 0)  -->
<svg version="1.1" id="digitalheat-imprint" xmlns="http://www.w3.org/2000/svg" xmlns:xlink="http://www.w3.org/1999/xlink"
	 x="0px" y="0px" viewBox="0 0 1107.7 1421" style="enable-background:new 0 0 1107.7 1421;" xml:space="preserve">
<style type="text/css">
	.st0{fill:#5B85D1;}
	.st1{fill:url(#SVGID_1_);}
	.st2{fill:#3B4E61;}
	.st3{fill:url(#SVGID_2_);}
</style>
<title>Digital Heat Imprint</title>
<path class="st0" d="M659.6,841L840,1148c-12.4,68.2,82.3,160.2,23,195.4c-130.4,77.6-57,30.7-130.4,77.6h-0.2
	c-89.9-154.6-177.8-309.6-267.8-464.2l-1-1.8L659.6,841z"/>
<linearGradient id="SVGID_1_" gradientUnits="userSpaceOnUse" x1="307.7787" y1="-0.4568" x2="307.7787" y2="0.5432" gradientTransform="matrix(448.1643 0 0 1361.7788 -137067.0312 681.2437)">
	<stop  offset="0" style="stop-color:#3B4E61"/>
	<stop  offset="0.5" style="stop-color:#455C72"/>
	<stop  offset="1" style="stop-color:#3B4E61"/>
</linearGradient>
<path class="st1" d="M1031.3,504.7c19.7,33.2,56.4,109.4,68.3,148.3c11.8,38.3,8.6,78.8,3.9,118c-5.4,44.6-14.4,88.7-23.4,132.7
	l-32.7,175.5c-10.8,52.9-17.7,115.1-46.8,161.8c-25.4,40.6-68.6,61.3-110,86l-158,94l79-445c7.7-42.6,14.7-85.4,23-127.8
	c8-41.1,14.8-86.8,3.6-127.9c-14.8-54.3-43.6-99.5-72.2-147.2c-32-53.6-63.9-107.2-95.5-161.1L629,347
	c27.7-111.3,55.2-188.3,113.6-287c0.2-0.3,0.5-0.7,0.5-0.7c3.3-2.3,26.8,31.2,26.8,31.2c39.1,49.6,160.3,239,167.7,252.7
	L1031.3,504.7z"/>
<path class="st0" d="M743.2,59.3c-22,98-0.7,0.7-22.7,98.7c-25.3,102-51.7,205-77,307c-0.7-0.3-1.2-1.1-1.2-1.9
	C534.1,528.7,516,505,430,367c-6.6-11.1,73.8-138,70-146.2C580.1,167.8,663.2,112.3,743.2,59.3z"/>
<path class="st2" d="M373.6,0l201,345c11,18.4,65.6,112,69,120c-65.3,38-132.1,76.8-197.4,114.8l-1.6-2.8l-133-229L243.3,74.5
	L373.6,0z"/>
<linearGradient id="SVGID_2_" gradientUnits="userSpaceOnUse" x1="307.9297" y1="-0.457" x2="307.9297" y2="0.543" gradientTransform="matrix(447.5816 0 0 1361 -137547.1406 622)">
	<stop  offset="0" style="stop-color:#5B85D1"/>
	<stop  offset="0.5" style="stop-color:#4272CB"/>
	<stop  offset="1" style="stop-color:#5B85D1"/>
</linearGradient>
<path class="st3" d="M373.6,0l-27,157l-59,330l-17,96c-5.1,23.7-13.2,57.1-8,89c11,67.7,37.3,107.1,66,155l58,101
	c16.7,26.7,33.5,52.8,50,81l47.6,75c85.4,141.3,85.4,141.3,33.5,175.4c-50.7,33.3-93.9,61.6-155,101.6c-8.2,0-18.7-17.6-22.9-23.7
	c-7.7-11.1-16-25.1-22.4-36.9c-12.8-23.7-25.2-44.5-39.1-67.6c-22.3-37.2-44.3-74.6-66.7-111.8l-139-235
	c-21.9-36.6-52.1-75.1-65-118c-13.1-43.6-7-113.1,2-155l52-266c12.4-57.7,16.2-118.2,42-162c36.7-62.2,152.2-115.3,217-154L373.6,0z
	"/>
<path class="st2" d="M463.6,955c26.3,44.7,52.7,90.5,78.8,136.2c21.2,37,42.3,74,63.3,110.3l-1.2,0.8
	c-80.7,53-161.3,105.9-241.9,158.7C395.9,1226.3,430.2,1089.7,463.6,955z"/>
</svg>
