<svg xmlns="http://www.w3.org/2000/svg" viewBox="0 0 7.26 6.26"><defs><style>.cls-1{fill-rule:evenodd;}</style></defs><title>Vimeo1</title><g id="Calque_2" data-name="Calque 2"><g id="Calque_1-2" data-name="Calque 1"><path class="cls-1" d="M7.23,1.16A1,1,0,0,0,7.09.31,1.32,1.32,0,0,0,5.89,0,2.52,2.52,0,0,0,4.17,1.65c.63,0,1,0,.9.74a2.56,2.56,0,0,1-.34.92c-.19.35-.55,1-1,.55S3.34,2.54,3.24,2A7.9,7.9,0,0,0,3,.92a1.08,1.08,0,0,0-.55-.7,1.13,1.13,0,0,0-.81.16A14.61,14.61,0,0,0,0,1.72c.09.19.14.31.3.34.38.06.74-.35,1,.07a4.35,4.35,0,0,1,.3.82c.13.37.23.77.34,1.2.18.72.4,1.8,1,2.07A1.35,1.35,0,0,0,4,6,5.8,5.8,0,0,0,5.59,4.5,10.37,10.37,0,0,0,7.23,1.16Zm0,0"/></g></g></svg>