<svg id="no_slogan_01" data-name="no slogan_01" xmlns="http://www.w3.org/2000/svg" viewBox="0 0 615.28 117.52"><defs><style>.cls-1{fill:#9c9e9f;}</style></defs><title>logo-instynct</title><path class="cls-1" d="M272.57,256H261.69a1.74,1.74,0,0,0-1.9,1.89v80.41a1.74,1.74,0,0,0,1.9,1.89h10.87a1.74,1.74,0,0,0,1.89-1.89V257.87A1.74,1.74,0,0,0,272.57,256Z" transform="translate(-113.3 -239.32)"/><path class="cls-1" d="M340.58,256H329.71a1.74,1.74,0,0,0-1.9,1.89v44.38c0,1.15-.66,1.26-1.06.22l-15.94-45.06a2.14,2.14,0,0,0-2.09-1.43H296.53a1.74,1.74,0,0,0-1.89,1.89v80.41a1.74,1.74,0,0,0,1.89,1.89h10.88a1.74,1.74,0,0,0,1.89-1.89V293.91c0-1.15.66-1.25,1.06-.21l15.94,45a2.12,2.12,0,0,0,2.09,1.42h12.19a1.74,1.74,0,0,0,1.89-1.89V257.87A1.74,1.74,0,0,0,340.58,256Z" transform="translate(-113.3 -239.32)"/><path class="cls-1" d="M399,256.85a2.76,2.76,0,0,0-2.12-.87H370.69a2.78,2.78,0,0,0-2.13.87l-5.26,5.28a2.74,2.74,0,0,0-.88,2.12v32a2.72,2.72,0,0,0,.88,2.12l5.26,5.27a2.79,2.79,0,0,0,2.13.87h17.25a2,2,0,0,1,1.61.67l.11.11a2.05,2.05,0,0,1,.66,1.61v16.71a2,2,0,0,1-.67,1.61l-.1.11a2,2,0,0,1-1.61.67h-8.47a2.06,2.06,0,0,1-1.61-.66l-.12-.12a2.06,2.06,0,0,1-.66-1.61v-6.27a1.74,1.74,0,0,0-1.9-1.9H364.32a1.74,1.74,0,0,0-1.9,1.9v14.61a2.75,2.75,0,0,0,.88,2.12l5.26,5.26a2.77,2.77,0,0,0,2.13.87h26.15a2.75,2.75,0,0,0,2.12-.87l5.27-5.26a2.75,2.75,0,0,0,.88-2.12V298.53a2.75,2.75,0,0,0-.88-2.12L399,291.12a2.76,2.76,0,0,0-2.12-.87H379.47a2.05,2.05,0,0,1-1.61-.64l-.12-.13a2.06,2.06,0,0,1-.66-1.61V272.71a2.07,2.07,0,0,1,.66-1.62l.11-.11a2.06,2.06,0,0,1,1.62-.66h8.47a2,2,0,0,1,1.61.66l.12.11a2,2,0,0,1,.66,1.62v6.15a1.74,1.74,0,0,0,1.9,1.89h11a1.74,1.74,0,0,0,1.9-1.89V264.25a2.74,2.74,0,0,0-.88-2.12Z" transform="translate(-113.3 -239.32)"/><path class="cls-1" d="M466.42,256h-41a1.74,1.74,0,0,0-1.89,1.89v10.44a1.74,1.74,0,0,0,1.89,1.9h12a1,1,0,0,1,1.18,1.17v66.9a1.73,1.73,0,0,0,1.89,1.89h10.88a1.74,1.74,0,0,0,1.9-1.89v-66.9a1,1,0,0,1,1.18-1.17h12a1.74,1.74,0,0,0,1.89-1.9V257.87A1.74,1.74,0,0,0,466.42,256Z" transform="translate(-113.3 -239.32)"/><path class="cls-1" d="M535.83,256h-12a2.12,2.12,0,0,0-2.1,1.57l-9.45,30.54c-.19.61-.46.82-.65.82s-.46-.21-.65-.82l-9.46-30.55a2.1,2.1,0,0,0-2.09-1.55h-12a1.73,1.73,0,0,0-1.49.64,1.63,1.63,0,0,0-.05,1.59L504.08,310a4.76,4.76,0,0,1,.31,1.74v26.58a1.74,1.74,0,0,0,1.89,1.89H517a1.74,1.74,0,0,0,1.89-1.89V311.7a4.66,4.66,0,0,1,.32-1.74l18.12-51.73a1.64,1.64,0,0,0-.06-1.6A1.74,1.74,0,0,0,535.83,256Z" transform="translate(-113.3 -239.32)"/><path class="cls-1" d="M600.8,256H589.92a1.74,1.74,0,0,0-1.9,1.89v44.38c0,1.15-.65,1.26-1.06.22L571,257.4a2.17,2.17,0,0,0-2.09-1.42h-12.2a1.74,1.74,0,0,0-1.89,1.89v80.41a1.74,1.74,0,0,0,1.89,1.89h10.87a1.74,1.74,0,0,0,1.91-1.89V293.91c0-1.16.65-1.24,1.05-.21l16,45a2.1,2.1,0,0,0,2.07,1.42h12.2a1.74,1.74,0,0,0,1.89-1.89V257.87A1.74,1.74,0,0,0,600.8,256Z" transform="translate(-113.3 -239.32)"/><path class="cls-1" d="M659.32,256.85a2.77,2.77,0,0,0-2.12-.87H631.28a2.79,2.79,0,0,0-2.13.87l-5.26,5.28a2.72,2.72,0,0,0-.88,2.12v67.67a2.72,2.72,0,0,0,.88,2.12l5.27,5.27a2.77,2.77,0,0,0,2.13.87h25.91a2.77,2.77,0,0,0,2.13-.87l5.26-5.26a2.75,2.75,0,0,0,.87-2.12V317.31a1.74,1.74,0,0,0-1.88-1.9H652.68a1.74,1.74,0,0,0-1.9,1.9v6.15a2.06,2.06,0,0,1-.65,1.62l-.11.11a2.06,2.06,0,0,1-1.62.67h-8.35a2.06,2.06,0,0,1-1.62-.68l-.1-.08a2.1,2.1,0,0,1-.67-1.63V272.71a2.07,2.07,0,0,1,.66-1.62l.11-.11a2,2,0,0,1,1.62-.66h8.35A2.05,2.05,0,0,1,650,271l.11.12a2,2,0,0,1,.65,1.62v6.15a1.74,1.74,0,0,0,1.9,1.89h10.88a1.74,1.74,0,0,0,1.88-1.89V264.25a2.75,2.75,0,0,0-.87-2.12Z" transform="translate(-113.3 -239.32)"/><path class="cls-1" d="M726.68,256h-41a1.73,1.73,0,0,0-1.88,1.89v10.44a1.74,1.74,0,0,0,1.88,1.9h12a1,1,0,0,1,1.19,1.17v66.9a1.74,1.74,0,0,0,1.89,1.89h10.88a1.74,1.74,0,0,0,1.9-1.89v-66.9a1,1,0,0,1,1.18-1.17h12a1.75,1.75,0,0,0,1.9-1.9V257.87A1.74,1.74,0,0,0,726.68,256Z" transform="translate(-113.3 -239.32)"/><path class="cls-1" d="M226.18,239.32H114.3a1,1,0,0,0-1,1v83.34a1,1,0,0,0,.5.86l55.95,32.19a1,1,0,0,0,.49.13,1.06,1.06,0,0,0,.5-.13l55.94-32.19a1,1,0,0,0,.5-.86V240.32A1,1,0,0,0,226.18,239.32Zm-3.38,4.38v78l-52.56,30.24-52.56-30.23v-78Z" transform="translate(-113.3 -239.32)"/><path class="cls-1" d="M130.06,301.82h14.63l-10.07,15.33a.75.75,0,0,0,.62,1.16H151.4a.74.74,0,0,0,.74-.74v-3a.75.75,0,0,0-.74-.75h-9.15l10.07-15.32a.75.75,0,0,0-.62-1.17H137.15l14-20.91a.79.79,0,0,0,0-.82l-8.3-13.35,25.11,16V331.8l-5.77-3.32,3-42.33a.73.73,0,0,0-.19-.55.8.8,0,0,0-.54-.26l-13.71-.27,6.32,4.27,3.2,1.86-2.81,39.28a.76.76,0,0,0,.37.71L169.7,338l0,.61.53-.31.54.29V338l11.82-6.81a.76.76,0,0,0,.35-.7l-2.81-39.28,3.25-1.89,6.27-4.24-13.74.28a.74.74,0,0,0-.51.25.75.75,0,0,0-.19.55l3,42.32-5.77,3.33V278.2l25.09-16-8.31,13.39a.8.8,0,0,0,0,.78l14,20.9H188.78a.77.77,0,0,0-.67.41.75.75,0,0,0,0,.75l10.07,15.33h-9.14a.75.75,0,0,0-.75.75v3a.75.75,0,0,0,.75.74h16.15a.73.73,0,0,0,.66-.39.75.75,0,0,0,0-.77l-10.06-15.33h14.62a.77.77,0,0,0,.68-.42.74.74,0,0,0-.05-.74L202,287.17,207.53,252a.78.78,0,0,0-.17-.64.8.8,0,0,0-1-.1l-36.14,23-12.06-7.68-24.07-15.33a.78.78,0,0,0-1,.1.76.76,0,0,0-.16.64l5.54,35.14-9.05,13.51a.77.77,0,0,0,0,.8A.75.75,0,0,0,130.06,301.82Zm12.14-20.2-2.51-16L146,275.9Zm56.08,0-3.84-5.72,6.35-10.23Z" transform="translate(-113.3 -239.32)"/></svg>