<svg viewBox="0 0 4416 3408" xmlns="http://www.w3.org/2000/svg" xmlns:xlink="http://www.w3.org/1999/xlink">
  <defs>
    <path id="a" d="M0 0h4416v3408H0z"/>
  </defs>
  <g fill="none" fill-rule="evenodd">
    <mask id="b" fill="#fff">
      <use xlink:href="#a"/>
    </mask>
    <use fill="#0A83FF" xlink:href="#a"/>
    <g mask="url(#b)">
      <g fill="#36395A" opacity=".40025112">
        <g opacity=".25">
          <path d="M1385.140557 1353.92159h-694.10034v241.25246h694.10034c404.06334 0 732.8047 379.120913 732.8047 845.131173 0 466.01328-328.74136 845.18242-732.8047 845.18242l-1368.542417-.05124c-27.525787 0-49.967384-22.42393-49.967384-49.94216V1358.539612c-136.835847 23.747243-241.345179 143.053177-241.345179 286.576597v1590.378034c0 160.58177 130.669082 291.19462 291.312563 291.19462l1368.542417.04823c537.13279 0 974.14988-487.35505 974.14988-1086.43187 0-599.025569-437.01709-1086.383633-974.14988-1086.383633"/>
          <path d="M1433.410197 871.419683h-934.1217c-160.643481 0-291.312563 130.612853-291.312563 291.19462v1882.89596h241.345179v-1882.89596c0-27.515212 22.438582-49.94216 49.967384-49.94216h934.1217c639.18748 0 1159.20712 595.586172 1159.20712 1327.6361 0 732.04691-520.01964 1327.63308-1159.20712 1327.63308h-528.17666v.05125H212.595731c23.804618 136.7893 143.156404 241.20121 286.692766 241.20121h934.1217c772.25391 0 1400.54928-703.82031 1400.54928-1568.88554 0-865.065238-628.29537-1568.88856-1400.54928-1568.88856"/>
        </g>
        <path d="M529.234713 890.496419V612.4357302c0-2.1937837.856934-4.14759294 2.570827-5.86148642 1.713894-1.71389349 3.667703-2.57082738 5.861487-2.57082738h75.890824c12.06581 0 23.480169 2.33086018 34.24342 6.9926505 10.763251 4.6617902 20.155247 11.003101 28.176268 19.0241225 8.021022 8.0210215 14.362332 17.4130169 19.024123 28.176268 4.66179 10.7632511 6.99265 22.1776105 6.99265 34.2434206 0 12.340033-2.33086 23.857225-6.99265 34.55192-4.661791 10.694695-11.003101 20.052413-19.024123 28.073435-8.021021 8.021021-17.413017 14.362332-28.176268 19.024122-10.763251 4.661791-22.17761 6.992651-34.24342 6.992651h-40.104907c-2.74223 0-4.113324 1.371094-4.113324 4.113324v105.301089c0 2.193783-.856934 4.147593-2.570828 5.861486-1.713893 1.713894-3.667702 2.570828-5.861486 2.570828h-23.240279c-2.193784 0-4.147593-.856934-5.861487-2.570828-1.713893-1.713893-2.570827-3.667703-2.570827-5.861486zm40.104907-153.632644c0 2.74223 1.371094 4.113324 4.113324 4.113324h40.104907c6.718462 0 12.956941-1.268262 18.715623-3.804825 5.758682-2.536562 10.866008-6.032852 15.322131-10.488975s7.952413-9.563449 10.488976-15.322132c2.536562-5.758682 3.804824-12.0657151 3.804824-18.921289 0-6.7184625-1.268262-12.9569412-3.804824-18.7156233-2.536563-5.7586821-6.032853-10.866008-10.488976-15.3221311-4.456123-4.4561231-9.563449-7.9524133-15.322131-10.4889757-5.758682-2.5365623-11.997161-3.8048245-18.715623-3.8048245h-40.104907c-2.74223 0-4.113324 1.3710942-4.113324 4.1133238v88.6421278zm138.207679 155.277973c0-.548446.068555-1.096883.205667-1.645329l78.358821-280.1173507c.82267-4.25045585 3.4963-6.3756519 8.02098-6.3756519h29.41026c4.52468 0 7.19832 2.12519605 8.02098 6.3756519l78.35882 280.1173507c.13711.548446.20567 1.096883.20567 1.645329 0 1.234004-.47988 2.536543-1.43966 3.907658-1.37112 1.919561-3.77053 2.879327-7.19832 2.879327h-23.03461c-3.97624 0-6.64987-2.125197-8.02099-6.375652l-18.50995-64.373518c-.82267-3.976233-3.49631-5.964319-8.02098-5.964319h-69.92651c-3.97623 0-6.64986 1.988086-8.02098 5.964319l-18.50996 64.373518c-1.37111 4.250455-4.04475 6.375652-8.02098 6.375652h-23.240278c-3.427787 0-5.827202-.959766-7.198316-2.879327-.959781-1.371115-1.439664-2.673654-1.439664-3.907658zm71.571838-111.882407c0 1.919561 1.23398 2.879327 3.70199 2.879327h52.23921c2.46801 0 3.70199-.959766 3.70199-2.879327 0-.548446-.13711-1.165438-.41133-1.850996l-27.3536-117.435394c-.54845-1.6453378-1.09689-2.4679943-1.64533-2.4679943h-.82267c-.82267 0-1.43966.8226565-1.85099 2.4679943l-27.35361 117.435394c-.13711.685558-.20566 1.30255-.20566 1.850996zm144.99466 34.346254v-6.581318c0-2.193784.85693-4.147593 2.57083-5.861487 1.71389-1.713893 3.6677-2.570827 5.86148-2.570827h23.65162c2.19378 0 4.14759.822656 5.86148 2.467994 1.7139 1.645338 2.57083 3.633425 2.57083 5.96432v6.581318c0 6.718462 1.33682 13.059773 4.01049 19.024122 2.67367 5.96435 6.47846 11.037398 11.41447 15.219298 4.93602 4.1819 10.69461 7.472527 17.27596 9.871977 6.58135 2.399451 13.7796 3.599159 21.59495 3.599159 7.81536 0 15.04788-1.199708 21.69779-3.599159 6.6499-2.39945 12.44278-5.758631 17.37879-10.077643 4.93601-4.319011 8.70652-9.39206 11.31164-15.219298 2.60512-5.827238 3.90766-12.099994 3.90766-18.818456 0-9.872027-1.67959-17.721541-5.03882-23.548779-3.35924-5.827238-8.12379-10.660345-14.2938-14.499466-6.17002-3.839122-13.60821-6.855529-22.31479-9.049313-8.70657-2.193783-18.40707-4.593198-29.10176-7.198316-10.42047-2.193784-19.88102-5.48441-28.38194-9.871977-8.50091-4.387568-15.83626-9.871945-22.00628-16.453296-6.17001-6.581351-11.0374-14.36231-14.6023-23.343112-3.5649-8.980802-5.34732-19.2297314-5.34732-30.7470956 0-12.614256 2.46797-23.8229513 7.40398-33.626422 4.93602-9.8034707 11.48299-18.0985908 19.64113-24.885609 8.15813-6.7870182 17.41301-11.92862149 27.76493-15.42496419 10.35192-3.49634271 21.01218-5.24448784 31.98109-5.24448784 12.34004 0 23.78867 2.09091868 34.34626 6.27281879 10.55758 4.18190014 19.70964 9.87194114 27.45643 17.07029374 7.7468 7.1983526 13.77962 15.5620274 18.09863 25.0912752 4.31901 9.5292477 6.47848 19.778177 6.47848 30.7470953v5.5529872c0 2.1937836-.82265 4.1475929-2.46799 5.8614864-1.64534 1.7138934-3.63343 2.5708273-5.96432 2.5708273h-23.24028c-2.19378 0-4.11332-.8569339-5.75865-2.5708273-1.64534-1.7138935-2.468-3.6677028-2.468-5.8614864v-5.5529872c0-6.9926854-1.40537-12.9569452-4.21615-17.8929585-2.81079-4.9360132-6.47847-9.0150185-11.00315-12.2371383-4.52467-3.2221197-9.52917-5.5187025-15.01363-6.8898173-5.48446-1.3711148-10.90028-2.0566619-16.24763-2.0566619-13.71114 0-24.85128 3.4962902-33.42075 10.4889757-8.56947 6.9926854-12.85414 16.5217902-12.85414 28.5876003 0 9.3235806 2.02236 16.693212 6.06715 22.1091156 4.04479 5.415903 9.15212 9.769127 15.32213 13.059803 6.17002 3.290675 12.99121 5.758645 20.46379 7.403983 7.47258 1.645337 14.56799 3.290651 21.28645 4.935988 23.8574 5.895794 42.81278 15.870504 56.8667 29.924431 14.05393 14.053926 21.08079 33.146413 21.08079 57.278034 0 13.436925-2.67364 25.571108-8.02098 36.402915-5.34735 10.831807-12.37421 20.052416-21.08079 27.662103-8.70658 7.609687-18.8184 13.436837-30.33576 17.481626-11.51737 4.044789-23.30878 6.067153-35.37459 6.067153-13.43692 0-25.98243-2.296583-37.63691-6.889818-11.65447-4.593234-21.69774-10.900268-30.1301-18.921289-8.43235-8.021022-15.04788-17.310185-19.84678-27.867769-4.7989-10.557584-7.19832-21.869111-7.19832-33.934921zm214.7155 0v-6.581318c0-2.193784.85694-4.147593 2.57083-5.861487 1.71389-1.713893 3.6677-2.570827 5.86149-2.570827h23.65161c2.19378 0 4.14759.822656 5.86148 2.467994 1.7139 1.645338 2.57083 3.633425 2.57083 5.96432v6.581318c0 6.718462 1.33682 13.059773 4.01049 19.024122 2.67368 5.96435 6.47846 11.037398 11.41448 15.219298 4.93601 4.1819 10.6946 7.472527 17.27596 9.871977 6.58135 2.399451 13.77959 3.599159 21.59495 3.599159 7.81535 0 15.04787-1.199708 21.69778-3.599159 6.64991-2.39945 12.44278-5.758631 17.37879-10.077643 4.93602-4.319011 8.70652-9.39206 11.31164-15.219298 2.60512-5.827238 3.90766-12.099994 3.90766-18.818456 0-9.872027-1.67959-17.721541-5.03882-23.548779-3.35923-5.827238-8.12379-10.660345-14.2938-14.499466-6.17002-3.839122-13.6082-6.855529-22.31478-9.049313-8.70658-2.193783-18.40707-4.593198-29.10177-7.198316-10.42047-2.193784-19.88102-5.48441-28.38193-9.871977-8.50092-4.387568-15.83627-9.871945-22.00629-16.453296-6.17001-6.581351-11.0374-14.36231-14.6023-23.343112-3.56489-8.980802-5.34732-19.2297314-5.34732-30.7470956 0-12.614256 2.46797-23.8229513 7.40399-33.626422 4.93601-9.8034707 11.48298-18.0985908 19.64112-24.885609 8.15813-6.7870182 17.41302-11.92862149 27.76493-15.42496419 10.35192-3.49634271 21.01218-5.24448784 31.9811-5.24448784 12.34003 0 23.78867 2.09091868 34.34625 6.27281879 10.55758 4.18190014 19.70964 9.87194114 27.45644 17.07029374 7.74679 7.1983526 13.77961 15.5620274 18.09862 25.0912752 4.31901 9.5292477 6.47849 19.778177 6.47849 30.7470953v5.5529872c0 2.1937836-.82266 4.1475929-2.468 5.8614864-1.64534 1.7138934-3.63342 2.5708273-5.96432 2.5708273h-23.24028c-2.19378 0-4.11331-.8569339-5.75865-2.5708273-1.64534-1.7138935-2.468-3.6677028-2.468-5.8614864v-5.5529872c0-6.9926854-1.40537-12.9569452-4.21615-17.8929585-2.81079-4.9360132-6.47846-9.0150185-11.00314-12.2371383-4.52468-3.2221197-9.52918-5.5187025-15.01364-6.8898173-5.48445-1.3711148-10.90028-2.0566619-16.24762-2.0566619-13.71115 0-24.85129 3.4962902-33.42076 10.4889757-8.56947 6.9926854-12.85414 16.5217902-12.85414 28.5876003 0 9.3235806 2.02237 16.693212 6.06716 22.1091156 4.04478 5.415903 9.15211 9.769127 15.32213 13.059803 6.17001 3.290675 12.99121 5.758645 20.46378 7.403983 7.47258 1.645337 14.56799 3.290651 21.28645 4.935988 23.8574 5.895794 42.81278 15.870504 56.8667 29.924431 14.05393 14.053926 21.08079 33.146413 21.08079 57.278034 0 13.436925-2.67363 25.571108-8.02098 36.402915-5.34735 10.831807-12.37421 20.052416-21.08079 27.662103-8.70658 7.609687-18.8184 13.436837-30.33576 17.481626-11.51736 4.044789-23.30877 6.067153-35.37458 6.067153-13.43693 0-25.98244-2.296583-37.63692-6.889818-11.65447-4.593234-21.69774-10.900268-30.13009-18.921289-8.43236-8.021022-15.04789-17.310185-19.84679-27.867769-4.7989-10.557584-7.19832-21.869111-7.19832-33.934921zm229.52347 75.890824V612.4357302c0-2.1937837.85693-4.14759294 2.57083-5.86148642 1.71389-1.71389349 3.6677-2.57082738 5.86148-2.57082738h23.24028c2.19379 0 4.1476.85693389 5.86149 2.57082738 1.71389 1.71389348 2.57083 3.66770272 2.57083 5.86148642V890.496419c0 2.193783-.85694 4.147593-2.57083 5.861486-1.71389 1.713894-3.6677 2.570828-5.86149 2.570828h-23.24028c-2.19378 0-4.14759-.856934-5.86148-2.570828-1.7139-1.713893-2.57083-3.667703-2.57083-5.861486zm86.9968-105.095423c-.54845-11.10603-.82267-22.486112-.82267-34.140588 0-11.654475.27422-22.966003.82267-33.934921.54844-10.968918 1.43966-20.6351326 2.67366-28.9989328 1.37111-11.5173642 4.4218-22.5546727 9.15214-33.1122565 4.73035-10.5575839 11.10594-19.8810246 19.12696-27.9706019 8.02102-8.0895772 17.5844-14.53372 28.69043-19.33262179 11.10603-4.79890176 23.65155-7.19831664 37.63692-7.19831664 12.61425 0 24.33711 2.02236397 35.16891 6.0671526 10.83181 4.04478863 20.39519 9.87193903 28.69044 17.48162613 8.29524 7.6096871 15.11644 16.8302957 20.46378 27.6621025 5.34735 10.8318068 8.84364 22.9659907 10.48898 36.4029156 1.09689 8.3638002 1.85099 18.0985688 2.26233 29.2045988.41133 11.10603.617 22.417557.617 33.934921 0 11.517365-.27422 22.828892-.82267 33.934922-.54844 11.10603-1.23399 20.840799-2.05666 29.204599-1.37112 11.517364-4.45608 22.623227-9.25498 33.317922-4.7989 10.694696-11.17449 20.052414-19.12695 28.073435-7.95247 8.021022-17.55013 14.39661-28.79327 19.126956-11.24314 4.730346-23.78865 7.095484-37.63691 7.095484-12.61426 0-24.33712-2.022364-35.16892-6.067153-10.83181-4.044789-20.36091-9.871939-28.5876-17.481626-8.22669-7.609687-15.01361-16.796019-20.36096-27.55927-5.34734-10.763251-8.84363-22.931712-10.48897-36.505748-1.09689-8.3638-1.9881-18.098569-2.67366-29.204599zm40.10491-67.664177c-.54845 10.968919-.82267 22.211891-.82267 33.729255 0 11.517365.27422 22.760337.82267 33.729256.54844 10.968918 1.3711 20.772242 2.46799 29.410265.82267 6.170016 2.57081 12.134276 5.24449 17.892958 2.67367 5.758682 6.34135 10.831731 11.00314 15.219298 4.66179 4.387568 10.21472 7.918135 16.65896 10.591809 6.44424 2.673674 13.71104 4.010491 21.80062 4.010491 14.25959 0 26.39377-4.14756 36.40291-12.442805 10.00914-8.295244 16.17906-20.052377 18.50996-35.271751 1.09689-8.638023 1.9881-18.441347 2.67366-29.410265.68556-10.968919 1.02833-22.211891 1.02833-33.729256 0-11.517364-.34277-22.760336-1.02833-33.729255-.68556-10.968918-1.57677-20.7722416-2.67366-29.4102648-.82267-6.1700165-2.57082-12.1342764-5.24449-17.8929585s-6.34135-10.8317307-11.00314-15.219298c-4.66179-4.3875674-10.14617-7.8838576-16.4533-10.4889757-6.30712-2.6051181-13.71103-3.9076576-22.21194-3.9076576-13.71115 0-25.77678 4.0447279-36.19725 12.1343052-10.42048 8.0895772-16.5904 19.8809875-18.50996 35.3745846-1.09689 8.6380232-1.91955 18.4413468-2.46799 29.4102648zm201.55286 172.7596V612.4357302c0-2.1937837.85694-4.14759294 2.57083-5.86148642 1.71389-1.71389349 3.6677-2.57082738 5.86149-2.57082738h34.96325c2.19378 0 3.94193.44560563 5.24449 1.33683024 1.30255.89122461 2.50226 2.84503387 3.59915 5.86148636l83.08914 207.722852c.54845.822669 1.234 1.165442 2.05667 1.028331.82266-.137112 1.23399-.754104 1.23399-1.850996V612.4357302c0-2.1937837.82266-4.14759294 2.468-5.86148642 1.64534-1.71389349 3.63342-2.57082738 5.96432-2.57082738h21.38928c2.19378 0 4.14759.85693389 5.86149 2.57082738 1.71389 1.71389348 2.57082 3.66770272 2.57082 5.86148642V890.496419c0 2.193783-.82265 4.147593-2.46799 5.861486-1.64534 1.713894-3.63342 2.570828-5.96432 2.570828h-34.96325c-2.19379 0-3.90765-.411329-5.14166-1.233998-1.234-.822668-2.46798-2.810755-3.70199-5.964319l-82.88347-208.5455165c-.54845-.8226689-1.26827-1.1654425-2.1595-1.028331-.89122.1371115-1.33683.8226586-1.33683 2.0566619V890.496419c0 2.193783-.82265 4.147593-2.46799 5.861486-1.64534 1.713894-3.56487 2.570828-5.75865 2.570828h-21.59495c-2.19379 0-4.1476-.856934-5.86149-2.570828-1.71389-1.713893-2.57083-3.667703-2.57083-5.861486zm205.66619 1.645329c0-.548446.06856-1.096883.20567-1.645329l78.35882-280.1173507c.82266-4.25045585 3.4963-6.3756519 8.02098-6.3756519h29.41026c4.52468 0 7.19831 2.12519605 8.02098 6.3756519l78.35882 280.1173507c.13711.548446.20567 1.096883.20567 1.645329 0 1.234004-.47988 2.536543-1.43967 3.907658-1.37111 1.919561-3.77053 2.879327-7.19831 2.879327h-23.03462c-3.97623 0-6.64986-2.125197-8.02098-6.375652l-18.50995-64.373518c-.82267-3.976233-3.49631-5.964319-8.02099-5.964319h-69.9265c-3.97623 0-6.64987 1.988086-8.02098 5.964319l-18.50996 64.373518c-1.37111 4.250455-4.04475 6.375652-8.02098 6.375652h-23.24028c-3.42779 0-5.8272-.959766-7.19832-2.879327-.95978-1.371115-1.43966-2.673654-1.43966-3.907658zm71.57184-111.882407c0 1.919561 1.23398 2.879327 3.70199 2.879327h52.23921c2.46801 0 3.70199-.959766 3.70199-2.879327 0-.548446-.13711-1.165438-.41133-1.850996l-27.35361-117.435394c-.54844-1.6453378-1.09688-2.4679943-1.64532-2.4679943h-.82267c-.82267 0-1.43966.8226565-1.851 2.4679943l-27.3536 117.435394c-.13711.685558-.20566 1.30255-.20566 1.850996zm133.27169-144.5833314v-23.2402794c0-2.1937837.85693-4.14759294 2.57082-5.86148642 1.7139-1.71389349 3.66771-2.57082738 5.86149-2.57082738h160.0083c2.19378 0 4.14759.85693389 5.86148 2.57082738 1.7139 1.71389348 2.57083 3.66770272 2.57083 5.86148642v23.2402794c0 2.1937837-.82266 4.147593-2.46799 5.8614864-1.64534 1.7138935-3.63343 2.5708274-5.96432 2.5708274h-55.52988c-2.74223 0-4.18187 1.3710942-4.31899 4.1133238V890.496419c0 2.193783-.82265 4.147593-2.46799 5.861486-1.64534 1.713894-3.56487 2.570828-5.75865 2.570828h-23.24028c-2.19379 0-4.1476-.856934-5.86149-2.570828-1.71389-1.713893-2.57083-3.667703-2.57083-5.861486V648.2216472c0-2.7422296-1.43965-4.1133238-4.31899-4.1133238h-55.9412c-2.19378 0-4.14759-.8569339-5.86149-2.5708274-1.71389-1.7138934-2.57082-3.6677027-2.57082-5.8614864zm205.04919 254.8204094V612.4357302c0-2.1937837.85693-4.14759294 2.57082-5.86148642 1.7139-1.71389349 3.66771-2.57082738 5.86149-2.57082738h136.15102c2.19378 0 4.14759.85693389 5.86149 2.57082738 1.71389 1.71389348 2.57082 3.66770272 2.57082 5.86148642v23.2402794c0 2.1937837-.85693 4.147593-2.57082 5.8614864-1.7139 1.7138935-3.66771 2.5708274-5.86149 2.5708274h-100.3651c-2.74223 0-4.11333 1.3710942-4.11333 4.1133238v75.8908238c0 2.74223 1.3711 4.181879 4.11333 4.31899h95.63478c2.19378 0 4.14759.822657 5.86148 2.467994 1.7139 1.645338 2.57083 3.633425 2.57083 5.96432v23.034613c0 2.193784-.85693 4.147593-2.57083 5.861487-1.71389 1.713893-3.6677 2.570827-5.86148 2.570827h-95.63478c-2.74223 0-4.11333 1.439649-4.11333 4.31899v82.06081c0 2.742229 1.3711 4.113324 4.11333 4.113324h101.18776c2.19379 0 4.1476.856933 5.86149 2.570827 1.71389 1.713893 2.57083 3.667703 2.57083 5.861486v23.24028c0 2.193783-.85694 4.147593-2.57083 5.861486-1.71389 1.713894-3.6677 2.570828-5.86149 2.570828h-136.97368c-2.19378 0-4.14759-.856934-5.86149-2.570828-1.71389-1.713893-2.57082-3.667703-2.57082-5.861486zm202.16986 0V852.65384c0-2.193784.82266-4.147593 2.468-5.861487 1.64533-1.713893 3.63342-2.570827 5.96432-2.570827h37.84257c2.19379 0 4.1476.822657 5.86149 2.467994 1.71389 1.645338 2.57083 3.633425 2.57083 5.96432v37.842579c0 2.193783-.85694 4.147593-2.57083 5.861486-1.71389 1.713894-3.6677 2.570828-5.86149 2.570828h-37.84257c-2.19379 0-4.1476-.856934-5.86149-2.570828-1.71389-1.713893-2.57083-3.667703-2.57083-5.861486zM529.234713 1311.700775v-278.060688c0-2.193784.856934-4.147593 2.570827-5.861487 1.713894-1.713893 3.667703-2.570827 5.861487-2.570827h80.004147c12.065811 0 23.240228 2.33086 33.523589 6.99265 10.283361 4.661791 19.195474 11.003102 26.736605 19.024123 7.541131 8.021022 13.77961 17.413017 18.715623 28.176268 4.936014 10.763251 8.08953 22.177611 9.460645 34.243421 1.096892 8.3638 1.885271 17.687241 2.365161 27.970601.47989 10.283361.719832 20.703677.719832 31.261261 0 10.557584-.308496 20.875068-.925498 30.952762-.617002 10.077694-1.336826 19.366857-2.159495 27.867769-1.371115 12.06581-4.456077 23.514446-9.254979 34.346253-4.798901 10.831807-11.03738 20.223802-18.715623 28.176268-7.678243 7.952466-16.65891 14.259499-26.942271 18.92129-10.283361 4.66179-21.457778 6.99265-33.523589 6.99265h-80.004147c-2.193784 0-4.147593-.856934-5.861487-2.570827-1.713893-1.713894-2.570827-3.667703-2.570827-5.861487zm40.104907-35.785917c0 2.74223 1.371094 4.113324 4.113324 4.113324h44.21823c6.44424 0 12.477054-1.302539 18.098625-3.907657 5.621571-2.605119 10.55751-6.169964 14.807966-10.694642 4.250456-4.524679 7.712469-9.666282 10.386142-15.424965 2.673674-5.758682 4.421819-11.860051 5.244488-18.30429 1.096892-8.363801 1.850994-17.618687 2.262328-27.764936.411335-10.146249.616999-20.498011.616999-31.055595 0-10.557584-.205664-20.943622-.616999-31.158427-.411334-10.214806-1.165436-19.572524-2.262328-28.073435-.822669-6.170017-2.570814-12.202831-5.244488-18.098625-2.673673-5.895794-6.135686-11.071674-10.386142-15.527797s-9.186395-8.020968-14.807966-10.694642c-5.621571-2.673674-11.654385-4.010491-18.098625-4.010491h-44.21823c-2.74223 0-4.113324 1.371094-4.113324 4.113324v206.488854zm186.333567 35.785917v-278.060688c0-2.193784.85693-4.147593 2.57083-5.861487 1.71389-1.713893 3.6677-2.570827 5.86148-2.570827h75.89083c12.06581 0 23.48017 2.33086 34.24342 6.99265 10.76325 4.661791 20.15525 11.003102 28.17627 19.024123 8.02102 8.021022 14.36233 17.413017 19.02412 28.176268s6.99265 22.177611 6.99265 34.243421c0 16.042043-4.07901 30.747028-12.23714 44.115397-8.15813 13.36837-18.68128 23.822963-31.56976 31.364094-3.97623 2.193784-6.64986 4.421812-8.02098 6.684151-1.37111 2.26234-1.0969 5.381579.82267 9.357812l49.77121 102.421763c1.37112 3.153564 1.4054 6.032861.10284 8.63798-1.30256 2.605118-4.01047 3.907657-8.12382 3.907657h-23.65161c-3.42779 0-5.96431-.788379-7.60965-2.365161-1.64534-1.576782-3.15354-3.599146-4.52466-6.067153l-49.77121-104.478424c-.54845-1.371115-1.47394-2.536545-2.7765-3.496325-1.30256-.959781-3.0507-1.439664-5.24448-1.439664h-25.70828c-2.74223 0-4.11332 1.371095-4.11332 4.113324v105.301089c0 2.193784-.85694 4.147593-2.57083 5.861487-1.71389 1.713893-3.6677 2.570827-5.86149 2.570827h-23.24028c-2.19378 0-4.14759-.856934-5.86148-2.570827-1.7139-1.713894-2.57083-3.667703-2.57083-5.861487zm40.10491-153.632643c0 2.742229 1.37109 4.113323 4.11332 4.113323h40.10491c6.71846 0 12.95694-1.268262 18.71562-3.804824 5.75868-2.536562 10.86601-6.032853 15.32213-10.488976 4.45613-4.456123 7.95242-9.563449 10.48898-15.322131 2.53656-5.758682 3.80482-12.065715 3.80482-18.921289 0-6.718463-1.26826-12.956942-3.80482-18.715624-2.53656-5.758682-6.03285-10.866008-10.48898-15.322131-4.45612-4.456123-9.56345-7.952413-15.32213-10.488975-5.75868-2.536563-11.99716-3.804825-18.71562-3.804825h-40.10491c-2.74223 0-4.11332 1.371094-4.11332 4.113324v88.642128zm178.72392 153.632643v-278.060688c0-2.193784.85693-4.147593 2.57082-5.861487 1.7139-1.713893 3.66771-2.570827 5.86149-2.570827h23.24028c2.19378 0 4.14759.856934 5.86149 2.570827 1.71389 1.713894 2.57082 3.667703 2.57082 5.861487v278.060688c0 2.193784-.85693 4.147593-2.57082 5.861487-1.7139 1.713893-3.66771 2.570827-5.86149 2.570827h-23.24028c-2.19378 0-4.14759-.856934-5.86149-2.570827-1.71389-1.713894-2.57082-3.667703-2.57082-5.861487zm69.51517-278.266354c.13711-1.508227.61699-3.084985 1.43966-4.730323 1.37112-2.330895 3.63342-3.496325 6.78699-3.496325h25.29694c4.25045 0 6.92409 2.125196 8.02098 6.375652l58.61486 224.587479c.27423 1.645338 1.09688 2.467994 2.468 2.467994h.82266c1.09689 0 1.91955-.822656 2.468-2.467994l58.61486-224.587479c1.09689-4.250456 3.77053-6.375652 8.02098-6.375652h25.70828c3.42778 0 5.75864 1.096875 6.99265 3.290659.82267 1.508226 1.23399 3.01643 1.23399 4.524656 0 .685558-.06855 1.371105-.20566 2.056662l-78.77015 278.677687c-1.37112 4.250456-4.04475 6.375652-8.02098 6.375652h-32.9066c-4.25045 0-6.92408-2.125196-8.02098-6.375652l-78.35882-278.266354c-.13711-.685558-.20566-1.371105-.20566-2.056662zm236.10478 278.266354v-278.060688c0-2.193784.85694-4.147593 2.57083-5.861487 1.7139-1.713893 3.6677-2.570827 5.86149-2.570827h136.15102c2.19378 0 4.14759.856934 5.86148 2.570827 1.7139 1.713894 2.57083 3.667703 2.57083 5.861487v23.240279c0 2.193784-.85693 4.147593-2.57083 5.861487-1.71389 1.713893-3.6677 2.570827-5.86148 2.570827h-100.3651c-2.74223 0-4.11333 1.371094-4.11333 4.113324v75.890824c0 2.742229 1.3711 4.181878 4.11333 4.31899h95.63477c2.19379 0 4.1476.822656 5.86149 2.467994 1.71389 1.645338 2.57083 3.633424 2.57083 5.96432v23.034613c0 2.193784-.85694 4.147593-2.57083 5.861486-1.71389 1.713894-3.6677 2.570828-5.86149 2.570828h-95.63477c-2.74223 0-4.11333 1.439649-4.11333 4.31899v82.060809c0 2.74223 1.3711 4.113324 4.11333 4.113324h101.18776c2.19378 0 4.14759.856934 5.86149 2.570828 1.71389 1.713893 2.57082 3.667702 2.57082 5.861486v23.240279c0 2.193784-.85693 4.147593-2.57082 5.861487-1.7139 1.713893-3.66771 2.570827-5.86149 2.570827h-136.97368c-2.19379 0-4.14759-.856934-5.86149-2.570827-1.71389-1.713894-2.57083-3.667703-2.57083-5.861487zm197.85088 0v-278.060688c0-2.193784.85693-4.147593 2.57083-5.861487 1.71389-1.713893 3.6677-2.570827 5.86148-2.570827h34.96326c2.19378 0 3.94192.445606 5.24448 1.33683 1.30256.891225 2.50227 2.845034 3.59916 5.861487l83.08914 207.722851c.54845.822669 1.234 1.165443 2.05666 1.028331.82267-.137111 1.234-.754104 1.234-1.850995v-205.66619c0-2.193784.82266-4.147593 2.468-5.861487 1.64533-1.713893 3.63342-2.570827 5.96431-2.570827h21.38929c2.19378 0 4.14759.856934 5.86149 2.570827 1.71389 1.713894 2.57082 3.667703 2.57082 5.861487v278.060688c0 2.193784-.82265 4.147593-2.46799 5.861487-1.64534 1.713893-3.63343 2.570827-5.96432 2.570827h-34.96325c-2.19379 0-3.90766-.411328-5.14166-1.233997s-2.46799-2.810755-3.70199-5.964319l-82.88347-208.545517c-.54845-.822669-1.26827-1.165442-2.1595-1.028331-.89122.137112-1.33683.822659-1.33683 2.056662v206.283188c0 2.193784-.82266 4.147593-2.46799 5.861487-1.64534 1.713893-3.56487 2.570827-5.75866 2.570827h-21.59495c-2.19378 0-4.14759-.856934-5.86148-2.570827-1.7139-1.713894-2.57083-3.667703-2.57083-5.861487zm235.89912 0v-37.842579c0-2.193783.82266-4.147592 2.46799-5.861486 1.64534-1.713893 3.63343-2.570827 5.96432-2.570827h37.84258c2.19379 0 4.14759.822656 5.86149 2.467994 1.71389 1.645338 2.57083 3.633424 2.57083 5.964319v37.842579c0 2.193784-.85694 4.147593-2.57083 5.861487-1.7139 1.713893-3.6677 2.570827-5.86149 2.570827h-37.84258c-2.19378 0-4.14759-.856934-5.86148-2.570827-1.7139-1.713894-2.57083-3.667703-2.57083-5.861487zM504.143438 1454.638777c.137111-1.508226.616994-3.084984 1.439663-4.730322 1.371115-2.330895 3.63342-3.496325 6.786984-3.496325h25.296942c4.250455 0 6.924089 2.125196 8.020981 6.375652l58.614864 224.587482c.274223 1.64533 1.09688 2.46799 2.467994 2.46799h.822665c1.096892 0 1.919548-.82266 2.467994-2.46799l58.614864-224.587482c1.096892-4.250456 3.770526-6.375652 8.020982-6.375652h25.708274c3.427787 0 5.758647 1.096875 6.99265 3.290659.822669 1.508226 1.233997 3.01643 1.233997 4.524656 0 .685557-.068555 1.371104-.205666 2.056662l-78.770151 278.677687c-1.371114 4.25046-4.044748 6.37565-8.020981 6.37565h-32.90659c-4.250456 0-6.92409-2.12519-8.020982-6.37565l-78.358818-278.266355c-.137112-.685557-.205666-1.371104-.205666-2.056662zm236.104789 278.266357v-278.060691c0-2.193783.85693-4.147592 2.57082-5.861486 1.7139-1.713893 3.66771-2.570827 5.86149-2.570827h23.24028c2.19378 0 4.14759.856934 5.86149 2.570827 1.71389 1.713894 2.57082 3.667703 2.57082 5.861486v278.060691c0 2.19378-.85693 4.14759-2.57082 5.86148-1.7139 1.7139-3.66771 2.57083-5.86149 2.57083h-23.24028c-2.19378 0-4.14759-.85693-5.86149-2.57083-1.71389-1.71389-2.57082-3.6677-2.57082-5.86148zm79.79848-75.89083v-6.58131c0-2.19379.85693-4.1476 2.57083-5.86149 1.71389-1.71389 3.6677-2.57083 5.86148-2.57083h23.65161c2.19379 0 4.1476.82266 5.86149 2.468 1.71389 1.64533 2.57083 3.63342 2.57083 5.96432v6.58131c0 6.71847 1.33681 13.05978 4.01049 19.02413 2.67367 5.96435 6.47846 11.03739 11.41447 15.21929 4.93601 4.1819 10.69461 7.47253 17.27596 9.87198 6.58135 2.39945 13.7796 3.59916 21.59495 3.59916 7.81536 0 15.04788-1.19971 21.69778-3.59916 6.64991-2.39945 12.44278-5.75863 17.3788-10.07764 4.93601-4.31901 8.70652-9.39206 11.31164-15.2193 2.60512-5.82724 3.90766-12.09999 3.90766-18.81846 0-9.87202-1.67959-17.72154-5.03883-23.54877-3.35923-5.82724-8.12378-10.66035-14.2938-14.49947-6.17001-3.83912-13.6082-6.85553-22.31478-9.04931-8.70658-2.19379-18.40707-4.5932-29.10176-7.19832-10.42048-2.19378-19.88103-5.48441-28.38194-9.871977-8.50091-4.387568-15.83626-9.871944-22.00628-16.453295-6.17002-6.581351-11.0374-14.362311-14.6023-23.343113-3.5649-8.980802-5.34732-19.229731-5.34732-30.747095 0-12.614256 2.46797-23.822952 7.40398-33.626422 4.93602-9.803471 11.48299-18.098591 19.64112-24.885609 8.15814-6.787018 17.41302-11.928622 27.76494-15.424965 10.35192-3.496342 21.01217-5.244487 31.98109-5.244487 12.34003 0 23.78867 2.090918 34.34626 6.272818 10.55758 4.181901 19.70963 9.871942 27.45643 17.070294 7.7468 7.198353 13.77961 15.562028 18.09863 25.091275 4.31901 9.529248 6.47848 19.778177 6.47848 30.747096v5.552987c0 2.193783-.82266 4.147593-2.46799 5.861486-1.64534 1.713894-3.63343 2.570828-5.96432 2.570828h-23.24028c-2.19379 0-4.11332-.856934-5.75866-2.570828-1.64533-1.713893-2.46799-3.667703-2.46799-5.861486v-5.552987c0-6.992686-1.40537-12.956946-4.21616-17.892959-2.81078-4.936013-6.47846-9.015018-11.00314-12.237138-4.52468-3.22212-9.52917-5.518703-15.01363-6.889817-5.48446-1.371115-10.90028-2.056662-16.24763-2.056662-13.71115 0-24.85129 3.49629-33.42075 10.488975-8.56947 6.992686-12.85414 16.521791-12.85414 28.587601 0 9.32358 2.02236 16.693212 6.06715 22.109115 4.04479 5.415904 9.15212 9.769128 15.32213 13.059803 6.17002 3.290676 12.99121 5.758645 20.46379 7.403983 7.47257 1.645338 14.56799 3.290651 21.28645 4.935989 23.8574 5.895793 42.81277 15.870504 56.8667 29.92443 14.05393 14.05393 21.08079 33.14641 21.08079 57.27803 0 13.43693-2.67364 25.57111-8.02099 36.40292-5.34734 10.83181-12.3742 20.05242-21.08078 27.6621-8.70658 7.60969-18.8184 13.43684-30.33576 17.48163-11.51737 4.04479-23.30878 6.06715-35.37459 6.06715-13.43692 0-25.98244-2.29658-37.63691-6.88982-11.65448-4.59323-21.69774-10.90026-30.1301-18.92129-8.43235-8.02102-15.04788-17.31018-19.84679-27.86776-4.7989-10.55759-7.19831-21.86912-7.19831-33.93493zm224.99881 0v-202.169861c0-2.193783.82266-4.147592 2.46799-5.861486 1.64534-1.713893 3.63343-2.570827 5.96432-2.570827h23.03462c2.19378 0 4.14759.856934 5.86148 2.570827 1.7139 1.713894 2.57083 3.667703 2.57083 5.861486v202.169861c0 8.3638 1.54248 15.59633 4.62749 21.69779 3.08501 6.10146 7.23257 11.0374 12.4428 14.80796 5.21024 3.77057 11.10595 6.58131 17.6873 8.43232 6.58135 1.851 13.23115 2.77649 19.94962 2.77649 7.81535 0 15.11643-1.19971 21.90345-3.59916 6.78701-2.39945 12.64844-5.75863 17.58446-10.07764 4.93601-4.31901 8.7408-9.35778 11.41447-15.11647 2.67367-5.75868 4.01049-12.06571 4.01049-18.92129v-202.169861c0-2.193783.82266-4.147592 2.46799-5.861486 1.64534-1.713893 3.63343-2.570827 5.96432-2.570827h23.03462c2.19378 0 4.14759.856934 5.86148 2.570827 1.7139 1.713894 2.57083 3.667703 2.57083 5.861486v202.169861c0 12.61426-2.53652 24.26856-7.60965 34.96326-5.07312 10.69469-11.96287 19.98385-20.66945 27.86776-8.70658 7.88392-18.78412 13.98528-30.23293 18.3043-11.44881 4.31901-23.54872 6.47848-36.30008 6.47848-13.43693 0-25.98244-2.15947-37.63692-6.47848-11.65447-4.31902-21.69774-10.42038-30.13009-18.3043-8.43236-7.88391-15.01361-17.13879-19.74396-27.76493-4.73034-10.62614-7.09548-22.31472-7.09548-35.06609zm213.4815 77.53616c0-.54845.06856-1.09689.20567-1.64533l78.35882-280.117352c.82267-4.250456 3.4963-6.375652 8.02098-6.375652h29.41027c4.52467 0 7.19831 2.125196 8.02098 6.375652l78.35882 280.117352c.13711.54844.20566 1.09688.20566 1.64533 0 1.234-.47988 2.53654-1.43966 3.90766-1.37112 1.91956-3.77053 2.87932-7.19832 2.87932h-23.03461c-3.97623 0-6.64987-2.12519-8.02098-6.37565l-18.50996-64.37352c-.82267-3.97623-3.4963-5.96432-8.02098-5.96432h-69.92651c-3.97623 0-6.64986 1.98809-8.02098 5.96432l-18.50995 64.37352c-1.37112 4.25046-4.04475 6.37565-8.02099 6.37565h-23.24028c-3.42778 0-5.8272-.95976-7.19831-2.87932-.95978-1.37112-1.43967-2.67366-1.43967-3.90766zm71.57184-111.88241c0 1.91956 1.23398 2.87933 3.70199 2.87933h52.23921c2.46801 0 3.70199-.95977 3.70199-2.87933 0-.54845-.13711-1.16544-.41133-1.851l-27.3536-117.43539c-.54845-1.645337-1.09689-2.467994-1.64533-2.467994h-.82267c-.82266 0-1.43966.822657-1.85099 2.467994l-27.35361 117.43539c-.13711.68556-.20566 1.30255-.20566 1.851zm159.80263 110.23708v-278.060691c0-2.193783.85693-4.147592 2.57083-5.861486 1.71389-1.713893 3.6677-2.570827 5.86148-2.570827h23.24028c2.19379 0 4.14759.856934 5.86149 2.570827 1.71389 1.713894 2.57083 3.667703 2.57083 5.861486v242.274771c0 2.74223 1.37109 4.11332 4.11332 4.11332h94.40078c2.19378 0 4.14759.85694 5.86149 2.57083 1.71389 1.7139 2.57082 3.6677 2.57082 5.86149v23.24028c0 2.19378-.85693 4.14759-2.57082 5.86148-1.7139 1.7139-3.66771 2.57083-5.86149 2.57083h-130.1867c-2.19378 0-4.14759-.85693-5.86148-2.57083-1.7139-1.71389-2.57083-3.6677-2.57083-5.86148zm182.83724 0v-37.84258c0-2.19378.82266-4.14759 2.468-5.86149 1.64533-1.71389 3.63342-2.57082 5.96431-2.57082h37.84258c2.19379 0 4.1476.82265 5.86149 2.46799 1.71389 1.64534 2.57083 3.63342 2.57083 5.96432v37.84258c0 2.19378-.85694 4.14759-2.57083 5.86148-1.71389 1.7139-3.6677 2.57083-5.86149 2.57083h-37.84258c-2.19378 0-4.14759-.85693-5.86148-2.57083-1.7139-1.71389-2.57083-3.6677-2.57083-5.86148z" opacity=".19700986"/>
      </g>
      <path d="M3864.810197 52.549596v109.98874c0 30.40354 10.7305 55.88848 32.19183 76.45558 21.46132 20.56711 47.84047 32.63892 79.13824 36.21581 118.03728 13.86044 236.0728 13.86044 354.11009 0 31.29776-3.57689 57.67691-15.6487 79.13824-36.21581 21.46132-20.5671 32.19182-46.05204 32.19182-76.45558V52.549596c0-8.94222-4.69459-13.41326-14.08392-13.41326h-549.27304c-8.94222 0-13.41326 4.47104-13.41326 13.41326zm-192.48029 109.98874v-288.38511c0-7.15378 2.68262-13.63679 8.04795-19.44923 5.36533-5.36533 11.84835-8.04796 19.44923-8.04796h906.73644c7.15378 0 13.41324 2.68263 18.77857 8.04796 5.36533 5.36533 8.2715 11.84834 8.71862 19.44923v288.38511c0 82.26841-29.28533 151.34601-87.85686 207.23488-58.57154 55.88886-130.55532 88.97458-215.9535 99.25813-118.03729 13.86044-236.07281 13.86044-354.11009 0-84.50397-10.28355-156.2642-43.36927-215.28284-99.25813-59.01864-55.88887-88.52752-124.96647-88.52752-207.23488zm374.90064 692.124261V980.74725c0 10.283551 5.1417 14.083937 15.42525 11.401272l329.29556-66.395642c3.57688-.894222 5.3653-3.129743 5.3653-6.70663v-2.682653c0-3.576887-1.78842-5.812408-5.3653-6.70663l-329.29556-65.724979c-10.28355-2.682665-15.42525.894168-15.42525 10.730609zm-374.90064-128.096642V582.3734c0-10.283554 2.68262-17.660774 8.04795-22.131884 5.36533-4.47111 11.84835-6.25952 19.44923-5.3653l913.44307 246.133337c13.86044 2.682666 20.79056 11.401198 20.79056 26.155859v183.761675c0 14.754661-6.93012 23.473193-20.79056 26.155859l-913.44307 244.792012c-7.60088 1.788444-14.0839.223579-19.44923-4.694641s-8.04795-12.518992-8.04795-22.802544v-144.192555c0-12.966217 6.93011-21.684749 20.79055-26.155859l141.5099-42.922435c13.86044-3.576887 20.56701-10.283451 20.11989-20.119891V811.740162c.44712-10.730662-6.25945-17.437226-20.11989-20.119891l-141.5099-38.898457c-13.86044-2.682666-20.79055-11.401198-20.79055-26.155859zm961.73081 1248.774594c0 12.966217-5.81236 21.908302-17.43724 26.826522-11.62489 4.91822-22.35539 3.80046-32.19183-3.353315l-378.92462-256.863947c-14.75466-10.283552-29.95621-10.283552-45.60509 0l-435.26032 281.007816c-8.94221 7.153775-19.89627 7.824432-32.86249 2.01199-12.96621-5.812443-19.44922-16.09584-19.44922-30.850501v-148.216533c0-14.754661 5.5888-25.26161 16.76657-31.521163l374.90065-234.73206687c4.91822-2.23555467 6.03598-5.14173215 3.35331-8.71861962-2.23555-3.12977651-4.69463-4.91819341-7.37729-5.36530441h-360.14606c-7.60088 0-14.0839-2.6826253-19.44923-8.0479565s-8.04795-11.8483425-8.04795-19.4492284V1402.594307c0-7.153775 2.68262-13.636787 8.04795-19.449229 5.36533-5.365331 11.84835-8.047956 19.44923-8.047956h906.73644c7.15378 0 13.41324 2.682625 18.77857 8.047956 5.36533 5.365331 8.2715 11.848343 8.71862 19.449229v135.4739352c0 7.1537749-2.68263 13.4132341-8.04796 18.7785653s-11.84834 8.2715087-19.44923 8.7186196h-315.88229c-6.70667 0-9.38929 3.1297296-8.04796 9.3892827.44711 2.23555466 1.56487 3.80041946 3.35331 4.69464133l333.9902 226.68410987c8.94222 6.259553 13.63681 16.319398 14.08393 30.179837v138.827251zm-72.43161 229.366762c58.12442 58.124422 87.18619 133.01438 87.18619 224.672121 0 91.657741-29.06177 166.547704-87.18619 224.672124-58.12442 58.12442-130.10821 92.32789-215.9535 102.61144-128.32084 15.64889-256.63976 15.64889-384.96059 0-85.8453-10.28355-157.82908-44.48702-215.9535-102.61144-58.12443-58.12442-87.1862-133.014383-87.1862-224.672124 0-91.657741 29.06177-166.547699 87.1862-224.672121 58.12442-58.124421 130.1082-92.104342 215.9535-101.940783 128.32083-15.648883 256.63975-15.648883 384.96059 0 85.84529 9.836441 157.82908 43.816362 215.9535 101.940783zm-106.63543 224.672121c0-40.239984-10.28339-71.53728-30.8505-93.892827-20.5671-22.355546-46.7227-35.321569-78.46757-38.898456-128.32084-15.648883-256.63976-15.648883-384.96059 0-32.19199 3.576887-58.57114 16.54291-79.13824 38.898456-20.56711 22.355547-30.8505 53.652843-30.8505 93.892827s10.28339 71.53728 30.8505 93.892827c20.5671 22.355546 46.94625 35.545121 79.13824 39.569119 128.32083 15.648883 256.63975 15.648883 384.96059 0 32.19198-3.576887 58.57113-16.54291 79.13824-38.898456 20.5671-22.355547 30.62694-53.876395 30.17983-94.56349zm-13.41326 643.836524v-185.103c0-7.15377 2.68263-13.63679 8.04796-19.44923 5.36533-5.36533 11.84834-8.04795 19.44923-8.04795h137.48592c7.15378 0 13.41324 2.68262 18.77857 8.04795 5.36533 5.36533 8.2715 11.84834 8.71862 19.44923v590.18348c0 7.60089-2.68263 14.0839-8.04796 19.44923s-11.84834 8.04796-19.44923 8.04796h-137.48592c-7.15378 0-13.41324-2.68263-18.77857-8.04796-5.36533-5.36533-8.27151-11.84834-8.71862-19.44923v-185.103c0-8.94222-4.69459-13.41326-14.08392-13.41326h-727.66941c-7.60088-.44711-14.0839-3.35329-19.44923-8.71862s-8.04795-11.62479-8.04795-18.77856v-137.48593c0-7.15377 2.68262-13.63679 8.04795-19.44923 5.36533-5.36533 11.84835-8.04795 19.44923-8.04795h727.66941c9.38933-.44712 14.08392-5.14171 14.08392-14.08393zm-394.34987 802.11301v126.08465c0 10.28355 5.1417 14.08394 15.42525 11.40127l329.29556-66.39564c3.57688-.89422 5.3653-3.12974 5.3653-6.70663v-2.68265c0-3.57689-1.78842-5.81241-5.3653-6.70663l-329.29556-65.72498c-10.28355-2.68267-15.42525.89417-15.42525 10.73061zm-374.90064-128.09665v-144.19255c0-10.28355 2.68262-17.66077 8.04795-22.13188 5.36533-4.47111 11.84835-6.25953 19.44923-5.36531l913.44307 246.13334c13.86044 2.68267 20.79056 11.4012 20.79056 26.15586v183.76168c0 14.75466-6.93012 23.47319-20.79056 26.15585l-913.44307 244.79202c-7.60088 1.78844-14.0839.22358-19.44923-4.69464s-8.04795-12.519-8.04795-22.80255v-144.19255c0-12.96622 6.93011-21.68475 20.79055-26.15586l141.5099-42.92244c13.86044-3.57688 20.56701-10.28345 20.11989-20.11989v-209.24687c.44712-10.73066-6.25945-17.43722-20.11989-20.11989l-141.5099-38.89846c-13.86044-2.68266-20.79055-11.4012-20.79055-26.15586z" fill="#36395A" opacity=".11994513"/>
    </g>
    <g fill="#FBFCFC">
      <path d="M2270.321096 1060.695473h-410.985577v142.848628h410.985577c239.251014 0 433.902924 224.482281 433.902924 500.412843 0 275.932346-194.65191 500.443186-433.902924 500.443186l-810.331249-.03034c-16.298365 0-29.586319-13.2775-29.586319-29.57139V1063.429862C1349.3812952 1077.490904 1287.5 1148.133455 1287.5 1233.115484V2174.7984c0 95.0825 77.3708135 172.42002 172.489847 172.42002l810.331249.02855c318.043114 0 576.806454-288.56908 576.806454-643.290026 0-354.690607-258.76334-643.261471-576.806454-643.261471"/>
      <path d="M2298.90216 775h-553.105256c-95.119034 0-172.489848 77.3375201-172.489848 172.420012V2062.30649h142.903529V947.420012c0-16.292105 13.286168-29.571383 29.586319-29.571383h553.105256c378.47098 0 686.38118 352.654094 686.38118 786.1101 0 433.454221-307.9102 786.108311-686.38118 786.108311h-312.740072v.03035h-410.119592c14.095016 80.99467 84.764715 142.81828 169.754408 142.81828h553.105256c457.26129 0 829.28292-416.74089 829.28292-928.956941C3128.18508 1191.742678 2756.16345 775 2298.90216 775"/>
    </g>
  </g>
</svg>
