<svg version="1" xmlns="http://www.w3.org/2000/svg" width="1894.667" height="1894.667" viewBox="0 0 1421.000000 1421.000000"><path d="M457.5 40.8c-39 22.4-78.4 45.2-87.5 50.6-63.1 37.8-98.9 69.5-115.4 102.3-7.1 14.3-14.8 37.3-19.6 59-1.1 5-4.7 23.9-7.9 42-3.3 18-19.1 99.6-35.1 181.3-29 148.5-31.7 163-34.2 185.5-1.7 16.1-1.7 66.9 0 79.5 2 13.8 5 26.1 9.2 37.5 8.3 22 15.3 35 41.3 76 10.5 16.5 52.2 86 92.7 154.5s91.2 153.7 112.5 189.5c21.3 35.7 45.8 77.4 54.3 92.5 15.9 28.2 33.5 56 39.9 63.1 4.1 4.6 8.7 7.3 11.2 6.6 1.6-.4 68.6-44.1 193.1-126 27.2-17.9 49.8-32.3 50.1-31.9.4.4 28.9 49.7 63.4 109.5 47.9 82.9 63.2 108.7 64.3 108.2.8-.3 40.3-23.6 87.6-51.7 120.4-71.5 117.4-69.7 124.1-74.1 20.2-13.6 39.2-30.6 49.2-44.1 13.5-18.2 25.2-44.8 33.7-76.4 6.3-23.6 6.8-26.1 33.7-170.2 9.9-53.1 21.3-113.6 25.4-134.5 8.1-41.5 10.2-53.3 13.9-79 5.3-36.5 6.1-46.6 6.1-76.5 0-25.1-.3-29.9-2.2-40-5.1-26.6-18.6-61-45.3-115.7-16.6-33.9-17.7-35.9-74.7-134.1-59.1-101.9-74.3-126.3-143.7-231.1-49.3-74.4-90.7-131.7-96.6-133.6-1.3-.4-17.3 9.8-52.7 33.3-152.1 101.2-190.7 126.6-191 125.7-1.1-3-127-217.9-127.8-218.1-.6-.2-32.9 18-72 40.4zM537 468c35.3 60.8 64.5 110.8 64.9 111.3.4.4 45.1-25 99.3-56.5l98.6-57.3 8.3-33c4.5-18.2 8.4-33.4 8.7-33.8.7-1.3 4 4.1 54.5 89.3 25.3 42.6 53.5 90.1 62.7 105.5 26.4 44.3 38.2 67 48.5 93 15.7 39.5 19.9 67.6 16 107.8-1.6 17-4.2 32.8-14 86.2-3.5 19.2-12.5 69.6-20 112-7.5 42.3-13.7 77.1-13.8 77.1-.1.1-29.9-50.5-66.2-112.4-36.3-61.8-66.7-113.3-67.5-114.4-1.5-1.9-5.1.1-99.5 55l-98 56.9-8.6 34.4-8.5 34.4-3.9-6c-2.1-3.3-10-16.1-17.5-28.5-7.5-12.4-19.1-31.1-25.6-41.5-6.6-10.5-25.4-42.3-41.7-70.7-16.3-28.4-33.5-58.1-38.3-65.9-34.5-57.3-47.2-88.5-55.9-137.4-3.5-19.3-2.1-42.8 4.6-76 1.7-8.3 7.9-42.5 13.9-76 5.9-33.6 15.2-85.8 20.6-116.1l9.9-55.2 2.1 3.7c1.2 2 31.1 53.3 66.4 114.1z"/></svg>