<svg viewBox="0 0 4417 3409" xmlns="http://www.w3.org/2000/svg">
  <g fill="none" fill-rule="evenodd">
    <path fill="#008F9B" d="M.723183.144507h4416v3408h-4416z"/>
    <path d="M670.67203.144507h1608.672773l2137.37838 1418.19232v1158.17189l-2340.02035 831.63579H252.222247l418.449783-3408z" fill="#FFF7CC" opacity=".2991769"/>
    <path d="M823.727343.144507h1184.45854l2408.5373 1598.11156v820.50513l-2783.88343 989.38331H405.277559l418.449784-3408z" fill="#FFF7CC"/>
    <g fill="#008F9B">
      <path d="M3045.531463 1316.074966c2.1007-1.206787 4.46958-3.776798 6.25741-3.463927 64.96539 10.659956 129.32739 23.308875 185.13013 61.568506 72.22846 49.52298 114.28724 117.482989 124.43319 204.662206 15.30833 131.428088-24.1134 246.385763-105.68329 348.448691-45.54538 56.872823-101.77881 104.284429-165.531 139.562729-42.21521 23.644096-83.46947 21.677476-125.28241 1.273831-25.16376-12.269005-51.02029-20.850604-79.44684-19.688513-26.16941 1.0727-49.3889 10.369433-71.51333 23.755838-9.20903 5.41604-19.15228 9.47313-29.5216 12.04552-17.18554 4.46958-31.75638-4.46958-37.34336-21.52104 21.29756-5.318804 42.46104-11.017522 63.84799-15.777628 19.8226-4.469583 39.77929-8.492208 59.87006-11.419785 24.87323-3.620362 49.16542 1.519658 72.76482 8.939166 27.59967 8.559252 55.86978 13.07353 83.78233 4.849498 17.27494-5.072977 33.85709-13.408749 49.70176-22.146784 61.00981-33.723004 115.94099-75.13369 160.90499-129.081557 51.82482-62.194248 81.90511-133.931055 94.57638-213.377893 8.04525-50.506288 8.93916-100.85614-5.22942-150.580251-22.92896-80.005536-73.14472-136.188194-148.85946-170.179373-38.50545-17.274938-78.70935-29.499248-119.09204-41.298947-4.08966-1.206787-8.13464-2.547662-12.17961-3.821494l-1.5867-2.748793zM2852.713653 1170.835866l102.39814-6.4138514.37992 1.2514832c-1.07276.8266257-2.24377 1.5172173-3.48628 2.0560082-19.7779 5.67637-39.51111 11.598568-59.4231 16.738588-15.0178 3.888538-19.42034 8.782731-16.17989 23.822878 12.11257 56.383789-6.4809 103.11328-43.69018 144.613358-61.0098 68.004705-137.19385 107.091209-226.98777 121.349178-45.92496 7.285421-91.62645 6.704375-137.7302 1.676094-12.40309-1.363223-24.87323-2.234791-39.39937-3.508623 17.20789 0 32.18099-.31287 47.13175 0 69.50201 1.698442 136.7022-8.715686 200.25967-37.991455 65.25591-30.147337 117.88525-75.692388 159.92168-133.484097 27.46558-37.812672 37.18693-80.720669 16.80563-130.109561zM2814.096453 1097.8922716c-2.68175 6.8831578-6.16802 4.2684518-9.67665 2.0783561-16.38317-10.2455382-34.6623-17.0859585-53.74673-20.1131235-29.81212-4.76010593-58.28336.8939166-85.45843 12.5148324-88.14018 37.7009326-150.87077 101.0572714-188.75049 189.1080564-16.51511 38.349023-25.1861 78.821097-34.12527 119.360215-3.59801 16.224586-10.48117 32.069258-18.07946 46.930621-8.22403 16.090499-23.5547 18.01242-38.43841 7.017245.20113-.42461.33522-1.162091.64809-1.273831 29.72272-8.581599 41.61181-31.465864 47.48932-59.199627 8.5816-40.360334 18.34763-80.452494 33.90178-118.734472 25.38723-62.752945 61.68025-117.6170768 116.20916-159.0501113 49.72411-37.8126722 105.92912-52.5399482 167.83284-44.85226543 8.51463 1.28712896 16.79602 3.8091882 24.58271 7.48655153 12.51483 5.4752392 24.82853 12.1796137 37.61154 18.7275528zM3035.340813 1102.8758566c4.26845 1.1173958 7.86647.9609604 9.47551 2.6817498 11.50918 12.2913533 22.61609 24.984969 34.52753 38.2596306-12.17961 15.2189301-24.5827 29.879162-36.09188 45.276876-19.04042 25.498971-38.66189 50.662723-55.86979 77.413177-21.27521 33.186654-31.59995 71.267501-43.24321 108.566172-3.57567 11.46448-7.33012 22.839569-11.73266 34.19231-4.31315-13.408749-3.97793-27.01863-2.07835-40.449727 8.73803-62.082508 35.60022-116.901943 69.70314-168.436235 12.96179-19.576774 28.22542-37.6785849 42.72922-56.2273543 2.88288-3.7097539 4.26845-6.7043745 2.41357-11.4421325-3.39688-8.939166-6.03394-18.1912028-9.83308-29.8344666z"/>
      <path d="M2821.091353 1153.0245779c-23.75584 3.0616644-46.79654 8.5592515-68.56341 18.8392921-35.53318 16.760937-64.29495 42.081124-90.68783 70.64176-31.28709 33.968831-57.09893 72.228461-83.51416 109.951742-19.13572 27.941073-43.0672 52.273558-70.68646 71.870894-1.49589 1.124076-3.18492 1.964806-4.98358 2.480619 26.45993-25.923582 44.33826-57.747013 63.02112-89.056441 10.43647-17.453722 20.96234-34.907444 32.31508-51.78012 24.58271-36.65058 52.85282-70.127757 89.39166-95.693772 32.415-22.7079457 70.21914-36.5165522 109.63887-40.0474634 6.39151-.6033937 12.69362-1.8772249 19.08512-2.2347915 1.94427-.1340875 4.00028 1.4302665 6.01159 2.2347915l-1.028 2.7934893zM3014.803083 1404.215143c14.25796 8.179337 18.07946 22.213827 9.47551 36.002491-11.18777 18.34053-29.13364 31.551131-49.96994 36.784668-42.46104 11.173958-81.90511 4.022625-117.48299-21.744521-19.37564-14.034491-21.99034-36.382406-6.32446-52.696384 2.41358 6.570287 4.91655 12.626572 6.90551 18.86164 3.4713 11.707652 11.67929 21.430838 22.63844 26.817498 39.95807 20.962345 79.06692 16.850328 117.59473-3.374535 11.64326-6.123329 16.47041-17.096155 17.14085-29.968554.15643-3.441579.02235-6.838462.02235-10.682303zM1213.203561 1470.767234l-4.335496-15.799976c-5.542283-21.722174-32.784391-39.891029-60.3393703-39.891029-31.287081 0-49.3888922 22.124436-46.6177507 45.031049 3.1734039 23.68879 27.2644563 31.287081 54.908827 39.891029 24.582707 7.508899 88.073133 21.31991 93.615416 73.748119 5.922198 54.104302-50.171069 78.217703-94.017678 78.217703-43.0420846 0-56.875444-21.722174-81.3687589-13.408749l-20.5377339-62.015464 16.2022384-5.542283c5.9221975-2.368879 9.475516-.782177 12.6489199 5.14002 2.7487935 5.14002 5.9221975 10.659955 8.670991 16.202238 11.4644804 22.906613 33.1866538 35.935448 64.0044285 35.935448 27.644371 0 53.634996-9.475516 50.550984-39.891029-2.771142-28.82881-33.968831-36.337709-63.9820808-45.433311-28.8511583-9.073253-73.7481196-24.091052-79.8044045-70.686455-5.51993504-40.226247 27.2644563-78.217703 85.726602-78.217703 50.5509833 0 62.0154643 23.711138 86.1065163 28.448896l5.117673 50.171069-16.962068 2.748794c-5.229412.893917-8.402816-.290523-9.587255-4.648366z"/>
      <path d="M1463.232034 1556.471488c0 59.26667-37.991456 92.051062-76.228738 92.051062-21.881273.384429-42.313783-10.904533-53.634996-29.633336v75.446562c0 9.073253 6.302112 11.062218 19.733209 11.062218v13.408749h-77.882484v-13.408749c12.64892 0 18.571117-1.988965 18.571117-11.062218v-191.566328c0-13.051182-8.291076-17.386678-23.308875-15.420061v-16.090499l52.137686-6.704375c14.235622-1.564354 14.235622 14.235622 8.693339 31.287081 9.095601-9.877778 28.046633-30.817774 58.462145-30.817774 42.259908-.178784 73.457597 32.605608 73.457597 91.447668zm-41.075468 5.14002c0-37.522149-13.028834-69.502015-38.706589-69.502015-26.057669 0-39.086503 11.03987-50.148721 22.102088v73.479944c7.486552 21.319911 23.68879 39.488766 49.768807 39.488766 23.733486 0 39.086503-20.939996 39.086503-65.568783zM1635.84733 1562.885339H1534.3431c0 36.739973 21.722173 63.982081 53.634996 63.982081 25.297839 0 39.511113-13.811011 48.986629-25.275492l13.83336 15.017799c-9.877779 13.028835-28.448896 33.521873-68.742187 33.521873-50.104025-.089392-90.330272-39.153547-90.330272-93.950635 0-58.104579 41.075467-90.844275 85.704254-90.844275 42.259907 0 80.586581 30.795427 80.586581 73.457597-.044695 14.928407-7.620639 24.091052-22.169131 24.091052zm-58.462146-77.100306c-27.644371 0-43.042084 21.319911-43.042084 56.070918h83.335375c.402262-34.840399-12.64892-56.070918-40.293291-56.070918z" fill-rule="nonzero"/>
      <path d="M1764.616016 1649.304727c-43.846609 0-84.922077-36.33771-84.922077-91.626452 0-59.624237 41.857645-93.213153 86.508779-93.213153 46.19314 0 72.273157 25.275492 72.273157 49.388892 0 9.475516-5.922197 17.878332-19.353294 17.878332-13.431097 0-20.537734-6.704375-20.537734-15.397714 0-17.878332.402262-30.817774-27.644371-30.817774-35.555533 0-48.98663 18.951032-48.98663 64.808953 0 40.673206 21.319911 76.228738 56.093267 75.826476 23.68879 0 29.610987-9.475516 39.891028-20.537734 3.151056-3.151056 6.32446-5.922198 11.173958-1.586702l9.073253 8.313424c-7.620639 14.436753-28.94055 36.963452-73.569336 36.963452z"/>
      <path d="M1947.10909 1631.135872v14.995451h-73.479945v-14.995451c10.682304 0 17.386678-1.988965 17.386678-11.062218v-119.762477c0-9.095601-3.151056-12.246657-11.173957-12.246657h-7.888814v-17.878332l45.410963-3.553319c9.095602-.782177 12.64892 3.553319 12.64892 12.246658v141.015344c.11174 9.252036 6.816114 11.241001 17.096155 11.241001zm-63.602166-225.535158c.270215-13.237751 11.17285-23.776422 24.412145-23.597191 13.239295.179231 23.852646 11.009181 23.764407 24.249395-.088239 13.240214-10.844992 23.927744-24.0855 23.930502-6.471643-.010875-12.66781-2.620277-17.197505-7.242414-4.529694-4.622137-7.013402-10.86975-6.893547-17.340292zM2148.150933 1623.22471v16.202238c-14.21327 5.922198-25.67775 9.095602-34.75101 9.095602-12.24665 0-22.92896-12.246658-25.29784-38.728937-8.29107 18.97338-24.87323 39.913376-54.886476 40.226247-32.002215.402263-61.613202-16.582153-61.613202-50.148721 0-32.002215 20.537734-52.942211 114.935328-66.753222v-6.704375c0-29.231073-8.69334-44.226524-31.59995-44.226524-21.342262 0-31.599955 5.519935-31.599955 30.415513 0 8.291076-11.844395 12.626572-22.906613 12.626572-11.46448 0-18.571117-8.291077-18.97338-18.571118 0-28.024285 36.33771-42.259907 75.066648-42.259907 42.63982 0 69.50201 20.113123 69.50201 68.339924v76.228738c0 13.07353 6.72673 16.626849 22.12444 14.25797zm-61.6132-37.522149v-34.751008c-67.155486 11.46448-72.675421 30.817775-72.675421 46.930621 0 15.420062 11.062218 27.644371 28.046634 27.644371 26.839847.067044 38.304327-25.208448 44.628787-39.823984z" fill-rule="nonzero"/>
      <path d="M2246.906373 1622.844795l-6.32446 18.54877c-9.07326 4.469583-18.16886 7.911162-28.04664 7.911162-19.75555 0-30.41551-14.213274-30.41551-32.382129V1425.35627c0-13.051182-8.29108-17.386677-23.30887-15.420061v-15.397713l50.95324-7.5089c14.61554-2.368879 11.46448 11.844395 11.46448 29.231073v190.381888c0 13.028834 4.3355 21.722173 25.67776 16.202238zM1249.943533 1981.215961c-1.388679 5.39042-6.278327 9.136075-11.844395 9.073253l-183.67751346.000779v-16.582932c15.01779886-3.151056 22.90661286-6.704374 22.90661286-18.168855v-176.168614c0-11.844395-7.888814-14.995451-22.90661286-18.548769v-15.799976H1234.143557c5.140021 0 6.704375 1.184439 6.704375 7.106637v42.259907h-16.604501l-5.922198-13.028834c-5.14002-11.173958-14.615536-14.213274-31.599952-14.213274h-64.8089531v87.290956h67.5353991c13.028835 0 14.995451-6.704375 20.113124-19.375643h9.877778v60.451111h-9.877778c-5.140021-12.246658-7.106637-19.755557-20.113124-19.755557h-67.4683554v92.810891l84.1175524-.782177c15.799976 0 19.353294-3.553319 26.459931-12.626572l10.280041-13.051183h19.755557c-6.32446 12.64892-9.497864 26.459932-12.64892 39.108852z"/>
      <path d="M1482.205414 1967.784864v13.006486l-32.002214 9.475516c-11.464481 3.173404-26.080017-7.888814-29.633336-36.33771-4.737758 12.246658-18.548769 39.511114-52.5176 39.511114-38.706589 0-77.81544-33.968831-77.81544-88.073133 0-53.634996 34.751008-96.096034 75.044298-96.096034 31.599952 0 45.031049 14.995451 55.288742 26.459931v-64.250256c0-13.028834-6.704374-17.878332-21.722173-17.386678v-15.397713l49.768807-7.5089c14.615536-2.368879 11.866742 11.844395 11.46448 29.231073v193.15303c0 13.811011 6.704375 16.582153 22.124436 14.213274zm-61.63555-111.382009c-13.811011-16.984415-28.024285-25.677754-46.19314-25.677754-26.482279 0-42.66217 31.599952-42.66217 69.524364 0 33.96883 17.36433 66.753222 44.226524 66.753222 25.677754 0 37.522149-18.97338 44.69583-33.521873l-.067044-77.077959z" fill-rule="nonzero"/>
      <path d="M1703.002814 1967.382601v16.202239l-28.448896 8.291076c-14.995451 4.737758-29.231072-6.32446-32.784391-42.259907v-.782177c-5.117672 14.995451-20.537734 44.69583-58.104579 44.69583-38.706589 0-65.948697-22.526698-65.948697-67.155485v-83.000156c0-9.095602-3.173404-12.64892-11.062218-12.64892h-5.922198v-14.213274l46.215489-7.106637c5.519935-.402262 9.85543 2.368879 9.85543 8.291076v105.862074c0 33.521872 12.64892 44.69583 37.52215 44.69583 26.817498 0 39.108851-19.353294 47.399927-45.031049v-79.782056c0-9.095602-2.748793-12.64892-10.659955-12.64892h-5.922198v-14.213274l45.813226-7.106637c6.32446-1.18444 9.877779 2.368879 9.877779 8.291076v135.473061c.044695 12.961791 6.771418 16.515109 22.169131 14.14623zM1807.680448 1993.462618c-43.846609 0-84.922077-36.33771-84.922077-91.626451 0-59.624238 41.857645-93.213154 86.508779-93.213154 46.193141 0 72.273157 25.275492 72.273157 49.388892 0 9.475516-5.922197 17.878332-19.353294 17.878332-13.431097 0-20.537734-6.704374-20.537734-15.397713 0-17.878332.402263-30.817775-27.644371-30.817775-35.555533 0-48.98663 18.951032-48.98663 64.808954 0 40.673205 21.319911 76.228738 56.093267 75.826475 23.68879 0 29.610988-9.475516 39.891028-20.537734 3.151056-3.151056 6.32446-5.922197 11.173958-1.586702l9.073253 8.291077c-7.620639 14.459101-28.940549 36.985799-73.569336 36.985799z"/>
      <path d="M2084.571113 1967.382601v16.202239c-14.21327 5.922197-25.67775 9.095601-34.751006 9.095601-12.246657 0-22.92896-12.246657-25.297839-38.728937-8.291077 18.97338-24.87323 39.913377-54.88648 40.226247-32.002214.402263-61.635549-16.582153-61.635549-50.148721 0-32.002214 20.560082-52.942211 114.957675-66.753222v-6.704375c0-29.231072-8.693339-44.226523-31.599952-44.226523-21.342259 0-31.599952 5.519935-31.599952 30.415512 0 8.291076-11.844395 12.626572-22.906613 12.626572-11.46448 0-18.571117-8.291077-18.97338-18.571117 0-28.024286 36.33771-42.259908 75.044299-42.259908 42.66217 0 69.524367 20.113124 69.524367 68.339924v76.228739c0 13.07353 6.72672 16.626848 22.12443 14.257969zm-61.613199-37.522149v-34.751008c-67.043745 11.464481-72.67542 30.817775-72.67542 46.930622 0 15.420061 11.03987 27.644371 28.024285 27.644371 26.862194.067043 38.326675-25.208449 44.651135-39.823985z" fill-rule="nonzero"/>
      <path d="M2207.819863 1978.847082c-7.91116 5.922197-20.11312 14.213274-43.06443 14.213274-29.23107 0-47.39993-17.386678-47.39993-58.104579v-101.459535h-19.75555v-18.973379c22.92896 0 34.77335-22.102088 45.43331-43.042085 3.95558-7.508899 14.21327-5.922197 14.21327 1.18444v39.108851h42.25991v13.028834c0 5.922198-2.36888 8.693339-8.29108 8.693339h-33.96883v107.82869c0 16.582153 4.46958 30.415513 16.6045 30.415513 8.74986-.265473 17.18787-3.310357 24.09106-8.693339 6.32446-4.335496 16.58215 10.659955 9.87777 15.799976z"/>
      <path d="M2308.541923 1975.293763v14.995451h-73.47995v-14.995451c10.65996 0 17.38668-1.988964 17.38668-11.062218v-119.762476c0-9.095602-3.15106-12.246658-11.17396-12.246658h-7.88881v-17.878332l45.41096-3.553318c9.0956-.782177 12.64892 3.553318 12.64892 12.246657v141.015344c.11174 9.252037 6.81612 11.241001 17.09616 11.241001zm-63.69156-225.535158c.27021-13.237751 11.17285-23.776422 24.41214-23.597191 13.2393.179231 23.85265 11.009181 23.76441 24.249396-.08824 13.240214-10.84499 23.927744-24.0855 23.930501-6.47164-.010874-12.66781-2.620277-17.1975-7.242414-4.5297-4.622137-7.01341-10.86975-6.89355-17.340292zM2510.365943 1899.44494c0 58.462145-43.04209 94.799855-87.67087 94.799855-45.43331 0-88.87766-36.33771-88.87766-91.626451 0-59.646586 43.44435-93.213154 88.07313-93.213154 45.43331 0 88.4754 33.566568 88.4754 90.03975zm-92.40863-69.122102c-26.48228 0-42.28226 16.984416-42.28226 60.048848 0 49.366544 22.12444 80.564234 50.57334 80.564234 26.45993 0 42.63982-16.179891 42.63982-59.624237 0-50.573332-22.10209-80.988845-50.9309-80.988845z" fill-rule="nonzero"/>
      <path d="M2742.225563 1968.969303l-5.14002 17.386678c-8.40471 2.759533-17.21291 4.089074-26.05767 3.933233-20.94 0-32.38213-13.028834-32.38213-28.426548v-80.966496c0-28.448896-5.14002-46.215488-29.63334-46.215488-26.8175 0-46.93062 24.582706-54.50656 33.164306v96.386557c0 9.073254 6.32446 11.062218 19.75555 11.062218v14.995451h-77.41317v-14.995451c12.62657 0 18.54877-1.988964 18.54877-11.062218v-115.292893c0-13.028835-8.29108-17.386678-23.28653-15.397714v-17.878332l50.9309-6.704374c14.61553-1.966617 11.86674 11.844395 9.87778 29.231073l-1.56436 13.833359c7.10664-12.246657 28.04663-43.846609 66.35096-43.846609 36.73997 0 60.33937 14.615536 60.83103 69.122101v74.642036c.08939 13.07353 3.55331 21.766869 23.68879 17.029111zM1232.489811 2138.545287l-6.302112-13.02884c-5.14002-11.17396-14.615536-14.21327-31.599951-14.21327h-74.3291658v87.29095h67.0437448c13.051183 0 15.017799-6.70437 20.113124-19.37564h9.877778v60.33937h-9.877778c-5.140021-12.24666-7.106637-19.75556-20.113124-19.75556h-67.0437448v80.9665c0 11.46448 8.2910765 15.0178 22.9066129 18.57112v14.99545h-90.4420121v-14.99545c14.995451-3.55332 22.9066129-7.10664 22.9066129-18.57112v-177.33071c0-11.86674-7.9111619-15.01779-22.9066129-18.57111v-15.79998h172.213033c8.291077 0 14.593189 3.95558 16.582153 14.21328l7.5089 35.15327-16.537458.11174z"/>
      <path d="M1433.486959 2243.602827c0 58.46215-43.064432 94.79986-87.693218 94.79986-45.410964 0-88.877658-36.33771-88.877658-91.62645 0-59.64659 43.466694-93.21316 88.095481-93.21316 45.410963 0 88.475395 33.56657 88.475395 90.03975zm-92.430976-69.1221c-26.459932 0-42.259908 16.98442-42.259908 60.04885 0 49.36654 22.124436 80.45249 50.550984 80.45249 26.459931 0 42.66217-16.17989 42.66217-59.62423 0-50.46159-22.124436-80.87711-50.953246-80.87711z" fill-rule="nonzero"/>
      <path d="M1657.435416 2311.540497v16.20223l-28.426548 8.38047c-15.017799 4.73776-29.231073-6.32446-32.784392-42.25991v-.78217c-5.14002 14.99545-20.537734 44.69583-58.104579 44.69583-38.706589 0-65.971045-22.5267-65.971045-67.15549v-82.93311c0-9.0956-3.151056-12.64892-11.173957-12.64892h-5.922198v-14.21327l46.215488-7.10664c5.519935-.40226 9.877779 2.36888 9.877779 8.29108v105.83972c0 33.52187 12.626572 44.69583 37.522149 44.69583 26.817498 0 39.108851-19.35329 47.399928-45.03105v-79.78205c0-9.09561-2.771142-12.64892-10.682303-12.64892h-5.922198v-14.21328l45.835574-7.10663c6.302112-1.18444 9.85543 2.36887 9.85543 8.29107v135.47306c.156436 12.82771 6.883158 16.38102 22.280872 14.01215zM1887.283722 2313.127197l-5.140021 17.38668c-8.405389 2.75665-17.213105 4.08611-26.057669 3.93323-20.939996 0-32.404477-13.02884-32.404477-28.42655v-80.9665c0-28.44889-5.117672-46.21548-29.610987-46.21548-26.817498 0-46.930622 24.5827-54.506565 33.1643v96.38656c0 9.07325 6.32446 11.17396 19.733209 11.17396v14.99545h-77.413177v-14.99545c12.648919 0 18.571117-1.98897 18.571117-11.17396v-115.29289c0-13.02884-8.291077-17.36433-23.308875-15.39772v-17.87833l50.953246-6.70437c14.615536-1.96662 11.844395 11.84439 9.877778 29.23107l-1.586702 13.81101c7.106637-12.22431 28.046634-43.82426 66.373308-43.82426 36.717624 0 60.33937 14.61554 60.808677 69.1221v74.64204c.044696 13.07353 3.598014 21.76687 23.711138 17.02911z"/>
      <path d="M2099.834743 2311.942757v13.00648l-32.00222 9.47552c-11.44213 3.1734-26.057665-7.88881-29.610983-36.33771-4.737758 12.24666-18.571118 39.51111-52.539949 39.51111-38.706588 0-77.81544-33.96883-77.81544-88.07313 0-53.63499 34.773356-96.09603 75.066647-96.09603 31.577604 0 45.008701 14.99545 55.288742 26.45993v-64.38434c0-13.02884-6.704375-17.7666-21.722174-17.38668v-15.39772l49.768807-7.5089c14.61554-2.36887 11.84439 11.8444 11.44213 29.23108v193.15303c0 13.9451 6.72672 16.71624 22.12444 14.34736zm-61.613203-111.38201c-13.83336-16.98442-28.046634-25.67775-46.215489-25.67775-26.459931 0-42.662169 31.59995-42.662169 69.52436 0 33.96883 17.386677 66.75322 44.248871 66.75322 25.677755 0 37.52215-18.97338 44.69583-33.52187l-.067043-77.07796zM2292.585513 2311.540497v16.20223c-14.21328 5.9222-25.65541 9.09561-34.75101 9.09561-12.24666 0-22.90662-12.24666-25.27549-38.72894-8.29108 18.97338-24.89558 39.91337-54.90883 40.22625-31.97987.40226-61.6132-16.58216-61.6132-50.14873 0-32.00221 20.53773-52.94221 114.93532-66.75322v-6.70437c0-29.23108-8.69334-44.22653-31.59995-44.22653-21.31991 0-31.59995 5.51994-31.59995 30.41552 0 8.29107-11.84439 12.62657-22.90661 12.62657-11.44214 0-18.54877-8.29108-18.95103-18.54877 0-28.04663 36.3377-42.28226 75.04429-42.28226 42.66217 0 69.52437 20.11313 69.52437 68.33993v76.22874c0 13.07353 6.70437 16.62684 22.10209 14.25797zm-61.61321-37.52215v-34.75101c-67.04374 11.46448-72.67542 30.81777-72.67542 46.93062 0 15.42006 11.17396 27.64437 28.04664 27.64437 26.86219.06704 38.39372-25.20845 44.62878-39.82398z" fill-rule="nonzero"/>
      <path d="M2415.834263 2323.004977c-7.88882 5.92219-20.11313 14.21327-43.04209 14.21327-29.23107 0-47.39993-17.38668-47.39993-58.10458v-101.50423h-19.75555v-18.97338c22.90661 0 34.75101-22.10209 45.43331-43.04208 3.93323-7.5089 14.21327-5.9222 14.21327 1.18444v39.10885h42.25991v13.02883c0 5.9222-2.36888 8.69334-8.29108 8.69334h-33.96883v107.82869c0 16.58215 4.3355 30.41551 16.58216 30.41551 8.74985-.26547 17.18786-3.31035 24.09105-8.69334 6.32446-4.2908 16.6045 10.70466 9.87778 15.84468z"/>
      <path d="M2516.556313 2319.451657v14.99545h-73.4576v-14.99545c10.65996 0 17.36433-1.98897 17.36433-11.17396v-119.65074c0-9.0956-3.15105-12.24665-11.03987-12.24665h-7.91116v-17.87834l45.43331-3.55331c9.07326-.78218 12.62657 3.55331 12.62657 12.24665v141.01535c.0447 9.25203 6.74907 11.241 16.98442 11.241zm-63.57982-225.53516c.27022-13.23775 11.17285-23.77642 24.41215-23.59719 13.23929.17923 23.85264 11.00918 23.7644 24.24939-.08823 13.24022-10.84499 23.92775-24.0855 23.93051-6.47164-.01088-12.66781-2.62028-17.1975-7.24242-4.5297-4.62214-7.0134-10.86975-6.89355-17.34029zM2718.402683 2243.602827c0 58.46215-43.06443 94.79986-87.69322 94.79986-45.41096 0-88.87766-36.33771-88.87766-91.62645 0-59.64659 43.4667-93.21316 88.09548-93.21316 45.41097 0 88.4754 33.56657 88.4754 90.03975zm-92.43098-69.1221c-26.45993 0-42.25991 16.98442-42.25991 60.04885 0 49.36654 22.12444 80.45249 50.55099 80.45249 26.45993 0 42.66217-16.17989 42.66217-59.62423 0-50.46159-22.12444-80.87711-50.95325-80.87711z" fill-rule="nonzero"/>
      <path d="M2950.262303 2313.127197l-5.14002 17.38668c-8.40539 2.75665-17.21311 4.08611-26.05767 3.93323-20.94 0-32.40448-13.02884-32.40448-28.42655v-80.9665c0-28.44889-5.14002-46.21548-29.61099-46.21548-26.8175 0-46.93062 24.5827-54.50656 33.1643v96.38656c0 9.07325 6.30211 11.17396 19.73321 11.17396v14.99545h-77.41318v-14.99545c12.64892 0 18.57112-1.98897 18.57112-11.17396v-115.29289c0-13.02884-8.29108-17.36433-23.30888-15.39772v-17.87833l50.95325-6.70437c14.61553-1.96662 11.84439 11.84439 9.87778 29.23107l-1.58671 13.81101c7.10664-12.22431 28.04664-43.82426 66.37331-43.82426 36.71763 0 60.33937 14.61554 60.80868 69.1221v74.64204c-.08939 13.07353 3.55332 21.76687 23.71114 17.02911z"/>
    </g>
  </g>
</svg>
