<?xml version="1.0" encoding="UTF-8" standalone="no"?>
<!-- Created with Inkscape (http://www.inkscape.org/) -->

<svg
   xmlns:dc="http://purl.org/dc/elements/1.1/"
   xmlns:cc="http://creativecommons.org/ns#"
   xmlns:rdf="http://www.w3.org/1999/02/22-rdf-syntax-ns#"
   xmlns:svg="http://www.w3.org/2000/svg"
   xmlns="http://www.w3.org/2000/svg"
   xmlns:xlink="http://www.w3.org/1999/xlink"
   xmlns:sodipodi="http://sodipodi.sourceforge.net/DTD/sodipodi-0.dtd"
   xmlns:inkscape="http://www.inkscape.org/namespaces/inkscape"
   width="173.33226mm"
   height="190.5mm"
   viewBox="0 0 173.33226 190.5"
   version="1.1"
   id="svg6140"
   inkscape:version="0.92.1 r15371"
   sodipodi:docname="Blue.svg"
   inkscape:export-filename="C:\Users\The Warden Eternal\Desktop\Resources\LbnV4\Blog\Posts\100-money-back-guarantee-logo\Red\Red.png"
   inkscape:export-xdpi="95.983284"
   inkscape:export-ydpi="95.983284">
  <defs
     id="defs6134">
    <linearGradient
       inkscape:collect="always"
       xlink:href="#linearGradient6199"
       id="linearGradient8202"
       gradientUnits="userSpaceOnUse"
       gradientTransform="matrix(2.1323092,0.57135047,-0.57135047,2.1323092,657.25405,-398.7917)"
       x1="-212.86862"
       y1="358.05151"
       x2="-212.86862"
       y2="342.58356" />
    <linearGradient
       id="linearGradient6199"
       inkscape:collect="always">
      <stop
         id="stop6195"
         offset="0"
         style="stop-color:#00ccff;stop-opacity:1" />
      <stop
         id="stop6197"
         offset="1"
         style="stop-color:#0b1728;stop-opacity:1" />
    </linearGradient>
    <linearGradient
       inkscape:collect="always"
       xlink:href="#linearGradient6277"
       id="linearGradient8204"
       gradientUnits="userSpaceOnUse"
       gradientTransform="matrix(0.56417343,0.15116982,-0.15116982,0.56417343,657.25405,-398.7917)"
       x1="-805.78516"
       y1="1291.228"
       x2="-805.78516"
       y2="1341.6331" />
    <linearGradient
       id="linearGradient6277"
       inkscape:collect="always">
      <stop
         id="stop6273"
         offset="0"
         style="stop-color:#252525;stop-opacity:1" />
      <stop
         id="stop6275"
         offset="1"
         style="stop-color:#ffffff;stop-opacity:1" />
    </linearGradient>
    <linearGradient
       inkscape:collect="always"
       xlink:href="#linearGradient6199"
       id="linearGradient8206"
       gradientUnits="userSpaceOnUse"
       gradientTransform="matrix(-2.1323092,0.57135052,0.57135052,2.1323092,-593.75449,-398.7917)"
       x1="-212.86862"
       y1="358.05151"
       x2="-212.86862"
       y2="342.58356" />
    <linearGradient
       inkscape:collect="always"
       xlink:href="#linearGradient6283"
       id="linearGradient8208"
       gradientUnits="userSpaceOnUse"
       gradientTransform="matrix(-0.56417343,0.15116982,0.15116982,0.56417343,-593.75449,-398.7917)"
       x1="-805.78516"
       y1="1291.228"
       x2="-805.78516"
       y2="1341.6331" />
    <linearGradient
       id="linearGradient6283"
       inkscape:collect="always">
      <stop
         id="stop6279"
         offset="0"
         style="stop-color:#171717;stop-opacity:1" />
      <stop
         id="stop6281"
         offset="1"
         style="stop-color:#ffffff;stop-opacity:1" />
    </linearGradient>
    <linearGradient
       inkscape:collect="always"
       xlink:href="#linearGradient5290"
       id="linearGradient8210"
       gradientUnits="userSpaceOnUse"
       gradientTransform="matrix(0.87546066,0,0,0.87546066,-41.908735,-76.609159)"
       x1="83.726089"
       y1="326.36874"
       x2="83.726089"
       y2="172.11667" />
    <linearGradient
       inkscape:collect="always"
       id="linearGradient5290">
      <stop
         style="stop-color:#d06000;stop-opacity:1"
         offset="0"
         id="stop5286" />
      <stop
         style="stop-color:#ffe88d;stop-opacity:1"
         offset="1"
         id="stop5288" />
    </linearGradient>
    <linearGradient
       inkscape:collect="always"
       xlink:href="#linearGradient5278"
       id="linearGradient8212"
       gradientUnits="userSpaceOnUse"
       gradientTransform="matrix(0,0.92400537,-0.92400537,0,261.92967,63.733945)"
       x1="12.435402"
       y1="249.11041"
       x2="155.83958"
       y2="249.11041" />
    <linearGradient
       inkscape:collect="always"
       id="linearGradient5278">
      <stop
         style="stop-color:#d06000;stop-opacity:1"
         offset="0"
         id="stop5274" />
      <stop
         style="stop-color:#fff1bb;stop-opacity:1"
         offset="1"
         id="stop5276" />
    </linearGradient>
    <linearGradient
       inkscape:collect="always"
       xlink:href="#linearGradient5284"
       id="linearGradient8214"
       gradientUnits="userSpaceOnUse"
       gradientTransform="matrix(0,-0.8812984,-0.8812984,0,251.29059,215.62761)"
       x1="-24.392439"
       y1="249.11041"
       x2="155.83958"
       y2="249.11041" />
    <linearGradient
       inkscape:collect="always"
       id="linearGradient5284">
      <stop
         style="stop-color:#d06000;stop-opacity:1"
         offset="0"
         id="stop5280" />
      <stop
         style="stop-color:#fff6cf;stop-opacity:1"
         offset="1"
         id="stop5282" />
    </linearGradient>
    <linearGradient
       inkscape:collect="always"
       xlink:href="#linearGradient5717"
       id="linearGradient8216"
       gradientUnits="userSpaceOnUse"
       gradientTransform="matrix(0.88088056,0,0,-0.88088056,-42.365494,360.91388)"
       x1="82.179977"
       y1="313.13959"
       x2="82.179977"
       y2="184.81667" />
    <linearGradient
       id="linearGradient5717"
       inkscape:collect="always">
      <stop
         id="stop5713"
         offset="0"
         style="stop-color:#111111;stop-opacity:1" />
      <stop
         id="stop5715"
         offset="1"
         style="stop-color:#333333;stop-opacity:1" />
    </linearGradient>
    <linearGradient
       inkscape:collect="always"
       xlink:href="#linearGradient4375"
       id="linearGradient8218"
       gradientUnits="userSpaceOnUse"
       gradientTransform="matrix(0.84488844,0,0,0.84488844,-39.336646,-68.993292)"
       x1="82.179977"
       y1="313.13959"
       x2="82.179977"
       y2="184.81667" />
    <linearGradient
       inkscape:collect="always"
       id="linearGradient4375">
      <stop
         style="stop-color:#1a1a1a;stop-opacity:1;"
         offset="0"
         id="stop4371" />
      <stop
         style="stop-color:#333333;stop-opacity:1"
         offset="1"
         id="stop4373" />
    </linearGradient>
    <linearGradient
       inkscape:collect="always"
       xlink:href="#linearGradient5711"
       id="linearGradient8220"
       gradientUnits="userSpaceOnUse"
       gradientTransform="matrix(0.61419576,0,0,-0.61419576,-19.927237,294.48009)"
       x1="82.179977"
       y1="313.13959"
       x2="82.179977"
       y2="184.81667" />
    <linearGradient
       id="linearGradient5711"
       inkscape:collect="always">
      <stop
         id="stop5707"
         offset="0"
         style="stop-color:#101010;stop-opacity:1" />
      <stop
         id="stop5709"
         offset="1"
         style="stop-color:#333333;stop-opacity:1" />
    </linearGradient>
    <linearGradient
       inkscape:collect="always"
       xlink:href="#linearGradient5296"
       id="linearGradient8222"
       gradientUnits="userSpaceOnUse"
       gradientTransform="matrix(0,-0.53506675,-0.53506675,0,165.04056,186.49658)"
       x1="12.435402"
       y1="249.11041"
       x2="155.83958"
       y2="249.11041" />
    <linearGradient
       inkscape:collect="always"
       id="linearGradient5296">
      <stop
         style="stop-color:#d07600;stop-opacity:1"
         offset="0"
         id="stop5292" />
      <stop
         style="stop-color:#fff8dd;stop-opacity:1"
         offset="1"
         id="stop5294" />
    </linearGradient>
    <linearGradient
       inkscape:collect="always"
       xlink:href="#linearGradient4375"
       id="linearGradient8224"
       gradientUnits="userSpaceOnUse"
       gradientTransform="matrix(2.1243685,0,0,2.1243685,336.8186,-399.75175)"
       x1="-141.76218"
       y1="251.61273"
       x2="-141.76218"
       y2="245.95329" />
    <linearGradient
       inkscape:collect="always"
       xlink:href="#linearGradient6199"
       id="linearGradient8226"
       gradientUnits="userSpaceOnUse"
       gradientTransform="matrix(1.9851859,-0.19838913,0,1.9851859,442.3364,-1037.0888)"
       x1="-250.48135"
       y1="586.66168"
       x2="-241.17229"
       y2="587.59198" />
    <linearGradient
       inkscape:collect="always"
       xlink:href="#linearGradient6199"
       id="linearGradient8228"
       gradientUnits="userSpaceOnUse"
       gradientTransform="matrix(1.9851859,-0.19838913,0,1.9851859,442.3364,-1037.0888)"
       x1="-164.18788"
       y1="599.1062"
       x2="-171.34637"
       y2="598.39081" />
    <linearGradient
       inkscape:collect="always"
       xlink:href="#linearGradient6271"
       id="linearGradient8230"
       gradientUnits="userSpaceOnUse"
       gradientTransform="matrix(0.49776188,0,0,0.49776188,470.27798,-770.11246)"
       x1="-1025.6169"
       y1="1930.6174"
       x2="-1046.8204"
       y2="1930.6174" />
    <linearGradient
       id="linearGradient6271"
       inkscape:collect="always">
      <stop
         id="stop6267"
         offset="0"
         style="stop-color:#414141;stop-opacity:1" />
      <stop
         id="stop6269"
         offset="1"
         style="stop-color:#ffffff;stop-opacity:1" />
    </linearGradient>
    <linearGradient
       inkscape:collect="always"
       xlink:href="#linearGradient6271"
       id="linearGradient8232"
       gradientUnits="userSpaceOnUse"
       gradientTransform="matrix(0.49776188,0,0,0.49776188,470.27798,-770.11246)"
       x1="-734.89648"
       y1="1929.5977"
       x2="-709.88867"
       y2="1929.5977" />
    <linearGradient
       inkscape:collect="always"
       xlink:href="#linearGradient6215"
       id="linearGradient8234"
       gradientUnits="userSpaceOnUse"
       gradientTransform="matrix(1.9851859,-0.19838913,0,1.9851859,442.3364,-1037.0888)"
       x1="-243.07352"
       y1="587.41449"
       x2="-170.57666"
       y2="587.41449" />
    <linearGradient
       id="linearGradient6215"
       inkscape:collect="always">
      <stop
         id="stop6207"
         offset="0"
         style="stop-color:#00ccff;stop-opacity:1" />
      <stop
         style="stop-color:#162d50;stop-opacity:1"
         offset="0.3348189"
         id="stop6209" />
      <stop
         id="stop6211"
         offset="0.72320598"
         style="stop-color:#006295;stop-opacity:1" />
      <stop
         id="stop6213"
         offset="1"
         style="stop-color:#00ccff;stop-opacity:1" />
    </linearGradient>
    <linearGradient
       inkscape:collect="always"
       xlink:href="#linearGradient6271"
       id="linearGradient8236"
       gradientUnits="userSpaceOnUse"
       gradientTransform="matrix(0.49776188,0,0,0.49776188,470.27798,-770.11246)"
       x1="-1025.7664"
       y1="1860.8109"
       x2="-1049.0703"
       y2="1860.8109" />
    <linearGradient
       inkscape:collect="always"
       xlink:href="#linearGradient6271"
       id="linearGradient8238"
       gradientUnits="userSpaceOnUse"
       gradientTransform="matrix(0.49776188,0,0,0.49776188,470.27798,-770.11246)"
       x1="-733.68359"
       y1="1853.3672"
       x2="-710.38867"
       y2="1853.3672" />
    <linearGradient
       inkscape:collect="always"
       xlink:href="#linearGradient6237"
       id="linearGradient8240"
       gradientUnits="userSpaceOnUse"
       gradientTransform="matrix(1.8813048,0,0,1.8813048,470.27798,-770.11246)"
       x1="-268.43735"
       y1="489.84921"
       x2="-197.42773"
       y2="489.84921" />
    <linearGradient
       id="linearGradient6237"
       inkscape:collect="always">
      <stop
         id="stop6229"
         offset="0"
         style="stop-color:#ffffff;stop-opacity:1" />
      <stop
         style="stop-color:#5d5d5d;stop-opacity:1"
         offset="0.32617113"
         id="stop6231" />
      <stop
         style="stop-color:#8c8881;stop-opacity:1"
         offset="0.71563488"
         id="stop6233" />
      <stop
         id="stop6235"
         offset="1"
         style="stop-color:#ffffff;stop-opacity:1" />
    </linearGradient>
    <linearGradient
       inkscape:collect="always"
       xlink:href="#linearGradient6247"
       id="linearGradient8242"
       gradientUnits="userSpaceOnUse"
       gradientTransform="matrix(1.8813048,0,0,1.8813048,470.27798,-733.77158)"
       x1="-267.70975"
       y1="489.84921"
       x2="-199.27983"
       y2="489.84921" />
    <linearGradient
       id="linearGradient6247"
       inkscape:collect="always">
      <stop
         id="stop6239"
         offset="0"
         style="stop-color:#ffffff;stop-opacity:1" />
      <stop
         style="stop-color:#5d5d5d;stop-opacity:1"
         offset="0.32617113"
         id="stop6241" />
      <stop
         style="stop-color:#888888;stop-opacity:1"
         offset="0.71563488"
         id="stop6243" />
      <stop
         id="stop6245"
         offset="1"
         style="stop-color:#ffffff;stop-opacity:1" />
    </linearGradient>
  </defs>
  <sodipodi:namedview
     id="base"
     pagecolor="#ffffff"
     bordercolor="#666666"
     borderopacity="1.0"
     inkscape:pageopacity="0.0"
     inkscape:pageshadow="2"
     inkscape:zoom="1"
     inkscape:cx="526.12829"
     inkscape:cy="387.71435"
     inkscape:document-units="px"
     inkscape:current-layer="layer1"
     showgrid="false"
     inkscape:showpageshadow="false"
     fit-margin-top="0"
     fit-margin-left="0"
     fit-margin-right="0"
     fit-margin-bottom="0"
     inkscape:window-width="3840"
     inkscape:window-height="2050"
     inkscape:window-x="-12"
     inkscape:window-y="-12"
     inkscape:window-maximized="1" />
  <metadata
     id="metadata6137">
    <rdf:RDF>
      <cc:Work
         rdf:about="">
        <dc:format>image/svg+xml</dc:format>
        <dc:type
           rdf:resource="http://purl.org/dc/dcmitype/StillImage" />
        <dc:title></dc:title>
      </cc:Work>
    </rdf:RDF>
  </metadata>
  <g
     inkscape:label="Layer 1"
     inkscape:groupmode="layer"
     id="layer1"
     transform="translate(54.916085,-65.678589)">
    <path
       style="color:#000000;font-style:normal;font-variant:normal;font-weight:normal;font-stretch:normal;font-size:medium;line-height:normal;font-family:sans-serif;font-variant-ligatures:normal;font-variant-position:normal;font-variant-caps:normal;font-variant-numeric:normal;font-variant-alternates:normal;font-feature-settings:normal;text-indent:0;text-align:start;text-decoration:none;text-decoration-line:none;text-decoration-style:solid;text-decoration-color:#000000;letter-spacing:normal;word-spacing:normal;text-transform:none;writing-mode:lr-tb;direction:ltr;text-orientation:mixed;dominant-baseline:auto;baseline-shift:baseline;text-anchor:start;white-space:normal;shape-padding:0;clip-rule:nonzero;display:inline;overflow:visible;visibility:visible;opacity:1;isolation:auto;mix-blend-mode:normal;color-interpolation:sRGB;color-interpolation-filters:linearRGB;solid-color:#000000;solid-opacity:1;vector-effect:none;fill:url(#linearGradient8202);fill-opacity:1;fill-rule:nonzero;stroke:none;stroke-width:5.58833122;stroke-linecap:butt;stroke-linejoin:miter;stroke-miterlimit:4;stroke-dasharray:none;stroke-dashoffset:0;stroke-opacity:1;color-rendering:auto;image-rendering:auto;shape-rendering:auto;text-rendering:auto;enable-background:accumulate"
       d="m -13.138754,161.73153 -1.361378,5.08093 -19.57047,73.03907 32.5092375,0.5469 28.4236075,15.78013 20.932392,-78.12 z"
       id="path7958"
       inkscape:connector-curvature="0"
       sodipodi:nodetypes="ccccccc" />
    <path
       style="color:#000000;font-style:normal;font-variant:normal;font-weight:normal;font-stretch:normal;font-size:medium;line-height:normal;font-family:sans-serif;font-variant-ligatures:normal;font-variant-position:normal;font-variant-caps:normal;font-variant-numeric:normal;font-variant-alternates:normal;font-feature-settings:normal;text-indent:0;text-align:start;text-decoration:none;text-decoration-line:none;text-decoration-style:solid;text-decoration-color:#000000;letter-spacing:normal;word-spacing:normal;text-transform:none;writing-mode:lr-tb;direction:ltr;text-orientation:mixed;dominant-baseline:auto;baseline-shift:baseline;text-anchor:start;white-space:normal;shape-padding:0;clip-rule:nonzero;display:inline;overflow:visible;visibility:visible;opacity:1;isolation:auto;mix-blend-mode:normal;color-interpolation:sRGB;color-interpolation-filters:linearRGB;solid-color:#000000;solid-opacity:1;vector-effect:none;fill:url(#linearGradient8204);fill-opacity:1;fill-rule:nonzero;stroke:none;stroke-width:2.169204;stroke-linecap:butt;stroke-linejoin:miter;stroke-miterlimit:4;stroke-dasharray:none;stroke-dashoffset:0;stroke-opacity:1;color-rendering:auto;image-rendering:auto;shape-rendering:auto;text-rendering:auto;enable-background:accumulate"
       d="m -10.863993,165.67077 -0.528968,1.97458 -18.503906,69.0573 29.19386176,0.49303 25.52572824,14.16898 19.032874,-71.03188 z m 1.4438451,2.5009 50.7759329,13.60529 -17.828821,66.53718 -23.68721118,-13.14962 -27.08817782,-0.45567 z"
       id="path7960"
       inkscape:connector-curvature="0"
       sodipodi:nodetypes="ccccccccccccc" />
    <path
       style="color:#000000;font-style:normal;font-variant:normal;font-weight:normal;font-stretch:normal;font-size:medium;line-height:normal;font-family:sans-serif;font-variant-ligatures:normal;font-variant-position:normal;font-variant-caps:normal;font-variant-numeric:normal;font-variant-alternates:normal;font-feature-settings:normal;text-indent:0;text-align:start;text-decoration:none;text-decoration-line:none;text-decoration-style:solid;text-decoration-color:#000000;letter-spacing:normal;word-spacing:normal;text-transform:none;writing-mode:lr-tb;direction:ltr;text-orientation:mixed;dominant-baseline:auto;baseline-shift:baseline;text-anchor:start;white-space:normal;shape-padding:0;clip-rule:nonzero;display:inline;overflow:visible;visibility:visible;opacity:0.28400005;isolation:auto;mix-blend-mode:normal;color-interpolation:sRGB;color-interpolation-filters:linearRGB;solid-color:#000000;solid-opacity:1;vector-effect:none;fill:#000000;fill-opacity:1;fill-rule:nonzero;stroke:none;stroke-width:3.96875;stroke-linecap:butt;stroke-linejoin:miter;stroke-miterlimit:4;stroke-dasharray:none;stroke-dashoffset:0;stroke-opacity:1;color-rendering:auto;image-rendering:auto;shape-rendering:auto;text-rendering:auto;enable-background:accumulate"
       d="m 24.538097,171.82723 -13.403542,3.59219 18.682561,69.73144 17.978062,-67.09196 z"
       id="path7962"
       inkscape:connector-curvature="0" />
    <path
       sodipodi:nodetypes="ccccccc"
       inkscape:connector-curvature="0"
       id="path7964"
       d="m 76.638727,161.73153 1.361446,5.08093 19.57047,73.03907 -32.509781,0.5469 -28.42354,15.78013 -20.931916,-78.12 z"
       style="color:#000000;font-style:normal;font-variant:normal;font-weight:normal;font-stretch:normal;font-size:medium;line-height:normal;font-family:sans-serif;font-variant-ligatures:normal;font-variant-position:normal;font-variant-caps:normal;font-variant-numeric:normal;font-variant-alternates:normal;font-feature-settings:normal;text-indent:0;text-align:start;text-decoration:none;text-decoration-line:none;text-decoration-style:solid;text-decoration-color:#000000;letter-spacing:normal;word-spacing:normal;text-transform:none;writing-mode:lr-tb;direction:ltr;text-orientation:mixed;dominant-baseline:auto;baseline-shift:baseline;text-anchor:start;white-space:normal;shape-padding:0;clip-rule:nonzero;display:inline;overflow:visible;visibility:visible;opacity:1;isolation:auto;mix-blend-mode:normal;color-interpolation:sRGB;color-interpolation-filters:linearRGB;solid-color:#000000;solid-opacity:1;vector-effect:none;fill:url(#linearGradient8206);fill-opacity:1;fill-rule:nonzero;stroke:none;stroke-width:5.58833122;stroke-linecap:butt;stroke-linejoin:miter;stroke-miterlimit:4;stroke-dasharray:none;stroke-dashoffset:0;stroke-opacity:1;color-rendering:auto;image-rendering:auto;shape-rendering:auto;text-rendering:auto;enable-background:accumulate" />
    <path
       sodipodi:nodetypes="ccccccccccccc"
       inkscape:connector-curvature="0"
       id="path7966"
       d="m 74.363491,165.67077 0.529511,1.97458 18.503431,69.0573 -29.193387,0.49303 -25.525728,14.16898 -19.032874,-71.03188 z m -1.443845,2.5009 -50.775458,13.60529 17.828345,66.53718 23.68728,-13.14962 27.088653,-0.45567 z"
       style="color:#000000;font-style:normal;font-variant:normal;font-weight:normal;font-stretch:normal;font-size:medium;line-height:normal;font-family:sans-serif;font-variant-ligatures:normal;font-variant-position:normal;font-variant-caps:normal;font-variant-numeric:normal;font-variant-alternates:normal;font-feature-settings:normal;text-indent:0;text-align:start;text-decoration:none;text-decoration-line:none;text-decoration-style:solid;text-decoration-color:#000000;letter-spacing:normal;word-spacing:normal;text-transform:none;writing-mode:lr-tb;direction:ltr;text-orientation:mixed;dominant-baseline:auto;baseline-shift:baseline;text-anchor:start;white-space:normal;shape-padding:0;clip-rule:nonzero;display:inline;overflow:visible;visibility:visible;opacity:1;isolation:auto;mix-blend-mode:normal;color-interpolation:sRGB;color-interpolation-filters:linearRGB;solid-color:#000000;solid-opacity:1;vector-effect:none;fill:url(#linearGradient8208);fill-opacity:1;fill-rule:nonzero;stroke:none;stroke-width:2.169204;stroke-linecap:butt;stroke-linejoin:miter;stroke-miterlimit:4;stroke-dasharray:none;stroke-dashoffset:0;stroke-opacity:1;color-rendering:auto;image-rendering:auto;shape-rendering:auto;text-rendering:auto;enable-background:accumulate" />
    <path
       style="opacity:1;vector-effect:none;fill:url(#linearGradient8210);fill-opacity:1;stroke:none;stroke-width:0.13075702;stroke-linecap:round;stroke-linejoin:round;stroke-miterlimit:4;stroke-dasharray:none;stroke-dashoffset:0;stroke-opacity:1"
       inkscape:transform-center-y="-2.8012502e-006"
       d="m 97.393211,179.3768 -8.666535,3.49695 -0.647506,9.32301 -9.203995,1.61849 -2.572089,8.98472 -9.339446,-0.33048 -4.383773,8.25359 -9.066777,-2.26511 -6.003488,7.16189 -8.397806,-4.10071 -7.361809,5.75711 -7.36181,-5.75711 -8.397738,4.10071 -6.0040995,-7.16189 -9.06677666,2.26511 -4.38377324,-8.25359 -9.3394466,0.33048 -2.571545,-8.98472 -9.204538,-1.61849 -0.647506,-9.32301 -8.666535,-3.49695 1.304725,-9.25392 -7.749688,-5.22237 3.199895,-8.78045 -6.495164,-6.71953 4.956217,-7.92312 -4.956217,-7.92311 6.495164,-6.7196 -3.199895,-8.78046 7.749688,-5.22236 -1.304725,-9.25392 8.666535,-3.49682 0.647506,-9.323075 9.204538,-1.61856 2.571545,-8.98465 9.3394466,0.330478 4.38377324,-8.25359 9.06677666,2.265046 6.0040995,-7.161825 8.397738,4.100643 7.36181,-5.75704 7.361809,5.75704 8.397806,-4.100643 6.003488,7.161825 9.066777,-2.265046 4.383773,8.25359 9.339446,-0.330478 2.572089,8.98465 9.203995,1.61856 0.647506,9.323075 8.666535,3.49682 -1.304725,9.25392 7.750234,5.22236 -3.1999,8.78046 6.49469,6.7196 -4.95567,7.92311 4.95567,7.92312 -6.49469,6.71953 3.1999,8.78045 -7.750234,5.22237 z"
       id="path7968"
       inkscape:connector-curvature="0"
       inkscape:transform-center-x="1.0287285e-006" />
    <path
       style="opacity:1;vector-effect:none;fill:url(#linearGradient8212);fill-opacity:1;stroke:none;stroke-width:0.1551391;stroke-linecap:round;stroke-linejoin:round;stroke-miterlimit:4;stroke-dasharray:none;stroke-dashoffset:0;stroke-opacity:1"
       d="M 31.749987,207.73051 A 66.253112,66.253112 0 0 1 -34.50345,141.47741 66.253112,66.253112 0 0 1 31.749987,75.224248 66.253112,66.253112 0 0 1 98.002948,141.47741 66.253112,66.253112 0 0 1 31.749987,207.73051 Z"
       id="path7970"
       inkscape:connector-curvature="0" />
    <path
       inkscape:connector-curvature="0"
       id="path7972"
       d="m 31.749987,78.28645 a 63.190944,63.190944 0 0 0 -63.191303,63.19096 63.190944,63.190944 0 0 0 63.191303,63.19097 63.190944,63.190944 0 0 0 63.19137,-63.19097 63.190944,63.190944 0 0 0 -63.19137,-63.19096 z"
       style="opacity:1;vector-effect:none;fill:url(#linearGradient8214);fill-opacity:1;stroke:none;stroke-width:0.14965461;stroke-linecap:round;stroke-linejoin:round;stroke-miterlimit:4;stroke-dasharray:none;stroke-dashoffset:0;stroke-opacity:1" />
    <path
       style="opacity:1;vector-effect:none;fill:url(#linearGradient8216);fill-opacity:1;stroke:none;stroke-width:0.14447708;stroke-linecap:round;stroke-linejoin:round;stroke-miterlimit:4;stroke-dasharray:none;stroke-dashoffset:0;stroke-opacity:1"
       d="m 31.749987,200.11722 a 58.639831,58.639831 0 0 1 -58.63988,-58.63981 58.639831,58.639831 0 0 1 58.63988,-58.639876 58.639831,58.639831 0 0 1 58.639879,58.639876 58.639831,58.639831 0 0 1 -58.639879,58.63981 z"
       id="path7974"
       inkscape:connector-curvature="0" />
    <path
       inkscape:connector-curvature="0"
       id="path7976"
       d="m 31.749987,85.233481 a 56.24385,56.24385 0 0 0 -56.243864,56.243799 56.24385,56.24385 0 0 0 56.243864,56.24393 56.24385,56.24385 0 0 0 56.24332,-56.24393 56.24385,56.24385 0 0 0 -56.24332,-56.243799 z"
       style="opacity:1;vector-effect:none;fill:url(#linearGradient8218);fill-opacity:1;stroke:none;stroke-width:0.14218016;stroke-linecap:round;stroke-linejoin:round;stroke-miterlimit:4;stroke-dasharray:none;stroke-dashoffset:0;stroke-opacity:1" />
    <path
       inkscape:connector-curvature="0"
       id="path7978"
       d="m 31.749987,182.36428 a 40.886747,40.886747 0 0 1 -40.8868003,-40.88666 40.886747,40.886747 0 0 1 40.8868003,-40.8868 40.886747,40.886747 0 0 1 40.886324,40.8868 40.886747,40.886747 0 0 1 -40.886324,40.88666 z"
       style="opacity:1;vector-effect:none;fill:url(#linearGradient8220);fill-opacity:1;stroke:none;stroke-width:0.09728745;stroke-linecap:round;stroke-linejoin:round;stroke-miterlimit:4;stroke-dasharray:none;stroke-dashoffset:0;stroke-opacity:1" />
    <path
       style="opacity:1;vector-effect:none;fill:url(#linearGradient8222);fill-opacity:1;stroke:none;stroke-width:0.09452486;stroke-linecap:round;stroke-linejoin:round;stroke-miterlimit:4;stroke-dasharray:none;stroke-dashoffset:0;stroke-opacity:1"
       d="M 31.749987,103.11196 A 38.365402,38.365402 0 0 0 -6.6160791,141.47741 38.365402,38.365402 0 0 0 31.749987,179.8428 38.365402,38.365402 0 0 0 70.115509,141.47741 38.365402,38.365402 0 0 0 31.749987,103.11196 Z"
       id="path7980"
       inkscape:connector-curvature="0" />
    <path
       inkscape:connector-curvature="0"
       id="path7982"
       style="font-style:normal;font-variant:normal;font-weight:900;font-stretch:normal;font-size:16.93333244px;line-height:1.25;font-family:Montserrat;-inkscape-font-specification:'Montserrat, Heavy';font-variant-ligatures:normal;font-variant-caps:normal;font-variant-numeric:normal;font-feature-settings:normal;text-align:start;letter-spacing:-0.22489583px;word-spacing:0px;writing-mode:lr-tb;text-anchor:start;fill:#ffffff;fill-opacity:1;stroke:none;stroke-width:0.05298458"
       d="m -17.562678,118.69151 8.7655128,5.24411 1.5111451,-2.52588 -4.8016559,-2.87266 4.8490698,0.86345 1.1370913,-1.90065 -3.0536471,-3.86448 4.8016468,2.87266 1.5111451,-2.52587 -8.7655129,-5.24411 -1.83282,3.06355 3.431995,4.65117 -5.72115,-0.82485 z" />
    <path
       inkscape:connector-curvature="0"
       id="path7984"
       style="font-style:normal;font-variant:normal;font-weight:900;font-stretch:normal;font-size:16.93333244px;line-height:1.25;font-family:Montserrat;-inkscape-font-specification:'Montserrat, Heavy';font-variant-ligatures:normal;font-variant-caps:normal;font-variant-numeric:normal;font-feature-settings:normal;text-align:start;letter-spacing:-0.22489583px;word-spacing:0px;writing-mode:lr-tb;text-anchor:start;fill:#ffffff;fill-opacity:1;stroke:none;stroke-width:0.05298458"
       d="m -5.2567981,101.98355 c -2.3722374,2.22058 -2.6118542,5.41878 -0.5406308,7.63146 2.0811795,2.22331 5.31808878,2.22709 7.6903347,0.007 2.3722374,-2.22058 2.5720214,-5.46134 0.500798,-7.67401 -2.06125874,-2.20203 -5.2782645,-2.184544 -7.6505019,0.0361 z m 1.9537728,2.02322 c 0.8510243,-0.79662 2.218938,-0.69991 3.17488394,0.32132 0.95594594,1.02124 0.98213117,2.41382 0.13109826,3.21044 -0.85102432,0.79664 -2.302674,0.73839 -3.2586285,-0.28284 -0.955946,-1.02124 -0.9090225,-2.44233 -0.047328,-3.24892 z" />
    <path
       inkscape:connector-curvature="0"
       id="path7986"
       style="font-style:normal;font-variant:normal;font-weight:900;font-stretch:normal;font-size:16.93333244px;line-height:1.25;font-family:Montserrat;-inkscape-font-specification:'Montserrat, Heavy';font-variant-ligatures:normal;font-variant-caps:normal;font-variant-numeric:normal;font-feature-settings:normal;text-align:start;letter-spacing:-0.22489583px;word-spacing:0px;writing-mode:lr-tb;text-anchor:start;fill:#ffffff;fill-opacity:1;stroke:none;stroke-width:0.05298458"
       d="m 1.7665662,96.277026 4.8400427,8.994944 2.7074651,-1.45685 -2.4718067,-4.593706 6.0133187,2.688066 2.489335,-1.33946 -4.840043,-8.994943 -2.6946348,1.449938 2.4856178,4.619374 -6.0399596,-2.706837 z" />
    <path
       inkscape:connector-curvature="0"
       id="path7988"
       style="font-style:normal;font-variant:normal;font-weight:900;font-stretch:normal;font-size:16.93333244px;line-height:1.25;font-family:Montserrat;-inkscape-font-specification:'Montserrat, Heavy';font-variant-ligatures:normal;font-variant-caps:normal;font-variant-numeric:normal;font-feature-settings:normal;text-align:start;letter-spacing:-0.22489583px;word-spacing:0px;writing-mode:lr-tb;text-anchor:start;fill:#ffffff;fill-opacity:1;stroke:none;stroke-width:0.05298458"
       d="m 14.018845,90.280315 2.572761,9.885135 8.489083,-2.209411 -0.645939,-2.481866 -5.217547,1.357949 -0.3193,-1.226825 4.625277,-1.203807 -0.645939,-2.481857 -4.625286,1.203806 -0.315626,-1.212729 5.090631,-1.324915 -0.645939,-2.481857 z" />
    <path
       inkscape:connector-curvature="0"
       id="path7990"
       style="font-style:normal;font-variant:normal;font-weight:900;font-stretch:normal;font-size:16.93333244px;line-height:1.25;font-family:Montserrat;-inkscape-font-specification:'Montserrat, Heavy';font-variant-ligatures:normal;font-variant-caps:normal;font-variant-numeric:normal;font-feature-settings:normal;text-align:start;letter-spacing:-0.22489583px;word-spacing:0px;writing-mode:lr-tb;text-anchor:start;fill:#ffffff;fill-opacity:1;stroke:none;stroke-width:0.05298458"
       d="m 35.826874,87.339894 -3.364944,0.08269 -1.884424,3.981739 -2.150588,-3.882565 -3.364945,0.0827 3.90382,7.016979 0.07624,3.102739 3.379512,-0.08304 -0.07805,-3.175572 z" />
    <path
       inkscape:connector-curvature="0"
       id="path7992"
       style="font-style:normal;font-variant:normal;font-weight:900;font-stretch:normal;font-size:16.93333244px;line-height:1.25;font-family:Montserrat;-inkscape-font-specification:'Montserrat, Heavy';font-variant-ligatures:normal;font-variant-caps:normal;font-variant-numeric:normal;font-feature-settings:normal;text-align:start;letter-spacing:-0.22489583px;word-spacing:0px;writing-mode:lr-tb;text-anchor:start;fill:#ffffff;fill-opacity:1;stroke:none;stroke-width:0.05298458"
       d="m 48.681198,90.183939 -4.929458,-1.567862 -3.095984,9.733953 5.165521,1.642949 c 2.374475,0.755221 4.25587,0.176251 4.785857,-1.490054 0.388648,-1.221946 -0.06592,-2.436861 -1.148407,-3.071683 1.09694,0.01248 1.996264,-0.603603 2.301004,-1.561717 0.472565,-1.485786 -0.731827,-2.939191 -3.078533,-3.685586 z m -1.372973,3.691756 -1.541323,-0.490231 0.441646,-1.388583 1.541323,0.490231 c 0.444349,0.141329 0.652041,0.497906 0.51954,0.914486 -0.136907,0.43046 -0.516838,0.615426 -0.961186,0.474097 z m -1.15271,3.624197 -1.541332,-0.49023 0.472574,-1.485786 1.541323,0.49023 c 0.597089,0.189914 0.89756,0.591289 0.760654,1.021749 -0.150167,0.472118 -0.63613,0.653943 -1.233219,0.464037 z" />
    <path
       inkscape:connector-curvature="0"
       id="path7994"
       style="font-style:normal;font-variant:normal;font-weight:900;font-stretch:normal;font-size:16.93333244px;line-height:1.25;font-family:Montserrat;-inkscape-font-specification:'Montserrat, Heavy';font-variant-ligatures:normal;font-variant-caps:normal;font-variant-numeric:normal;font-feature-settings:normal;text-align:start;letter-spacing:-0.22489583px;word-spacing:0px;writing-mode:lr-tb;text-anchor:start;fill:#ffffff;fill-opacity:1;stroke:none;stroke-width:0.05298458"
       d="m 56.892191,105.51881 3.064662,1.88715 1.819706,-10.875171 -2.952994,-1.818389 -9.028483,6.43615 2.952993,1.8184 1.203058,-0.95329 3.263189,2.00939 z m -0.928315,-5.10639 2.484422,-1.978163 -0.672917,3.093643 z" />
    <path
       inkscape:connector-curvature="0"
       id="path7996"
       style="font-style:normal;font-variant:normal;font-weight:900;font-stretch:normal;font-size:16.93333244px;line-height:1.25;font-family:Montserrat;-inkscape-font-specification:'Montserrat, Heavy';font-variant-ligatures:normal;font-variant-caps:normal;font-variant-numeric:normal;font-feature-settings:normal;text-align:start;letter-spacing:-0.22489583px;word-spacing:0px;writing-mode:lr-tb;text-anchor:start;fill:#ffffff;fill-opacity:1;stroke:none;stroke-width:0.05298458"
       d="m 69.494512,108.62877 3.020739,-0.23512 c 0.07332,-1.54501 -0.604187,-3.27077 -1.69842,-4.38141 -2.249821,-2.28357 -5.443034,-2.41036 -7.581274,-0.30371 -2.169381,2.13733 -2.162162,5.32124 0.03649,7.5529 1.10446,1.12102 2.892293,1.79376 4.572244,1.73414 l 0.113965,-2.85329 c -0.979024,0.0237 -1.945064,-0.31327 -2.456395,-0.83227 -0.859018,-0.8719 -0.777003,-2.20047 0.1987,-3.16176 0.965317,-0.95106 2.284578,-1.00307 3.143605,-0.13116 0.55223,0.56051 0.812445,1.59281 0.650307,2.61168 z" />
    <path
       inkscape:connector-curvature="0"
       id="path7998"
       style="font-style:normal;font-variant:normal;font-weight:900;font-stretch:normal;font-size:16.93333244px;line-height:1.25;font-family:Montserrat;-inkscape-font-specification:'Montserrat, Heavy';font-variant-ligatures:normal;font-variant-caps:normal;font-variant-numeric:normal;font-feature-settings:normal;text-align:start;letter-spacing:-0.22489583px;word-spacing:0px;writing-mode:lr-tb;text-anchor:start;fill:#ffffff;fill-opacity:1;stroke:none;stroke-width:0.05298458"
       d="m 72.210707,123.79836 3.257312,-6.44791 5.396368,1.01683 -1.997169,-3.33878 -4.601998,-0.79586 3.038671,-1.81765 -1.735366,-2.90112 -8.765882,5.2435 1.735367,2.90112 2.063298,-1.2342 1.459008,0.28185 -1.921577,3.62838 z" />
    <path
       style="font-style:normal;font-variant:normal;font-weight:900;font-stretch:normal;font-size:10.86084557px;line-height:1.25;font-family:Montserrat;-inkscape-font-specification:'Montserrat, Heavy';font-variant-ligatures:normal;font-variant-caps:normal;font-variant-numeric:normal;font-feature-settings:normal;text-align:start;letter-spacing:0px;word-spacing:0px;writing-mode:lr-tb;text-anchor:start;fill:url(#linearGradient8224);fill-opacity:1;stroke:none;stroke-width:0.0756416"
       d="m 18.376808,121.21352 c -4.244925,0 -6.552224,2.93008 -6.552224,8.23674 0,5.30667 2.307299,8.23681 6.552224,8.23681 4.199752,0 6.530215,-2.93014 6.530215,-8.23681 0,-5.30666 -2.330463,-8.23674 -6.530215,-8.23674 z m 13.694418,0 c -4.244857,0 -6.552768,2.93008 -6.552768,8.23674 0,5.30667 2.307911,8.23681 6.552768,8.23681 4.199208,0 6.529671,-2.93014 6.529671,-8.23681 0,-5.30666 -2.330463,-8.23674 -6.529671,-8.23674 z m 11.820713,0.0694 c -2.860654,0 -4.729331,1.93837 -4.729331,4.93794 0,3.0224 1.868677,4.98278 4.729331,4.98278 2.86113,0 4.7061,-1.96038 4.7061,-4.98278 0,-2.99957 -1.84497,-4.93794 -4.7061,-4.93794 z m -41.0675603,0.0922 v 4.22217 h 2.8149375 v 11.95175 h 5.3525188 v -16.17392 z m 51.2894133,0 -11.237537,16.17392 h 4.822463 L 58.9351,121.37512 Z m -10.221853,2.63031 c 0.899321,0 1.476859,0.87717 1.476859,2.21545 0,1.36125 -0.577538,2.23727 -1.476859,2.23727 -0.899388,0 -1.476315,-0.87602 -1.476315,-2.23727 0,-1.33828 0.576927,-2.21545 1.476315,-2.21545 z m -25.515131,0.80802 c 1.130826,0 1.476316,1.22233 1.476316,4.63708 0,3.3916 -0.34549,4.63817 -1.476316,4.63817 -1.153377,0 -1.499479,-1.24657 -1.499479,-4.63817 0,-3.41475 0.346102,-4.63708 1.499479,-4.63708 z m 13.694418,0 c 1.130282,0 1.475772,1.22233 1.475772,4.63708 0,3.3916 -0.34549,4.63817 -1.475772,4.63817 -1.153921,0 -1.500023,-1.24657 -1.500023,-4.63817 0,-3.41475 0.346102,-4.63708 1.500023,-4.63708 z m 25.871897,2.92994 c -2.861741,0 -4.729263,1.93749 -4.729263,4.93686 0,3.02246 1.867522,4.984 4.729263,4.984 2.860655,0 4.707323,-1.96154 4.707323,-4.984 0,-2.99937 -1.846668,-4.93686 -4.707323,-4.93686 z m 0,2.72256 c 0.899933,0 1.475773,0.87608 1.475773,2.2143 0,1.36131 -0.57584,2.23842 -1.475773,2.23842 -0.900475,0 -1.476858,-0.87711 -1.476858,-2.23842 0,-1.33822 0.576383,-2.2143 1.476858,-2.2143 z"
       id="path8002"
       inkscape:connector-curvature="0" />
    <path
       style="opacity:1;fill:url(#linearGradient8226);fill-opacity:1;stroke:none;stroke-width:0.27919298"
       d="m -30.83158,149.65214 c -7.519882,1.78206 -15.510653,4.40979 -24.084532,8.13227 v 55.27457 c 8.569396,-3.71453 16.56234,-6.34035 24.084532,-8.12106 z"
       id="path8004"
       inkscape:connector-curvature="0"
       sodipodi:nodetypes="ccccc" />
    <path
       style="opacity:1;fill:url(#linearGradient8228);fill-opacity:1;stroke:none;stroke-width:0.27919298"
       d="m 118.41554,144.75794 c -8.57272,5.21326 -16.5296,8.61043 -24.083376,10.69172 v 55.29496 c 7.549226,-2.08741 15.504406,-5.49572 24.083376,-10.72759 z"
       id="path8006"
       inkscape:connector-curvature="0"
       sodipodi:nodetypes="ccccc" />
    <path
       style="opacity:1;fill:url(#linearGradient8230);fill-opacity:1;stroke:none;stroke-width:0.27919298"
       d="m -30.831036,200.11104 c -3.046918,0.72196 -6.170052,1.57923 -9.378438,2.59485 v -0.63976 c -4.712893,1.49234 -9.60478,3.31177 -14.706638,5.52689 v 2.19916 c 8.573879,-3.72248 16.565194,-6.34932 24.085076,-8.13146 z"
       id="path8008"
       inkscape:connector-curvature="0"
       sodipodi:nodetypes="ccccccc" />
    <path
       sodipodi:nodetypes="cccc"
       style="fill:#090909;fill-opacity:1;stroke:none;stroke-width:0.26458329px;stroke-linecap:butt;stroke-linejoin:miter;stroke-opacity:1"
       d="m -30.83158,204.93792 v -14.79474 l -9.377894,12.56271 z"
       id="path8010"
       inkscape:connector-curvature="0" />
    <path
       style="opacity:1;fill:url(#linearGradient8232);fill-opacity:1;stroke:none;stroke-width:0.27919298"
       d="m 118.41615,194.56662 c -5.10641,3.10514 -9.99266,5.56188 -14.7067,7.48395 v 0.64846 c -3.20275,1.31267 -6.321877,2.3702 -9.376742,3.21511 v 1.54384 c 7.553782,-2.08137 15.510112,-5.47894 24.083442,-10.6922 z"
       id="path8012"
       inkscape:connector-curvature="0"
       sodipodi:nodetypes="ccccccc" />
    <path
       sodipodi:nodetypes="cccc"
       style="fill:#090909;fill-opacity:1;stroke:none;stroke-width:0.26458329px;stroke-linecap:butt;stroke-linejoin:miter;stroke-opacity:1"
       d="M 94.332164,210.74462 V 193.974 l 9.377286,8.72543 z"
       id="path8014"
       inkscape:connector-curvature="0" />
    <path
       style="opacity:1;fill:url(#linearGradient8234);fill-opacity:1;stroke:none;stroke-width:0.27919298"
       d="m -15.330573,142.20834 c -7.7378,0.76536 -15.98487,2.39798 -24.879445,5.2172 v 55.28069 c 8.287148,-2.62311 16.015914,-4.21646 23.292472,-5.03916 0.664489,-0.0743 1.322727,-0.14408 1.979879,-0.20576 20.3708846,-1.94034 37.253377,2.04203 53.29918,5.78475 21.192291,4.94311 40.911662,9.46838 65.347937,-0.54663 v -55.28272 c -24.471258,9.99367 -44.261752,5.468 -65.429792,0.53026 -16.149667,-3.76698 -33.109532,-7.76545 -53.610231,-5.73836 z"
       id="path8016"
       inkscape:connector-curvature="0"
       sodipodi:nodetypes="ccccccccccc" />
    <path
       style="opacity:1;fill:url(#linearGradient8236);fill-opacity:1;stroke:none;stroke-width:0.27919298"
       d="m -40.209474,155.08101 c -4.712893,1.49235 -9.60478,3.31177 -14.706638,5.52696 v 2.19909 c 5.101858,-2.21519 9.993745,-4.03489 14.706638,-5.5269 z"
       id="path8018"
       inkscape:connector-curvature="0"
       sodipodi:nodetypes="ccccc" />
    <path
       style="opacity:1;fill:url(#linearGradient8238);fill-opacity:1;stroke:none;stroke-width:0.27919298"
       d="m 118.41615,147.58151 c -5.10641,3.10513 -9.99266,5.56092 -14.7067,7.48299 v 2.20011 c 4.71404,-1.92241 9.60029,-4.37888 14.7067,-7.48388 z"
       id="path8020"
       inkscape:connector-curvature="0"
       sodipodi:nodetypes="ccccc" />
    <path
       style="opacity:1;fill:url(#linearGradient8240);fill-opacity:1;stroke:none;stroke-width:0.27919298"
       d="m -4.1541041,144.48595 c -3.6131112,0 -7.3323969,0.16534 -11.1764689,0.54541 -7.737257,0.76536 -15.98487,2.39758 -24.878901,5.21679 v 2.20011 c 8.894031,-2.81929 17.141644,-4.4515 24.878901,-5.2168 20.500699,-2.02709 37.459952,1.9718 53.609688,5.73884 21.168039,4.93781 40.959077,9.4628 65.430335,-0.5308 v -2.20011 c -24.471258,9.99374 -44.262296,5.46861 -65.430335,0.5308 -13.121431,-3.06071 -26.776925,-6.27405 -42.4332191,-6.28424 z"
       id="path8022"
       inkscape:connector-curvature="0"
       sodipodi:nodetypes="cccccccccc" />
    <path
       inkscape:connector-curvature="0"
       id="path8024"
       d="m -4.1541041,191.47154 c -3.6131112,0 -7.3323969,0.16541 -11.1764689,0.54541 -7.737257,0.76536 -15.98487,2.39758 -24.878901,5.2168 v 2.20003 c 8.894031,-2.81928 17.141644,-4.45143 24.878901,-5.21679 20.500699,-2.02709 37.459952,1.97186 53.609688,5.73883 21.168039,4.93788 40.959077,9.46288 65.430335,-0.5308 v -2.20004 c -24.471258,9.99368 -44.262296,5.46861 -65.430335,0.53081 -13.121431,-3.06071 -26.776925,-6.27412 -42.4332191,-6.28425 z"
       style="opacity:1;fill:url(#linearGradient8242);fill-opacity:1;stroke:none;stroke-width:0.27919298"
       sodipodi:nodetypes="cccccccccc" />
    <path
       sodipodi:nodetypes="cccc"
       inkscape:connector-curvature="0"
       style="opacity:0.23399999;fill:#000000;stroke:none;stroke-width:0.26458329px;stroke-linecap:butt;stroke-linejoin:miter;stroke-opacity:1"
       d="m -40.209474,152.25765 c -1.528757,0.48406 -3.076263,1.00298 -4.644012,1.55939 l 4.644012,48.88912 z"
       id="path8026" />
    <path
       sodipodi:nodetypes="cccc"
       inkscape:connector-curvature="0"
       style="opacity:0.17300002;fill:#000000;stroke:none;stroke-width:0.26458329px;stroke-linecap:butt;stroke-linejoin:miter;stroke-opacity:1"
       d="m 109.46683,149.66287 c -1.94891,0.95088 -3.8667,1.80836 -5.75738,2.57915 v 50.45728 z"
       id="path8028" />
    <path
       id="path8030"
       d="m -5.3791461,162.72301 -3.5132325,0.19438 v 8.0692 c 0,1.39806 -0.6661762,2.31349 -1.5293824,2.36148 -0.878449,0.0491 -1.634955,-0.80839 -1.634955,-2.18647 v -8.06824 l -3.513797,0.19443 v 8.0692 c 0,3.71501 2.043693,6.01828 5.132944,5.84677 3.0745728,-0.17066 5.0584229,-2.69784 5.0584229,-6.41257 z m 5.66588493,0.22842 -4.50572213,13.9665 3.58944759,0.18861 0.54874852,-1.97741 3.96374829,0.209 0.5250372,2.03381 3.7255056,0.19539 -4.2759478,-14.42632 z m 9.43824867,0.5794 v 14.20079 l 3.5075875,0.51725 v -3.68655 l 1.315415,0.19437 1.269687,3.87325 3.96149,0.58432 -2.086035,-4.92417 c 1.088464,-0.73003 1.677861,-2.18145 1.677861,-4.24648 0,-3.23937 -1.647939,-5.32636 -4.520965,-5.75249 z m -31.2306785,0.67572 c -0.20945,0.009 -0.417771,0.0316 -0.623834,0.066 -3.466375,0.57765 -5.979214,3.9804 -5.979214,8.07117 0,4.11042 2.421381,6.71353 5.751698,6.16174 1.513574,-0.25089 3.466374,-1.32609 4.646861,-2.5501 v -5.71551 l -3.011907,0.5007 v 3.22283 c -0.514875,0.36216 -1.02975,0.62609 -1.393324,0.68633 -1.377517,0.22859 -2.39146,-0.98752 -2.39146,-2.90487 0,-1.87788 0.999264,-3.42776 2.361538,-3.65443 0.877885,-0.14622 1.906506,0.2562 2.618411,1.02755 l 1.982721,-3.4736 c -0.993054,-0.97657 -2.495902,-1.50527 -3.96149,-1.43792 z m 46.79549,1.9502 -4.431201,13.25973 3.562914,0.74951 0.538586,-1.89087 3.937779,0.8273 0.523908,2.11454 3.696149,0.77779 -4.265786,-15.08844 z m -12.057224,1.45927 1.617453,0.23909 c 0.75594,0.112 1.195165,0.78445 1.195165,1.83746 0,1.09354 -0.439225,1.65663 -1.195165,1.54485 l -1.617453,-0.23915 z m -11.2764438,0.10399 1.0743502,4.21057 -2.19725228,-0.11664 z m 32.8086128,0.4657 v 14.19012 l 3.190871,0.73398 v -7.2467 l 4.174328,8.20723 2.934562,0.67566 v -14.19107 l -3.176757,-0.7311 v 7.28859 l -4.189006,-8.25201 z m 12.132875,2.77462 v 3.70502 l 3.013036,0.59205 v 10.48905 l 3.512103,0.69113 v -10.4899 l 3.02715,0.59493 v -3.70688 z m -19.931088,0.22554 1.077173,4.37684 -2.185397,-0.45989 z m 31.301812,1.94535 v 14.19983 l 9.085966,1.06069 v -3.56698 l -5.584025,-0.65037 v -1.76266 l 4.950593,0.57653 v -3.56698 l -4.950593,-0.57551 v -1.74216 l 5.448531,0.63292 v -3.56602 z m 28.833573,0.10405 c -0.396318,-0.0192 -0.813525,0.006 -1.249363,0.0777 l -4.72985,0.77672 v 14.21055 l 4.593792,-0.75634 c 3.580415,-0.58967 5.892272,-3.76711 5.892272,-8.08376 0,-3.77722 -1.73488,-6.08992 -4.506851,-6.22497 z m -8.466083,1.03636 -8.949908,0.0574 v 14.20757 l 9.085966,-0.0542 v -3.56794 l -5.584589,0.0339 v -1.76356 l 4.950593,-0.0299 v -3.56788 l -4.950593,0.0311 v -1.74414 l 5.448531,-0.0339 z m 7.389475,2.6774 c 1.218312,-0.0412 2.003045,1.16508 2.003045,3.14119 0,2.08762 -0.816348,3.5593 -2.085471,3.76819 l -1.314286,0.21583 v -6.91135 l 1.147742,-0.18952 c 0.08525,-0.0135 0.167674,-0.0215 0.24897,-0.0243 z"
       style="font-style:normal;font-variant:normal;font-weight:900;font-stretch:normal;font-size:8.0376358px;line-height:1.25;font-family:Montserrat;-inkscape-font-specification:'Montserrat, Heavy';font-variant-ligatures:normal;font-variant-caps:normal;font-variant-numeric:normal;font-feature-settings:normal;text-align:start;letter-spacing:0.5291667px;word-spacing:0px;writing-mode:lr-tb;text-anchor:start;opacity:0.47000002;fill:#000000;fill-opacity:1;stroke:none;stroke-width:0.04872473"
       inkscape:connector-curvature="0" />
    <path
       inkscape:connector-curvature="0"
       style="font-style:normal;font-variant:normal;font-weight:900;font-stretch:normal;font-size:8.0376358px;line-height:1.25;font-family:Montserrat;-inkscape-font-specification:'Montserrat, Heavy';font-variant-ligatures:normal;font-variant-caps:normal;font-variant-numeric:normal;font-feature-settings:normal;text-align:start;letter-spacing:0.5291667px;word-spacing:0px;writing-mode:lr-tb;text-anchor:start;opacity:1;fill:#ffffff;fill-opacity:1;stroke:none;stroke-width:0.04872475"
       d="m -5.3791461,161.80352 -3.5132325,0.19443 v 8.06909 c 0,1.39812 -0.6661762,2.31361 -1.5293824,2.36148 -0.878449,0.0491 -1.634955,-0.80833 -1.634955,-2.18641 v -8.06824 l -3.513797,0.19443 v 8.0692 c 0,3.715 2.043693,6.01822 5.132944,5.84677 3.0745728,-0.17067 5.0584229,-2.6979 5.0584229,-6.41263 z m 5.66588493,0.22836 -4.50572213,13.9665 3.58944759,0.18862 0.54931308,-1.97742 3.96318373,0.209 0.5250372,2.03381 3.7255056,0.19545 -4.2759478,-14.42638 z m 9.43824867,0.57946 v 14.20084 l 3.5075875,0.51719 v -3.68655 l 1.315415,0.19444 1.269687,3.87319 3.96149,0.58426 -2.086035,-4.92412 c 1.088464,-0.73002 1.677861,-2.18144 1.677861,-4.24653 0,-3.23931 -1.647939,-5.32636 -4.520965,-5.75249 z M -21.505691,163.287 c -0.20945,0.01 -0.417771,0.0322 -0.623834,0.0661 -3.466375,0.57765 -5.979214,3.98046 -5.979214,8.07118 0,4.11042 2.421381,6.71359 5.751698,6.16173 1.513574,-0.25089 3.466374,-1.32603 4.646861,-2.5501 v -5.71551 l -3.011907,0.50076 v 3.22277 c -0.514875,0.36216 -1.02975,0.62609 -1.393324,0.68639 -1.377517,0.22853 -2.39146,-0.98758 -2.39146,-2.90487 0,-1.87794 0.999264,-3.42781 2.361538,-3.65454 0.877885,-0.14616 1.906506,0.25625 2.618411,1.02761 l 1.982721,-3.4736 c -0.993054,-0.97663 -2.495902,-1.50534 -3.96149,-1.43793 z m 46.79549,1.95026 -4.431201,13.25973 3.562914,0.7495 0.538586,-1.89092 3.937779,0.82736 0.523908,2.11449 3.696149,0.77778 -4.265786,-15.08843 z m -12.057224,1.45921 1.617453,0.2392 c 0.75594,0.11195 1.195165,0.7844 1.195165,1.83741 0,1.09354 -0.439225,1.65663 -1.195165,1.54479 l -1.617453,-0.23909 z m -11.2764438,0.10405 1.0743502,4.21051 -2.19668772,-0.11664 z m 32.8086128,0.4657 v 14.19006 l 3.190871,0.73404 v -7.2467 l 4.174328,8.20723 2.934562,0.67566 v -14.19108 l -3.176757,-0.73104 v 7.28848 l -4.189006,-8.25201 z m 12.132875,2.77462 v 3.70501 l 3.013036,0.59211 v 10.48895 l 3.512103,0.69118 v -10.48996 l 3.02715,0.59504 v -3.70693 z m -19.931088,0.22554 1.077173,4.37684 -2.185397,-0.45989 z m 31.301812,1.94535 v 14.19988 l 9.085966,1.06064 v -3.56698 l -5.584025,-0.65043 v -1.7626 l 4.950593,0.57653 v -3.56693 l -4.950593,-0.57556 v -1.74216 l 5.448531,0.63292 v -3.56602 z m 28.833573,0.10405 c -0.396318,-0.0192 -0.813525,0.006 -1.249363,0.0777 l -4.72985,0.77683 v 14.21044 l 4.593792,-0.75634 c 3.580415,-0.58962 5.892272,-3.767 5.892272,-8.08371 0,-3.77716 -1.73488,-6.08992 -4.506851,-6.22496 z m -8.466083,1.0363 -8.949908,0.0574 v 14.20762 l 9.085966,-0.0542 v -3.56799 l -5.584589,0.0339 v -1.7635 l 4.950593,-0.0305 v -3.56794 l -4.950593,0.031 v -1.74413 l 5.448531,-0.0339 z m 7.389475,2.6774 c 1.218312,-0.0412 2.003045,1.16508 2.003045,3.14125 0,2.08756 -0.816348,3.5593 -2.085471,3.76819 l -1.314286,0.21577 v -6.91124 l 1.147742,-0.18958 c 0.08525,-0.0135 0.168238,-0.0214 0.24897,-0.0243 z"
       id="path8032" />
  </g>
</svg>
