<svg viewBox="0 0 4417 3409" xmlns="http://www.w3.org/2000/svg" xmlns:xlink="http://www.w3.org/1999/xlink">
  <defs>
    <path id="c" d="M.39427026.17926012H465.149885V444.719443H.39427026z"/>
    <path id="e" d="M.39427026.17926012H465.149885V444.719443H.39427026z"/>
    <path id="g" d="M.13438134.17926012H882.105974V443.120305H.13438134z"/>
    <path id="i" d="M.13438134.17926012H882.105974V443.120305H.13438134z"/>
    <path id="k" d="M.13438134.17926012H882.105974V443.120305H.13438134z"/>
    <path id="m" d="M.13438134.17926012H882.105974V443.120305H.13438134z"/>
    <linearGradient x1="-16.8191753%" y1="-19.0224811%" x2="81.5553282%" y2="90.542068%" id="a">
      <stop stop-color="#3E568E" offset="0%"/>
      <stop stop-color="#284381" offset="52.4182623%"/>
      <stop stop-color="#1C2F5A" offset="100%"/>
    </linearGradient>
    <linearGradient x1="28.2990524%" y1="26.6701706%" x2="86.3338765%" y2="114.311655%" id="b">
      <stop stop-color="#FBFCFC" offset="0%"/>
      <stop stop-color="#DCDCDC" offset="100%"/>
    </linearGradient>
  </defs>
  <g fill="none" fill-rule="evenodd">
    <path fill="url(#a)" d="M0 0h4416v3408H0z" transform="translate(.723183 .144507)"/>
    <path d="M713.125713.144507h946.70022c305.91427 35.4946416 619.2649 92.5510115 910.82437 142.398276 836.82365 143.06985 1495.48485 226.752215 1791.07255 597.923994 19.95314 25.055309 38.26416 51.426768 55.00033 78.981527v1388.312753c-9.84052 27.28237-20.08558 54.24511-30.70545 80.82947-205.15676 518.29078-552.03366 893.5117-970.44549 1079.77245-32.47397 14.39784-65.38982 27.65007-98.77813 39.78153h-1439.01897c-627.02232-140.58844-1390.38567-416.11107-1775.7546-1073.66365-37.3433085-63.71865-71.1498272-131.02462-101.29736-201.00633V474.948193C57.275472 373.972158 127.718847 285.864042 212.69722 215.427424 347.440273 103.742005 518.630723 36.293533 713.125713.144507z" fill="#F2B032"/>
    <path d="M4122.991203 882.024595c260.82563 327.520772 203.65837 909.912262 21.43772 1366.059372-181.02966 457.3381-487.11271 788.43182-856.31795 952.7877-368.01425 163.1649-800.34167 159.59194-1354.14952 35.72954-553.80785-123.8624-1229.096138-366.82327-1569.717742-948.02376-340.6216037-581.2005-347.7675114-1500.640637 97.66074-1869.845872 445.428251-369.2052352 1342.239672-190.557541 2080.650142-64.31317 738.41047 126.244371 1319.61097 200.085418 1580.43661 527.60619z" fill="#F7D084"/>
    <path d="M3892.26492 987.678338c229.48691 288.168502 179.18841 800.584492 18.86193 1201.924622-159.27859 402.38802-428.58515 693.70018-753.42964 838.30837-323.79661 143.56031-704.17903 140.41665-1191.44577 31.43657-487.26674-108.98009-1081.4178-322.74873-1381.113042-834.11683-299.695242-511.36811-305.982555-1320.335683 85.926608-1645.180176C1062.97417 255.2064 1852.03192 412.38922 2501.72091 523.465079 3151.40989 634.540938 3662.778 699.509836 3892.26492 987.678338z" fill="url(#b)" transform="translate(.723183 .144507)"/>
    <path d="M3313.154533 1925.330819c-80.47203 0-134.2156-46.126394-134.64786-115.131211h84.50122c.44794 28.672498 22.3073 42.984111 53.37179 42.984111 24.07665 0 45.60007-10.9476 45.60007-32.466532 0-22.007183-27.79454-28.674737-61.68104-34.361307-51.19929-8.562331-116.34736-22.32746-116.34736-98.21484 0-60.924019 51.59795-102.989857 128.97921-102.989857 77.38125 0 128.155 43.257352 128.49095 107.599136h-82.24138c-.33595-25.583967-18.18627-38.213573-48.42207-38.213573-26.96586 0-42.89004 12.414596-42.89004 30.844997 0 21.462939 27.3466 26.448487 60.65077 32.518044 52.29674 9.43357 119.06187 20.549146 119.06187 98.983053 0 65.694556-53.48377 108.465896-134.42613 108.465896v-.017917" fill="#284381"/>
    <path d="M2916.071113 1719.189847h155.33811c-12.2511-39.364773-40.39503-60.711248-79.28947-60.711248-38.58312 0-65.98124 22.602941-76.04864 60.711248zm241.99615 33.931288c0 8.508578-.59575 17.017157-1.67304 25.525735h-242.60535c7.53207 43.944937 36.29192 68.140297 78.33088 68.140297 30.11486 0 54.83431-14.311613 67.9992-37.349053h91.09039c-23.31069 70.196331-84.66696 114.913961-159.08287 114.913961-94.65373 0-166.26555-73.607378-166.26555-170.093178 0-96.971813 71.12804-170.097657 166.26555-170.097657 98.43433 0 165.94751 76.214376 165.94751 168.959895h-.00672z" fill="#284381" fill-rule="nonzero"/>
    <g transform="translate(2327.818967 1481.988785)">
      <mask id="d" fill="#fff">
        <use xlink:href="#c"/>
      </mask>
      <path d="M.55552786 84.5550621H86.895537V.17926012H.55552786V84.5550621zM.39427026 435.88387H87.0635137V125.642156H.39427026V435.88387z" fill="#284381" fill-rule="nonzero" mask="url(#d)"/>
    </g>
    <g transform="translate(2327.818967 1481.988785)">
      <mask id="f" fill="#fff">
        <use xlink:href="#e"/>
      </mask>
      <path d="M384.957822 274.267915c0-50.464672-37.017579-88.243745-87.368026-88.243745-50.352687 0-87.262761 37.671568-87.262761 88.243745 0 50.574416 36.910074 88.243745 87.262761 88.243745 50.350447 0 87.368026-37.884339 87.368026-88.243745zM465.149885.55104848V435.254517h-64.003591l-10.233139-26.811316c-26.903143 22.997126-61.542173 36.410623-100.394057 36.410623-97.245055 0-168.534354-73.125844-168.534354-170.585909 0-97.56981 71.289299-170.095417 168.534354-170.095417 33.107082 0 63.154749 9.657538 87.961544 26.667976V.302443l86.669243.24860548z" fill="#284381" fill-rule="nonzero" mask="url(#f)"/>
    </g>
    <path d="M2062.601803 1681.345823h70.12242c36.66819 0 58.55443-23.677991 58.55443-56.339375 0-32.556119-21.88624-56.3460951-58.55443-56.3460951h-70.12242v112.6854701zm56.22067 86.973841h-56.22067v148.516015h-87.63903v-435.14916727h163.49506c81.12153 0 141.61553 60.01918457 141.61553 143.94256927 0 56.917216-29.02413 103.446754-73.83135 126.670088l89.6122 164.53651h-97.89905l-79.13269-148.516015z" fill="#284381" fill-rule="nonzero"/>
    <g>
      <g transform="translate(969.723183 1481.988785)">
        <mask id="h" fill="#fff">
          <use xlink:href="#g"/>
        </mask>
        <path d="M800.733595 154.901452c-18.970166 0-34.34787-15.377704-34.34787-34.350109 0-18.970165 15.377704-34.3478698 34.34787-34.3478698 18.970165 0 34.350109 15.3777048 34.350109 34.3478698 0 18.972405-15.379944 34.350109-34.350109 34.350109zm67.676681-9.939739c-9.997971 27.711671-36.520368 47.52396-67.676681 47.52396-7.046062 0-13.847997-1.032497-20.282623-2.920555 2.809251 10.463843 4.231678 21.2514 4.230772 32.085784 0 68.400101-55.647312 124.045173-124.047412 124.045173-68.400101 0-124.045173-55.645072-124.045173-124.045173 0-68.4001 55.645072-124.0474121 124.045173-124.0474121 24.266625-.0228938 48.000389 7.1160121 68.227644 20.5222701 11.984482 7.917809 22.515023 17.841474 31.129437 29.335446.398665.528566.765974 1.08177 1.1512 1.617055 8.86021 12.277975 23.252451 20.298301 39.548428 20.298301 26.943458 0 48.782665-21.839207 48.782665-48.782665 0-9.626183-2.826488-18.57598-7.639579-26.13717-1.209432-1.7178415-2.436782-3.4244845-3.693247-5.1064909-11.346771-15.1743431-24.577514-28.8438536-39.373732-40.6794704C760.867132 18.3453772 712.837002.17926012 660.634332.17926012c-122.116801 0-221.469403 99.35260198-221.469403 221.47164188 0 122.119041 99.352602 221.469403 221.469403 221.469403 122.11904 0 221.471642-99.350362 221.471642-221.469403.023647-26.173409-4.613986-52.141879-13.695698-76.689189z" fill="#F2B032" fill-rule="nonzero" mask="url(#h)"/>
      </g>
      <g transform="translate(969.723183 1481.988785)">
        <mask id="j" fill="#fff">
          <use xlink:href="#i"/>
        </mask>
        <path d="M241.678116 419.052607c-6.620521 0-13.346307-1.328135-19.79885-4.143424-25.068839-10.920724-36.513649-40.045639-25.56381-65.051766L336.459513 29.8215434c10.949839-25.00612715 40.150904-36.41958206 65.213023-25.50109841 25.068839 10.92296301 36.513649 40.04787821 25.56381 65.05176571L287.092289 389.412564c-8.130071 18.564782-26.325304 29.640043-45.414173 29.640043" fill="#6078A5" mask="url(#j)"/>
      </g>
      <g transform="translate(969.723183 1481.988785)">
        <mask id="l" fill="#fff">
          <use xlink:href="#k"/>
        </mask>
        <path d="M433.809833 436.858135c-24.036342 0-45.131972-17.483012-48.89465-41.91354L332.891688 57.0964755c-4.154623-26.9703344 14.398961-52.189232 41.436486-56.33265657C401.381377-3.3639278 426.649547 15.1291839 430.80417 42.0972786l52.023495 337.8458804c4.152384 26.970334-14.39896 52.191472-41.436485 56.334896-2.508785.385022-5.04319.57894-7.581347.58008" fill="#284381" mask="url(#l)"/>
      </g>
      <g transform="translate(969.723183 1481.988785)">
        <mask id="n" fill="#fff">
          <use xlink:href="#m"/>
        </mask>
        <path d="M49.6001516 436.858135c-2.5039723 0-5.0348208-.190374-7.5835868-.58008-27.0352854-4.143424-45.58886868-29.364562-41.43648536-56.334896L52.6035745 42.0972786C55.9519095 20.363337 73.2960607 3.45144568 95.1531852.6070407c21.8616038-2.84216528 42.9729118 9.0640212 51.7950468 29.2145027L287.092289 349.857417c10.949839 25.006127-.494971 54.131042-25.56157 65.051766-25.071078 10.922963-54.267663-.494971-65.215263-25.496619l-71.741717-163.835487-26.0811776 169.367518c-3.7604377 24.428288-24.8605473 41.91354-48.8924098 41.91354" fill="#284381" mask="url(#n)"/>
      </g>
    </g>
  </g>
</svg>
